<svg width="775" height="436" xmlns="http://www.w3.org/2000/svg" xmlns:xlink="http://www.w3.org/1999/xlink">
<path fill="#6a4c93" d="M 328.39 335.90 Q 328.39 335.90 326.80 336.75 325.20 337.60 322.98 338.12 320.76 338.65 318.05 340.14 315.34 341.63 313.56 342.80 311.78 343.98 309.19 345.90 306.61 347.83 304.85 349.21 303.10 350.60 301.72 352.40 300.33 354.19 299.29 356.02 298.25 357.85 297.12 359.99 295.99 362.14 295.19 364.29 294.38 366.43 294.30 368.64 294.21 370.85 294.23 372.87 294.24 374.88 294.48 376.91 294.72 378.94 295.31 380.95 295.90 382.96 297.03 385.23 298.16 387.50 300.33 388.96 302.51 390.41 304.52 391.66 306.54 392.90 308.65 393.07 310.75 393.23 313.60 394.04 316.44 394.84 318.60 395.17 320.75 395.50 323.70 395.82 326.66 396.13 328.96 396.23 331.26 396.34 333.88 396.55 336.50 396.76 338.99 396.86 341.49 396.97 343.88 397.18 346.27 397.40 349.25 397.71 352.23 398.02 354.46 398.13 356.68 398.24 359.90 398.23 363.12 398.23 366.50 398.22 369.87 398.21 373.14 398.20 376.41 398.19 379.50 398.00 382.59 397.80 385.64 397.49 388.69 397.18 391.86 396.85 395.03 396.53 397.69 396.21 400.34 395.88 403.34 395.40 406.33 394.91 409.29 394.27 412.25 393.62 414.20 393.03 416.14 392.44 419.21 391.56 422.28 390.68 424.77 389.80 427.26 388.92 429.14 388.05 431.02 387.18 433.00 386.19 434.98 385.21 436.48 383.78 437.98 382.35 439.26 380.70 440.55 379.04 440.61 376.94 440.68 374.83 439.83 372.85 438.97 370.88 437.79 368.49 436.60 366.10 435.50 364.40 434.39 362.69 433.36 360.73 432.33 358.77 430.90 357.28 429.47 355.78 427.80 354.09 426.12 352.39 424.12 350.99 422.12 349.60 420.30 348.31 418.48 347.02 416.46 346.06 414.44 345.09 412.45 344.02 410.46 342.95 407.94 341.55 405.43 340.15 403.25 339.63 401.08 339.10 398.85 338.38 396.63 337.65 394.44 336.97 392.24 336.29 390.31 335.58 388.38 334.87 386.40 334.15 384.42 333.44 382.27 332.80 380.13 332.17 377.89 331.83 375.64 331.49 373.59 331.46 371.54 331.43 369.53 331.42 367.53 331.41 365.50 331.40 363.47 331.40 361.26 331.41 359.06 331.43 356.65 331.74 354.24 332.04 352.02 332.04 349.80 332.04 347.64 332.04 345.49 332.04 343.43 332.32 341.37 332.61 338.58 333.25 335.80 333.90 333.77 334.48 331.74 335.07 329.71 335.94 327.68 336.81 325.32 337.60 322.96 338.38 321.00 338.98 319.04 339.57 317.19 340.48 315.34 341.39 313.06 342.41 310.77 343.42 308.99 344.40 307.21 345.39 305.52 346.63 303.83 347.87 302.35 349.81 300.88 351.75 299.71 353.64 298.53 355.54 297.97 357.48 297.40 359.43 296.14 361.36 294.88 363.30 294.07 365.18 293.25 367.06 292.30 369.30 291.36 371.54 291.42 373.60 291.49 375.65 292.12 377.78 292.75 379.91 294.04 382.20 295.33 384.49 296.81 385.87 298.28 387.26 301.07 389.41 303.86 391.56 303.86 391.57 303.86 391.57 303.85 391.58 303.85 391.58 300.49 391.00 297.12 390.43 295.36 389.23 293.60 388.04 292.41 386.36 291.23 384.69 290.09 382.32 288.95 379.94 288.36 377.66 287.78 375.37 287.81 373.06 287.85 370.74 288.81 368.53 289.77 366.32 291.09 364.50 292.40 362.68 293.06 360.79 293.72 358.90 294.30 356.59 294.89 354.28 296.14 352.42 297.38 350.55 298.63 348.62 299.87 346.69 301.27 345.00 302.66 343.32 304.44 342.19 306.21 341.06 308.58 340.03 310.95 339.00 313.26 338.07 315.57 337.14 317.59 335.87 319.60 334.60 321.47 333.71 323.33 332.83 325.44 332.35 327.55 331.87 329.39 330.92 331.23 329.96 333.17 329.41 335.12 328.86 337.22 328.18 339.32 327.49 341.56 327.05 343.80 326.61 346.35 326.61 348.90 326.61 350.97 326.59 353.03 326.56 355.02 326.23 357.01 325.89 359.22 325.91 361.43 325.92 363.80 325.93 366.17 325.94 368.29 325.92 370.41 325.91 372.66 325.94 374.91 325.96 377.20 326.29 379.49 326.61 382.25 327.09 385.00 327.56 387.01 328.08 389.02 328.60 391.52 329.76 394.02 330.92 396.05 331.56 398.07 332.20 400.18 332.85 402.28 333.49 404.42 334.23 406.56 334.97 408.65 336.00 410.74 337.02 412.91 337.86 415.08 338.69 417.16 339.75 419.23 340.82 421.04 341.93 422.85 343.04 424.62 344.31 426.38 345.59 428.33 346.92 430.27 348.24 431.98 349.94 433.68 351.64 435.44 353.70 437.19 355.77 438.12 357.64 439.05 359.52 440.19 361.28 441.34 363.05 442.38 364.79 443.41 366.54 444.14 368.43 444.86 370.32 445.40 372.36 445.94 374.40 445.58 376.63 445.21 378.87 444.29 380.95 443.38 383.04 442.20 384.71 441.03 386.37 439.16 388.01 437.29 389.66 435.39 390.69 433.49 391.73 431.29 392.80 429.10 393.88 426.60 394.83 424.10 395.78 420.95 396.68 417.79 397.58 415.73 398.21 413.67 398.85 410.70 399.51 407.74 400.17 404.40 400.77 401.07 401.37 398.33 401.70 395.59 402.03 392.43 402.36 389.27 402.68 386.15 402.97 383.04 403.27 379.73 403.45 376.41 403.63 373.14 403.63 369.87 403.62 366.49 403.61 363.12 403.60 360.25 403.59 357.38 403.57 355.06 403.49 352.75 403.40 350.53 403.11 348.31 402.82 345.63 402.49 342.95 402.16 340.22 402.09 337.49 402.03 335.02 401.75 332.55 401.47 330.10 401.41 327.64 401.34 324.89 401.05 322.14 400.75 319.84 400.40 317.54 400.05 315.05 399.55 312.56 399.04 309.90 398.16 307.25 397.27 305.07 396.32 302.89 395.37 300.39 394.06 297.88 392.74 295.98 390.65 294.07 388.56 293.03 386.38 291.99 384.21 291.36 381.80 290.73 379.40 290.51 377.14 290.29 374.88 290.31 372.52 290.32 370.17 290.57 367.68 290.82 365.19 291.89 362.71 292.97 360.24 293.97 358.40 294.98 356.55 296.25 354.39 297.53 352.22 299.27 350.05 301.00 347.88 302.76 346.55 304.52 345.23 306.35 343.92 308.17 342.62 310.31 341.49 312.45 340.35 314.50 339.55 316.55 338.74 318.42 337.75 320.28 336.76 322.53 336.23 324.78 335.69 326.58 335.79 328.39 335.88 328.39 335.89 Z"></path><path fill="#6a4c93" d="M 340.22 347.07 Q 340.22 347.07 339.88 347.83 339.54 348.59 341.50 348.12 343.46 347.65 341.58 348.42 339.71 349.18 341.43 348.04 343.15 346.89 342.07 347.25 341.00 347.61 340.99 347.61 340.99 347.61 340.99 347.60 340.98 347.60 343.37 346.64 345.76 345.68 345.45 348.10 345.14 350.51 343.47 351.67 341.81 352.83 339.79 352.25 337.78 351.68 338.56 348.99 339.35 346.31 341.26 345.61 343.16 344.92 343.90 346.81 344.64 348.69 343.70 351.17 342.75 353.65 340.44 353.20 338.12 352.74 337.39 350.82 336.67 348.90 337.91 347.22 339.15 345.53 341.18 345.54 343.21 345.55 344.74 346.92 346.26 348.29 345.20 350.40 344.13 352.52 341.85 353.09 339.57 353.67 337.93 351.75 336.29 349.83 337.45 348.05 338.62 346.28 339.41 346.66 340.21 347.05 340.21 347.06 Z"></path><path fill="#6a4c93" d="M 371.07 347.72 Q 371.07 347.72 370.43 347.33 369.80 346.93 367.90 347.90 366.00 348.86 368.03 348.35 370.05 347.84 368.49 348.95 366.93 350.05 366.93 350.06 366.93 350.06 366.92 350.06 366.92 350.07 366.43 348.18 365.94 346.29 368.18 345.65 370.41 345.01 371.97 346.42 373.54 347.83 372.58 349.76 371.63 351.70 368.75 351.57 365.87 351.44 366.17 348.92 366.48 346.41 368.42 345.38 370.37 344.35 371.90 345.67 373.44 346.99 372.82 349.07 372.21 351.15 370.12 352.20 368.04 353.25 366.16 352.53 364.28 351.81 363.90 349.41 363.51 347.01 365.28 345.71 367.06 344.42 368.96 345.32 370.85 346.23 370.97 346.97 371.09 347.71 371.08 347.71 Z"></path><path fill="#6a4c93" d="M 350.06 363.47 Q 350.06 363.47 350.25 362.57 350.44 361.68 352.57 361.91 354.69 362.15 356.77 361.64 358.86 361.12 360.79 360.43 362.73 359.74 364.68 358.70 366.63 357.65 366.77 357.61 366.90 357.57 367.14 357.58 367.38 357.59 367.61 357.65 367.84 357.72 368.04 357.83 368.25 357.95 368.43 358.11 368.60 358.28 368.73 358.48 368.86 358.68 368.94 358.90 369.01 359.13 369.03 359.36 369.06 359.60 369.02 359.84 368.98 360.07 368.89 360.29 368.80 360.51 368.66 360.71 368.52 360.90 368.34 361.05 368.15 361.20 367.94 361.31 367.72 361.41 367.49 361.46 367.26 361.51 365.04 362.59 362.82 363.67 360.96 364.45 359.10 365.22 357.13 365.78 355.15 366.34 352.02 364.38 348.89 362.43 348.89 362.42 348.90 362.42 348.90 362.42 348.90 362.42 351.24 362.13 353.59 361.84 355.77 361.44 357.95 361.05 360.36 360.05 362.76 359.06 364.83 358.31 366.90 357.57 367.14 357.58 367.38 357.59 367.61 357.65 367.84 357.72 368.04 357.83 368.25 357.95 368.43 358.11 368.60 358.28 368.73 358.48 368.86 358.68 368.93 358.90 369.01 359.13 369.03 359.36 369.06 359.60 369.02 359.84 368.98 360.07 368.89 360.29 368.80 360.51 368.66 360.71 368.52 360.90 368.34 361.05 368.15 361.20 367.94 361.31 367.72 361.41 367.49 361.46 367.26 361.51 365.69 362.53 364.12 363.56 362.06 364.24 360.01 364.93 357.34 365.52 354.68 366.12 352.56 365.70 350.44 365.28 350.25 364.38 350.06 363.49 350.06 363.48 Z"></path><path fill="#6a4c93" d="M 350.72 361.52 Q 350.72 361.52 349.94 361.97 349.15 362.43 348.10 361.99 347.05 361.55 346.90 361.41 346.76 361.26 346.65 361.09 346.54 360.91 346.48 360.72 346.41 360.52 346.40 360.31 346.38 360.11 346.42 359.90 346.45 359.70 346.53 359.51 346.62 359.32 346.74 359.16 346.87 358.99 347.03 358.87 347.19 358.74 347.38 358.65 347.57 358.56 347.77 358.52 347.97 358.48 348.18 358.49 348.38 358.50 348.58 358.56 348.78 358.62 348.96 358.73 349.13 358.83 351.19 359.22 353.25 359.61 355.40 359.57 357.55 359.53 360.65 359.53 363.74 359.53 363.74 359.53 363.74 359.54 363.74 359.54 363.74 359.55 362.30 361.19 360.86 362.83 358.02 363.14 355.17 363.45 353.09 363.28 351.01 363.11 349.03 362.33 347.05 361.55 346.90 361.41 346.76 361.26 346.65 361.09 346.54 360.91 346.48 360.72 346.41 360.52 346.40 360.31 346.38 360.11 346.42 359.90 346.45 359.70 346.53 359.51 346.62 359.32 346.74 359.16 346.87 359.00 347.03 358.87 347.19 358.74 347.38 358.65 347.57 358.56 347.77 358.52 347.97 358.48 348.18 358.49 348.38 358.50 348.58 358.56 348.78 358.62 348.96 358.73 349.13 358.83 349.58 359.33 350.02 359.83 350.37 360.66 350.72 361.50 350.72 361.51 Z"></path><path fill="#6a4c93" d="M 365.17 358.23 Q 365.17 358.23 364.60 358.98 364.04 359.73 361.82 360.06 359.61 360.39 357.37 360.82 355.14 361.24 353.07 361.23 351.01 361.21 348.95 361.26 346.90 361.31 346.84 361.21 346.78 361.11 346.59 361.08 346.40 361.06 346.23 360.99 346.05 360.93 345.89 360.82 345.74 360.71 345.61 360.57 345.49 360.43 345.40 360.26 345.31 360.09 345.27 359.91 345.22 359.73 345.22 359.54 345.22 359.35 345.27 359.16 345.31 358.98 345.40 358.81 345.49 358.64 345.61 358.50 345.74 358.36 345.89 358.25 346.05 358.14 346.23 358.08 346.40 358.01 346.59 357.99 346.78 357.96 348.80 358.61 350.83 359.26 352.97 361.34 355.10 363.42 355.10 363.42 355.10 363.43 355.10 363.43 355.10 363.44 352.97 363.27 350.84 363.10 348.81 362.10 346.78 361.11 346.59 361.08 346.40 361.06 346.23 360.99 346.05 360.93 345.89 360.82 345.74 360.71 345.61 360.57 345.49 360.43 345.40 360.26 345.31 360.09 345.27 359.91 345.22 359.73 345.22 359.54 345.22 359.35 345.27 359.16 345.31 358.98 345.40 358.81 345.49 358.64 345.61 358.50 345.74 358.36 345.89 358.25 346.05 358.14 346.23 358.08 346.40 358.01 346.59 357.99 346.78 357.96 346.92 357.86 347.06 357.76 349.23 357.81 351.40 357.86 353.50 357.86 355.61 357.85 357.77 357.62 359.93 357.39 361.98 357.05 364.04 356.71 364.60 357.46 365.17 358.21 365.17 358.22 Z"></path><path fill="#000000" d="M 346.13 319.47 Q 346.13 319.47 347.40 318.91 348.68 318.35 351.19 319.22 353.70 320.08 355.82 320.38 357.93 320.67 359.93 321.28 361.92 321.90 364.06 322.31 366.19 322.71 368.20 323.44 370.20 324.16 372.46 324.26 374.73 324.36 376.93 324.72 379.13 325.08 381.79 325.58 384.46 326.07 386.70 326.43 388.94 326.80 391.66 327.39 394.38 327.99 396.45 327.91 398.52 327.83 400.53 327.85 402.55 327.86 404.56 327.90 406.58 327.93 408.21 328.09 409.83 328.24 410.27 328.30 410.72 328.35 411.14 328.51 411.55 328.67 411.92 328.92 412.29 329.18 412.58 329.51 412.88 329.85 413.09 330.24 413.30 330.64 413.40 331.07 413.51 331.50 413.51 331.95 413.51 332.40 413.40 332.83 413.30 333.27 413.09 333.66 412.88 334.06 412.58 334.39 412.29 334.73 411.92 334.98 411.55 335.23 411.13 335.39 410.72 335.55 410.27 335.60 409.83 335.66 407.66 335.54 405.50 335.43 403.38 335.43 401.27 335.43 399.11 335.42 396.96 335.41 394.78 335.38 392.60 335.35 390.44 335.10 388.29 334.86 386.12 334.44 383.95 334.03 381.89 333.68 379.84 333.34 376.95 332.87 374.06 332.40 371.87 331.73 369.68 331.07 367.43 330.41 365.17 329.75 363.04 328.72 360.90 327.70 358.92 326.62 356.94 325.55 354.13 324.46 351.32 323.37 349.41 322.15 347.49 320.93 347.49 319.55 347.49 318.17 347.49 318.16 347.49 318.16 347.49 318.15 347.49 318.15 350.27 317.85 353.05 317.56 354.96 318.26 356.88 318.97 358.91 319.84 360.94 320.72 362.20 322.38 363.47 324.04 361.97 322.62 360.48 321.20 362.69 321.89 364.90 322.58 367.12 323.10 369.34 323.61 371.60 324.28 373.85 324.95 376.18 325.43 378.50 325.91 380.86 326.52 383.22 327.13 385.30 327.51 387.38 327.89 389.99 328.22 392.60 328.55 394.78 328.52 396.96 328.49 399.11 328.48 401.27 328.47 403.38 328.47 405.50 328.47 407.66 328.36 409.83 328.24 410.27 328.30 410.72 328.35 411.13 328.51 411.55 328.67 411.92 328.92 412.29 329.18 412.58 329.51 412.88 329.85 413.09 330.24 413.30 330.64 413.40 331.07 413.51 331.50 413.51 331.95 413.51 332.40 413.40 332.83 413.30 333.27 413.09 333.66 412.88 334.06 412.58 334.39 412.29 334.73 411.92 334.98 411.55 335.23 411.14 335.39 410.72 335.55 410.27 335.60 409.83 335.66 409.36 335.82 408.89 335.97 406.87 336.00 404.84 336.02 402.59 336.04 400.33 336.06 398.17 336.02 396.01 335.99 394.02 335.61 392.02 335.22 389.97 334.84 387.92 334.45 385.32 333.97 382.73 333.50 380.55 332.94 378.37 332.39 376.20 332.03 374.02 331.66 371.67 331.29 369.31 330.92 366.49 330.17 363.67 329.41 361.09 328.66 358.51 327.90 356.55 327.38 354.58 326.87 352.25 325.97 349.91 325.06 347.50 323.58 345.08 322.11 345.60 320.79 346.12 319.48 346.12 319.47 Z"></path><path fill="#000000" d="M 364.51 324.08 Q 364.51 324.08 363.61 324.88 362.70 325.68 361.83 323.77 360.95 321.86 361.20 319.85 361.45 317.84 362.75 315.49 364.04 313.14 365.26 309.82 366.47 306.50 367.65 304.65 368.83 302.80 371.31 301.40 373.79 300.01 375.81 299.68 377.83 299.35 379.89 299.33 381.94 299.32 384.74 299.91 387.53 300.50 389.56 301.17 391.58 301.84 394.02 302.83 396.45 303.82 397.51 305.60 398.58 307.37 397.24 305.87 395.90 304.36 397.58 306.17 399.26 307.97 400.02 309.90 400.78 311.83 401.12 313.86 401.47 315.89 401.55 317.94 401.63 319.98 401.54 322.28 401.44 324.59 399.83 327.03 398.21 329.48 396.36 331.44 394.50 333.39 392.49 333.73 390.49 334.06 388.49 332.80 386.49 331.54 384.50 332.08 382.50 332.63 380.47 332.25 378.43 331.87 375.90 330.48 373.37 329.10 371.13 328.89 368.88 328.69 367.71 327.01 366.54 325.33 367.95 326.99 369.36 328.64 367.39 327.56 365.42 326.49 364.05 324.59 362.68 322.68 364.17 324.05 365.65 325.42 364.03 323.95 362.41 322.49 363.77 319.48 365.13 316.47 367.13 316.44 369.14 316.42 371.08 317.03 373.02 317.64 375.03 318.51 377.04 319.38 379.10 319.22 381.17 319.07 383.48 319.72 385.78 320.37 387.80 319.99 389.82 319.61 391.57 322.54 393.32 325.48 390.75 324.81 388.18 324.15 386.12 323.73 384.05 323.30 381.62 322.82 379.18 322.34 376.69 322.29 374.20 322.24 372.08 321.67 369.95 321.11 368.24 319.86 366.53 318.60 366.95 315.44 367.36 312.28 368.09 310.03 368.82 307.79 370.98 306.35 373.14 304.92 375.64 303.98 378.14 303.04 380.35 302.99 382.57 302.94 384.76 304.01 386.94 305.07 388.89 306.28 390.83 307.49 392.49 309.36 394.14 311.23 395.23 313.09 396.32 314.96 394.79 313.62 393.26 312.28 395.07 313.78 396.89 315.27 396.27 317.76 395.66 320.25 393.83 321.27 392.00 322.28 389.90 322.64 387.79 323.00 385.75 323.04 383.71 323.08 381.67 322.49 379.63 321.90 377.21 321.15 374.79 320.40 373.19 318.80 371.59 317.20 370.29 315.21 368.99 313.21 369.74 311.28 370.48 309.35 372.28 308.18 374.08 307.01 376.12 306.64 378.17 306.27 380.98 306.78 383.79 307.28 385.65 308.05 387.51 308.81 389.43 309.73 391.36 310.65 392.44 312.39 393.52 314.13 393.90 316.31 394.28 318.48 392.35 320.61 390.42 322.75 388.42 323.11 386.42 323.46 383.96 323.19 381.49 322.91 379.65 322.09 377.80 321.26 375.60 319.71 373.41 318.16 372.05 315.94 370.68 313.72 371.67 311.12 372.65 308.52 374.49 307.47 376.32 306.42 378.46 306.41 380.60 306.40 382.31 307.86 384.02 309.32 386.13 310.07 388.24 310.82 389.21 312.56 390.19 314.31 389.13 317.09 388.07 319.87 386.22 320.62 384.36 321.37 382.37 321.02 380.38 320.66 378.20 319.47 376.02 318.27 374.65 316.67 373.28 315.07 373.53 312.76 373.78 310.44 375.78 309.13 377.77 307.82 380.38 308.10 383.00 308.39 384.84 310.16 386.67 311.92 385.67 314.70 384.68 317.48 383.16 316.21 381.64 314.93 381.65 314.93 381.65 314.92 381.65 314.92 381.66 314.92 382.16 315.15 382.66 315.39 380.28 313.94 377.89 312.48 379.89 313.01 381.90 313.55 379.89 313.94 377.89 314.34 379.92 315.14 381.96 315.95 383.95 316.54 385.94 317.14 387.89 318.01 389.84 318.89 388.15 316.94 386.47 315.00 384.35 314.27 382.24 313.55 380.27 312.97 378.30 312.38 376.29 312.01 374.28 311.65 375.99 312.80 377.70 313.95 379.61 314.59 381.52 315.24 383.54 315.57 385.55 315.91 387.69 316.22 389.84 316.54 391.42 317.82 393.01 319.10 391.19 317.80 389.37 316.51 388.44 314.74 387.50 312.96 385.77 311.88 384.03 310.80 381.56 310.25 379.08 309.70 376.74 310.74 374.39 311.78 372.56 313.28 370.72 314.78 372.96 315.11 375.20 315.44 377.41 315.80 379.63 316.15 381.84 316.52 384.05 316.89 386.75 317.35 389.45 317.81 391.48 318.28 393.51 318.74 395.27 321.08 397.03 323.42 393.43 325.32 389.82 327.22 387.80 327.22 385.78 327.23 383.61 326.86 381.44 326.49 379.41 326.12 377.38 325.75 375.47 325.10 373.56 324.46 371.53 324.15 369.50 323.84 367.35 323.82 365.21 323.80 366.68 321.74 368.14 319.68 370.41 320.93 372.67 322.18 375.15 323.09 377.63 324.00 379.65 324.33 381.67 324.65 383.66 324.97 385.66 325.28 387.73 325.33 389.80 325.38 391.65 327.05 393.51 328.73 391.53 327.67 389.54 326.62 391.59 325.92 393.64 325.21 391.67 327.05 389.71 328.89 391.14 326.77 392.56 324.64 394.03 323.11 395.49 321.57 393.93 322.98 392.38 324.40 392.74 322.23 393.09 320.07 393.16 318.06 393.23 316.06 392.91 314.08 392.59 312.10 394.00 313.65 395.40 315.19 393.72 312.93 392.05 310.68 393.49 312.07 394.93 313.46 393.29 311.48 391.65 309.51 389.55 308.80 387.45 308.09 385.55 307.45 383.65 306.81 381.32 306.79 379.00 306.77 376.85 306.82 374.69 306.86 372.95 308.46 371.20 310.06 370.49 312.24 369.78 314.43 368.67 316.53 367.56 318.63 366.57 320.54 365.57 322.46 365.04 323.26 364.51 324.06 364.51 324.07 Z"></path><path fill="#000000" d="M 166.82 305.69 Q 166.82 305.69 165.69 306.37 164.56 307.04 166.52 307.71 168.49 308.37 169.93 310.37 171.38 312.37 172.24 314.32 173.11 316.28 173.59 318.67 174.08 321.07 174.77 323.42 175.47 325.77 175.84 327.80 176.20 329.83 176.61 331.79 177.02 333.75 176.98 335.78 176.95 337.81 178.82 336.42 180.68 335.04 182.99 333.96 185.29 332.87 187.24 331.57 189.18 330.26 191.82 328.95 194.46 327.64 196.62 326.77 198.78 325.90 200.86 324.77 202.95 323.65 205.46 322.42 207.97 321.18 209.95 320.58 211.93 319.99 213.93 319.18 215.92 318.37 217.82 317.43 219.71 316.48 221.51 315.57 223.31 314.66 225.19 313.71 227.07 312.76 229.18 311.73 231.30 310.69 233.02 309.63 234.74 308.57 234.88 308.46 235.02 308.35 235.41 308.39 235.80 308.42 236.17 308.55 236.54 308.68 236.87 308.89 237.20 309.10 237.46 309.38 237.73 309.67 237.92 310.01 238.12 310.35 238.22 310.72 238.33 311.10 238.34 311.49 238.35 311.88 238.27 312.26 238.19 312.64 238.02 312.99 237.85 313.35 237.60 313.65 237.35 313.95 237.04 314.18 236.72 314.41 236.36 314.56 236.00 314.71 235.62 314.77 235.23 314.83 233.17 312.82 231.11 310.82 229.59 309.08 228.08 307.34 226.59 305.34 225.10 303.34 223.59 301.89 222.07 300.44 220.65 298.90 219.22 297.36 217.62 295.91 216.01 294.46 214.72 292.84 213.44 291.22 212.20 289.05 210.97 286.89 210.28 284.67 209.59 282.46 209.28 280.45 208.98 278.45 210.22 278.46 211.47 278.48 211.11 278.43 210.75 278.39 210.41 278.26 210.07 278.12 209.77 277.92 209.47 277.71 209.24 277.44 209.00 277.16 208.83 276.84 208.66 276.52 208.58 276.17 208.49 275.81 208.50 275.45 208.50 275.09 208.59 274.74 208.68 274.38 208.85 274.06 209.02 273.74 209.26 273.47 209.50 273.20 209.80 273.00 210.10 272.79 210.44 272.67 210.78 272.54 211.14 272.50 211.50 272.46 212.99 274.15 214.48 275.85 212.59 277.88 210.70 279.91 208.95 281.85 207.21 283.79 205.41 284.89 203.60 285.99 201.74 286.92 199.87 287.85 198.28 289.15 196.69 290.44 194.63 291.60 192.57 292.76 190.34 294.23 188.12 295.71 185.81 296.72 183.50 297.74 181.26 299.35 179.03 300.97 176.63 302.00 174.24 303.03 172.36 304.32 170.48 305.60 167.96 306.97 165.44 308.33 164.37 307.98 163.30 307.64 163.30 307.65 163.30 307.65 163.30 307.66 163.30 307.66 162.18 306.07 161.07 304.49 162.72 302.97 164.38 301.45 166.09 300.40 167.80 299.35 170.01 298.14 172.22 296.92 174.32 295.80 176.41 294.68 178.07 293.55 179.72 292.42 181.95 291.79 184.17 291.15 186.33 289.32 188.49 287.50 190.43 286.46 192.37 285.42 194.78 284.56 197.20 283.70 199.15 281.66 201.11 279.62 202.91 278.70 204.70 277.77 206.65 276.62 208.60 275.47 210.03 276.98 211.47 278.48 211.11 278.43 210.75 278.39 210.41 278.26 210.07 278.12 209.77 277.92 209.47 277.71 209.24 277.44 209.00 277.16 208.83 276.84 208.66 276.52 208.58 276.17 208.49 275.81 208.50 275.45 208.50 275.09 208.59 274.74 208.68 274.38 208.85 274.06 209.02 273.74 209.26 273.47 209.50 273.20 209.80 273.00 210.10 272.79 210.44 272.67 210.78 272.54 211.14 272.50 211.50 272.46 211.84 272.40 212.18 272.35 213.75 275.63 215.32 278.90 215.77 280.93 216.22 282.95 217.23 284.90 218.24 286.85 219.61 288.53 220.98 290.20 222.75 292.06 224.52 293.91 226.14 295.41 227.76 296.92 229.30 298.51 230.85 300.11 232.39 302.08 233.92 304.05 234.47 306.20 235.02 308.35 235.41 308.39 235.80 308.42 236.17 308.55 236.54 308.68 236.87 308.89 237.20 309.10 237.46 309.38 237.73 309.67 237.92 310.01 238.12 310.35 238.22 310.72 238.33 311.10 238.34 311.49 238.35 311.88 238.27 312.26 238.19 312.64 238.02 312.99 237.85 313.34 237.60 313.65 237.35 313.95 237.04 314.18 236.72 314.41 236.36 314.56 236.00 314.71 235.62 314.77 235.23 314.83 235.80 314.36 236.36 313.89 234.61 314.94 232.87 315.99 230.90 316.95 228.93 317.91 226.85 318.97 224.76 320.04 222.69 321.24 220.61 322.43 218.64 323.36 216.67 324.29 214.40 325.08 212.14 325.87 210.21 326.48 208.28 327.10 206.39 328.10 204.51 329.11 202.59 329.73 200.68 330.34 198.29 331.71 195.90 333.07 194.11 334.04 192.33 335.00 190.25 336.31 188.16 337.63 185.65 338.83 183.15 340.03 180.96 341.15 178.77 342.27 176.19 342.34 173.61 342.41 172.37 340.40 171.14 338.39 171.12 336.31 171.10 334.23 170.84 332.04 170.58 329.86 170.22 327.86 169.87 325.85 169.25 323.56 168.64 321.28 168.23 318.72 167.82 316.17 167.08 314.30 166.34 312.44 164.76 310.88 163.19 309.32 161.82 307.54 160.45 305.77 162.50 305.04 164.56 304.32 165.69 304.99 166.82 305.67 166.82 305.68 Z"></path><path fill="#000000" d="M 168.14 305.69 Q 168.14 305.69 167.76 306.08 167.38 306.48 169.27 307.72 171.16 308.96 173.41 309.12 175.66 309.28 178.32 309.63 180.98 309.99 182.94 310.46 184.91 310.93 186.95 311.13 188.99 311.33 191.17 311.35 193.36 311.38 195.86 311.16 198.36 310.93 199.98 309.67 201.60 308.41 202.57 306.57 203.55 304.73 204.71 302.75 205.88 300.76 206.46 298.84 207.04 296.92 208.11 294.58 209.17 292.24 209.56 289.71 209.96 287.19 210.49 284.86 211.03 282.54 212.23 281.64 213.42 280.74 213.43 280.75 213.43 280.75 213.44 280.75 213.44 280.75 213.79 283.57 214.15 286.38 213.75 288.56 213.36 290.74 212.71 292.85 212.06 294.95 211.25 296.89 210.44 298.82 209.59 300.83 208.73 302.84 207.83 304.69 206.93 306.55 205.58 308.76 204.22 310.96 202.63 312.35 201.04 313.73 199.07 314.70 197.09 315.67 194.78 315.71 192.47 315.76 190.19 315.80 187.91 315.83 185.90 315.44 183.89 315.05 181.65 314.58 179.42 314.11 177.38 313.93 175.34 313.74 173.06 312.96 170.78 312.18 168.69 310.61 166.59 309.04 166.99 306.96 167.38 304.88 167.76 305.28 168.14 305.67 168.14 305.68 Z"></path><path fill="#000000" d="M 193.10 314.22 Q 193.10 314.22 192.90 315.25 192.70 316.28 191.89 318.33 191.08 320.39 190.29 322.25 189.51 324.11 188.02 326.39 186.54 328.66 186.53 328.66 186.53 328.66 186.52 328.66 186.52 328.66 187.05 326.14 187.58 323.62 188.42 321.76 189.26 319.89 190.24 317.53 191.23 315.18 192.16 314.69 193.09 314.21 193.09 314.22 Z"></path><path fill="#000000" d="M 206.23 308.95 Q 206.23 308.95 206.80 308.30 207.36 307.64 209.49 307.85 211.61 308.06 213.92 308.46 216.23 308.86 218.81 309.27 221.40 309.67 223.76 310.36 226.12 311.04 227.78 312.16 229.44 313.27 229.44 313.28 229.44 313.28 229.43 313.28 229.43 313.29 225.94 312.70 222.44 312.11 220.02 311.97 217.61 311.83 214.48 311.31 211.36 310.79 209.36 310.54 207.36 310.28 206.80 309.63 206.23 308.97 206.23 308.96 Z"></path><path fill="#1982c4" d="M 525.35 92.79 Q 525.35 92.79 525.35 92.80 525.34 92.80 525.34 92.81 525.33 92.81 525.34 92.80 Z"></path><path fill="#1982c4" d="M 248.93 284.01 Q 248.93 284.01 250.10 284.20 251.26 284.38 250.75 282.18 250.24 279.98 252.60 279.27 254.96 278.57 257.12 278.47 259.28 278.36 261.64 278.67 264.00 278.98 265.88 280.03 267.77 281.08 269.85 281.96 271.93 282.85 274.42 284.03 276.91 285.21 278.73 286.73 280.55 288.26 282.48 289.21 284.40 290.16 286.47 291.80 288.55 293.45 290.02 294.86 291.50 296.26 293.49 298.15 295.48 300.03 296.76 301.71 298.03 303.39 299.39 305.41 300.75 307.43 302.35 308.96 303.95 310.49 304.92 312.26 305.88 314.02 306.99 316.47 308.11 318.92 309.71 321.33 311.32 323.74 309.74 322.38 308.16 321.02 308.43 322.93 308.70 324.84 308.70 324.84 308.71 324.84 308.71 324.84 308.72 324.84 308.31 325.97 307.90 327.10 306.18 324.92 304.47 322.75 302.85 321.05 301.22 319.36 299.99 317.51 298.76 315.67 297.65 313.26 296.54 310.85 294.83 309.39 293.12 307.92 291.36 305.57 289.60 303.21 288.05 301.72 286.50 300.22 284.93 298.91 283.37 297.61 281.21 296.11 279.06 294.61 277.33 293.18 275.60 291.74 273.67 290.56 271.74 289.39 269.81 288.60 267.89 287.81 266.02 287.03 264.14 286.24 261.95 285.32 259.76 284.40 257.53 284.36 255.31 284.31 253.42 285.29 251.53 286.26 249.05 285.32 246.57 284.38 247.74 284.20 248.91 284.01 248.92 284.01 Z"></path><path fill="#1982c4" d="M 251.54 284.02 Q 251.54 284.02 250.73 284.58 249.91 285.14 249.43 285.22 248.95 285.30 248.73 285.20 248.51 285.09 248.32 284.94 248.12 284.78 247.98 284.58 247.83 284.39 247.73 284.16 247.63 283.93 247.59 283.69 247.55 283.44 247.57 283.20 247.59 282.95 247.67 282.71 247.75 282.48 247.88 282.27 248.01 282.06 248.19 281.89 248.37 281.72 248.58 281.60 248.80 281.47 249.04 281.40 249.27 281.33 249.52 281.32 249.77 281.31 250.01 281.36 250.25 281.41 252.42 283.13 254.59 284.85 256.30 286.42 258.02 287.99 259.36 289.50 260.70 291.01 262.12 292.64 263.54 294.27 264.44 295.69 265.35 297.10 265.31 297.42 265.28 297.74 265.17 298.03 265.06 298.33 264.89 298.60 264.71 298.86 264.47 299.07 264.24 299.29 263.96 299.44 263.68 299.59 263.37 299.67 263.07 299.75 262.75 299.76 262.43 299.76 262.12 299.69 261.81 299.62 261.53 299.47 261.25 299.33 261.00 299.12 260.76 298.91 260.58 298.66 260.40 298.40 260.28 298.10 260.16 297.81 260.12 297.49 260.08 297.18 258.47 295.77 256.85 294.35 255.18 292.44 253.50 290.53 251.93 289.20 250.36 287.87 248.89 286.49 247.42 285.11 247.56 285.16 247.69 285.22 247.32 285.10 246.95 284.99 246.61 284.79 246.28 284.59 246.00 284.31 245.73 284.04 245.52 283.70 245.32 283.37 245.20 283.00 245.09 282.63 245.06 282.24 245.04 281.85 245.11 281.47 245.17 281.08 245.33 280.73 245.49 280.37 245.73 280.07 245.97 279.76 246.28 279.52 246.58 279.28 246.94 279.11 247.29 278.95 247.67 278.88 248.06 278.81 248.45 278.83 248.84 278.86 248.94 276.48 249.05 274.10 250.48 272.37 251.92 270.64 253.35 269.21 254.78 267.78 255.72 265.94 256.65 264.10 256.95 264.11 257.25 264.13 257.54 263.90 257.83 263.67 258.16 263.51 258.50 263.36 258.86 263.29 259.22 263.22 259.59 263.24 259.96 263.26 260.31 263.37 260.66 263.48 260.98 263.66 261.30 263.85 261.56 264.11 261.82 264.37 262.02 264.69 262.21 265.00 262.32 265.35 262.43 265.70 262.46 266.07 262.48 266.44 262.42 266.80 262.35 267.16 262.20 267.50 262.06 267.84 261.83 268.13 261.61 268.42 260.47 270.64 259.34 272.85 258.02 274.41 256.69 275.97 255.36 277.63 254.02 279.28 251.96 281.17 249.89 283.05 250.12 282.79 250.34 282.53 250.24 282.85 250.14 283.17 249.97 283.46 249.80 283.74 249.56 283.98 249.32 284.22 249.04 284.39 248.75 284.57 248.43 284.67 248.11 284.77 247.78 284.79 247.44 284.81 247.12 284.75 246.79 284.69 246.48 284.55 246.17 284.42 245.91 284.21 245.65 284.00 245.44 283.74 245.23 283.48 245.09 283.17 244.96 282.87 244.89 282.54 244.83 282.21 244.85 281.88 244.87 281.54 245.71 279.62 246.55 277.69 247.50 275.92 248.45 274.15 249.78 272.33 251.10 270.52 253.62 270.43 256.13 270.33 256.14 270.33 256.14 270.33 256.15 270.33 256.15 270.33 255.38 272.77 254.61 275.21 253.56 277.00 252.51 278.79 251.43 280.66 250.34 282.53 250.24 282.85 250.14 283.17 249.97 283.46 249.80 283.74 249.56 283.98 249.32 284.22 249.04 284.39 248.75 284.57 248.43 284.67 248.11 284.77 247.78 284.79 247.44 284.81 247.12 284.75 246.79 284.69 246.48 284.55 246.17 284.42 245.91 284.21 245.65 284.01 245.44 283.74 245.23 283.48 245.09 283.17 244.96 282.87 244.89 282.54 244.83 282.21 244.85 281.88 244.87 281.54 245.72 279.80 246.57 278.06 248.24 276.64 249.92 275.22 251.13 273.43 252.34 271.65 253.76 269.92 255.19 268.19 256.22 266.16 257.25 264.13 257.54 263.90 257.83 263.67 258.16 263.51 258.50 263.36 258.86 263.29 259.22 263.22 259.59 263.24 259.96 263.26 260.31 263.37 260.66 263.48 260.98 263.66 261.30 263.85 261.56 264.11 261.82 264.37 262.02 264.68 262.21 265.00 262.32 265.35 262.43 265.70 262.46 266.07 262.48 266.44 262.42 266.80 262.35 267.16 262.20 267.50 262.06 267.84 261.83 268.13 261.61 268.42 261.33 269.14 261.06 269.86 260.06 271.80 259.06 273.74 257.42 275.05 255.77 276.36 254.78 278.33 253.80 280.30 252.75 282.18 251.70 284.07 249.70 284.64 247.69 285.22 247.32 285.10 246.95 284.99 246.61 284.79 246.28 284.59 246.00 284.31 245.73 284.04 245.52 283.70 245.32 283.37 245.20 283.00 245.09 282.63 245.06 282.24 245.04 281.85 245.11 281.47 245.17 281.08 245.33 280.73 245.49 280.37 245.73 280.07 245.97 279.76 246.28 279.52 246.58 279.28 246.94 279.11 247.29 278.95 247.67 278.88 248.06 278.81 248.45 278.83 248.84 278.86 249.16 279.17 249.48 279.48 251.45 280.76 253.41 282.05 254.89 283.53 256.37 285.02 258.24 287.15 260.11 289.28 261.39 291.39 262.67 293.49 264.01 295.30 265.35 297.10 265.31 297.42 265.28 297.74 265.17 298.03 265.06 298.33 264.89 298.60 264.71 298.86 264.47 299.07 264.24 299.29 263.96 299.44 263.68 299.59 263.37 299.67 263.07 299.75 262.75 299.76 262.43 299.76 262.12 299.69 261.81 299.62 261.53 299.47 261.25 299.33 261.00 299.12 260.76 298.92 260.58 298.66 260.40 298.40 260.28 298.10 260.16 297.81 260.12 297.49 260.08 297.18 260.77 297.88 261.47 298.58 259.83 297.04 258.20 295.50 256.59 293.60 254.98 291.70 253.28 290.20 251.58 288.69 250.27 287.00 248.96 285.30 248.73 285.20 248.51 285.09 248.32 284.94 248.12 284.78 247.98 284.58 247.83 284.39 247.73 284.16 247.63 283.93 247.59 283.69 247.55 283.44 247.57 283.20 247.59 282.95 247.67 282.71 247.75 282.48 247.88 282.27 248.01 282.06 248.19 281.89 248.37 281.72 248.58 281.60 248.80 281.47 249.04 281.40 249.27 281.33 249.52 281.32 249.77 281.31 250.01 281.36 250.25 281.41 250.59 281.76 250.92 282.11 251.23 283.05 251.55 284.00 251.55 284.01 Z"></path><path fill="#000000" d="M 629.85 273.49 Q 629.85 273.49 631.17 272.67 632.50 271.85 635.41 271.81 638.32 271.77 641.09 271.98 643.86 272.19 645.88 272.28 647.90 272.36 649.92 272.29 651.95 272.22 654.00 272.55 656.05 272.87 658.23 273.11 660.42 273.35 662.56 273.69 664.70 274.03 666.79 274.06 668.87 274.09 671.05 274.08 673.23 274.06 675.61 274.73 678.00 275.40 680.03 274.99 682.05 274.59 684.06 275.03 686.07 275.48 688.09 275.35 690.11 275.21 692.12 275.58 694.13 275.94 696.13 275.92 698.13 275.89 699.88 277.08 701.63 278.27 700.58 280.28 699.54 282.29 698.73 285.02 697.91 287.75 697.08 289.78 696.25 291.81 695.82 294.37 695.40 296.94 695.00 298.93 694.60 300.93 694.87 303.50 695.15 306.06 695.48 308.37 695.81 310.68 695.88 312.71 695.95 314.75 696.27 316.83 696.59 318.92 696.62 321.00 696.65 323.08 696.65 323.57 696.65 324.07 696.60 324.44 696.56 324.81 696.43 325.16 696.29 325.51 696.08 325.81 695.87 326.12 695.59 326.36 695.31 326.61 694.98 326.78 694.65 326.96 694.29 327.05 693.93 327.14 693.56 327.14 693.19 327.14 692.83 327.05 692.46 326.96 692.13 326.78 691.80 326.61 691.53 326.36 691.25 326.12 691.04 325.81 690.82 325.51 690.69 325.16 690.56 324.81 690.52 324.44 690.47 324.07 687.88 324.19 685.30 324.31 682.61 323.95 679.93 323.59 677.07 323.00 674.22 322.41 671.45 321.74 668.67 321.07 666.49 320.72 664.32 320.36 662.31 320.27 660.31 320.18 658.28 319.84 656.25 319.49 654.08 319.49 651.92 319.48 649.46 319.52 647.01 319.56 644.64 319.58 642.28 319.60 640.15 319.64 638.02 319.69 635.63 319.24 633.24 318.79 630.85 318.02 628.47 317.25 626.08 316.24 623.69 315.23 623.63 313.06 623.56 310.88 623.46 308.03 623.36 305.19 622.65 303.25 621.94 301.32 621.43 299.38 620.93 297.43 621.20 294.77 621.47 292.10 621.82 289.99 622.17 287.89 622.20 285.78 622.23 283.67 623.35 281.61 624.47 279.54 625.04 277.32 625.61 275.11 626.76 273.37 627.91 271.64 628.89 271.89 629.87 272.14 629.87 272.13 629.86 272.13 629.86 272.13 629.85 272.13 629.70 274.89 629.55 277.64 628.67 280.23 627.80 282.81 627.40 284.81 627.01 286.81 626.74 288.83 626.47 290.85 626.03 292.81 625.60 294.77 625.73 296.89 625.87 299.00 626.79 301.76 627.71 304.51 627.96 306.54 628.20 308.57 628.59 310.66 628.99 312.75 631.27 313.07 633.55 313.38 635.79 313.69 638.02 314.00 640.15 314.05 642.28 314.09 644.64 314.11 647.01 314.14 649.46 314.17 651.92 314.21 654.47 314.24 657.03 314.27 659.29 314.55 661.56 314.82 663.66 315.02 665.76 315.22 667.86 315.57 669.95 315.92 672.63 316.56 675.32 317.19 677.91 317.67 680.50 318.16 682.88 318.43 685.25 318.70 687.68 319.07 690.10 319.43 692.03 320.00 693.96 320.57 695.30 322.32 696.65 324.07 696.60 324.44 696.56 324.81 696.43 325.16 696.29 325.51 696.08 325.81 695.87 326.12 695.59 326.36 695.31 326.61 694.98 326.78 694.65 326.96 694.29 327.05 693.93 327.14 693.56 327.14 693.19 327.14 692.83 327.05 692.46 326.96 692.13 326.78 691.80 326.61 691.53 326.36 691.25 326.12 691.04 325.81 690.82 325.51 690.69 325.16 690.56 324.81 690.52 324.44 690.47 324.07 690.48 323.90 690.48 323.73 690.46 321.53 690.45 319.33 690.15 316.95 689.85 314.57 689.88 312.57 689.91 310.56 689.72 308.14 689.54 305.72 689.07 303.04 688.61 300.36 689.14 297.84 689.67 295.31 690.04 293.34 690.41 291.37 691.56 288.94 692.71 286.52 693.46 284.66 694.22 282.79 696.12 281.57 698.03 280.35 696.02 280.30 694.01 280.24 691.95 279.95 689.88 279.66 687.78 279.65 685.67 279.63 682.90 279.28 680.14 278.94 678.16 278.57 676.18 278.20 674.16 278.19 672.14 278.18 670.08 278.18 668.02 278.17 665.93 278.19 663.85 278.22 661.79 277.88 659.72 277.55 657.67 277.14 655.61 276.74 653.56 276.42 651.50 276.10 649.37 276.02 647.23 275.94 645.05 275.75 642.86 275.56 640.59 275.39 638.32 275.22 635.41 275.19 632.50 275.15 631.17 274.33 629.85 273.51 629.85 273.50 Z"></path><path fill="#000000" d="M 626.57 274.15 Q 626.57 274.15 627.24 273.76 627.90 273.37 629.59 274.80 631.28 276.22 632.64 277.86 634.01 279.49 635.36 281.54 636.71 283.59 638.57 285.00 640.43 286.41 642.22 287.74 644.01 289.07 645.94 290.69 647.86 292.31 649.65 293.30 651.44 294.28 653.11 295.71 654.77 297.13 656.80 297.15 658.82 297.16 660.94 297.17 663.06 297.17 665.28 296.18 667.50 295.18 669.32 294.24 671.14 293.29 672.69 291.94 674.24 290.59 676.12 289.21 677.99 287.84 680.19 286.84 682.38 285.84 684.35 284.82 686.32 283.81 688.43 282.77 690.53 281.74 693.30 281.59 696.07 281.43 696.07 281.44 696.07 281.44 696.08 281.44 696.08 281.45 694.78 283.37 693.48 285.29 691.14 286.33 688.80 287.36 686.89 288.23 684.99 289.09 683.17 289.94 681.35 290.79 679.23 292.13 677.12 293.48 675.45 294.79 673.78 296.11 671.92 296.98 670.06 297.85 667.87 299.01 665.69 300.17 663.22 300.62 660.75 301.07 658.37 301.07 655.99 301.06 654.19 300.10 652.39 299.13 650.54 298.11 648.70 297.09 647.11 295.68 645.53 294.28 643.36 293.02 641.19 291.77 639.80 290.30 638.42 288.84 636.69 287.50 634.95 286.16 633.62 284.45 632.28 282.74 631.08 280.91 629.89 279.09 628.32 277.39 626.74 275.69 626.65 274.93 626.56 274.16 626.57 274.15 Z"></path><path fill="#000000" d="M 647.59 299.78 Q 647.59 299.78 647.56 300.50 647.53 301.23 645.88 302.36 644.22 303.49 641.93 304.63 639.64 305.77 637.81 306.76 635.98 307.74 634.13 308.97 632.27 310.19 630.78 310.56 629.30 310.93 629.30 310.93 629.30 310.92 629.30 310.92 629.30 310.91 630.75 309.97 632.21 309.02 633.47 307.42 634.74 305.82 636.59 304.84 638.43 303.85 640.50 302.93 642.57 302.00 644.35 300.91 646.13 299.82 646.85 299.79 647.58 299.76 647.58 299.77 Z"></path><path fill="#000000" d="M 666.64 301.08 Q 666.64 301.08 667.56 301.26 668.48 301.44 670.16 303.11 671.83 304.79 673.80 306.48 675.77 308.18 677.28 309.55 678.80 310.92 680.19 311.90 681.59 312.87 681.59 312.88 681.59 312.88 681.59 312.89 681.59 312.89 679.38 312.82 677.18 312.75 675.45 311.52 673.73 310.30 671.66 308.47 669.60 306.65 667.94 304.82 666.29 302.99 666.46 302.04 666.62 301.09 666.63 301.08 Z"></path><path fill="#1982c4" d="M 608.17 284.01 Q 608.17 284.01 607.31 283.49 606.46 282.97 604.19 281.11 601.93 279.24 598.85 278.59 595.78 277.93 593.54 277.24 591.29 276.54 588.64 276.01 586.00 275.47 583.44 275.07 580.88 274.66 577.82 274.66 574.76 274.66 572.41 274.70 570.06 274.74 567.67 274.78 565.28 274.81 562.89 275.03 560.49 275.25 558.11 275.60 555.73 275.94 553.63 276.28 551.53 276.62 549.29 276.97 547.05 277.32 545.04 277.94 543.02 278.56 540.98 279.01 538.93 279.46 535.73 280.50 532.52 281.53 530.52 282.53 528.52 283.54 526.46 284.32 524.40 285.09 522.66 286.24 520.91 287.39 519.06 288.49 517.20 289.60 514.58 291.14 511.95 292.68 509.47 294.40 506.99 296.12 505.36 297.34 503.73 298.57 501.94 299.77 500.15 300.98 498.62 302.37 497.09 303.76 494.21 305.05 491.33 306.34 491.33 306.34 491.33 306.33 491.33 306.33 491.32 306.32 491.82 304.43 492.31 302.55 493.90 300.97 495.48 299.39 497.53 297.61 499.59 295.82 501.55 294.38 503.51 292.94 505.37 291.54 507.23 290.14 509.15 289.04 511.07 287.93 512.89 286.81 514.71 285.70 516.62 284.60 518.53 283.50 520.70 282.25 522.88 280.99 525.14 280.08 527.40 279.18 529.24 278.27 531.07 277.36 533.43 276.47 535.78 275.58 538.47 275.05 541.16 274.52 543.26 273.86 545.35 273.20 547.49 272.86 549.62 272.52 551.69 272.21 553.76 271.90 556.14 271.62 558.53 271.35 561.21 271.11 563.89 270.87 566.23 270.90 568.56 270.94 571.08 270.98 573.59 271.02 576.12 271.05 578.66 271.08 580.89 271.40 583.13 271.72 585.70 272.12 588.27 272.53 590.31 273.07 592.36 273.61 594.37 274.31 596.38 275.01 599.22 275.73 602.05 276.44 604.04 277.36 606.02 278.28 607.20 280.15 608.39 282.02 608.29 283.01 608.19 284.00 608.18 284.01 Z"></path><path fill="#1982c4" d="M 494.55 280.71 Q 494.55 280.71 494.75 279.78 494.94 278.85 495.27 278.46 495.59 278.07 495.77 277.98 495.94 277.89 496.14 277.85 496.33 277.81 496.52 277.81 496.72 277.81 496.91 277.86 497.10 277.91 497.27 278.01 497.45 278.10 497.59 278.23 497.74 278.37 497.84 278.53 497.95 278.69 498.02 278.88 498.09 279.06 498.11 279.26 498.13 279.45 498.10 279.65 498.07 279.84 498.00 280.03 497.93 280.21 497.81 280.37 497.70 280.53 497.55 280.66 497.40 280.78 497.63 282.80 497.86 284.81 497.04 286.91 496.21 289.00 495.55 291.27 494.89 293.54 494.62 295.83 494.35 298.12 493.19 300.11 492.02 302.11 492.86 304.01 493.70 305.91 492.61 307.91 491.52 309.92 492.23 309.13 492.94 308.34 492.90 308.62 492.87 308.90 492.76 309.16 492.66 309.42 492.50 309.65 492.34 309.87 492.12 310.06 491.91 310.24 491.66 310.37 491.41 310.50 491.14 310.56 490.86 310.62 490.58 310.62 490.30 310.61 490.03 310.54 489.76 310.47 489.51 310.34 489.27 310.20 489.06 310.02 488.85 309.83 488.69 309.59 488.54 309.36 488.44 309.10 488.35 308.83 488.32 308.55 488.29 308.27 489.83 306.94 491.37 305.60 493.60 304.86 495.83 304.13 497.82 303.77 499.80 303.42 501.85 303.11 503.90 302.79 505.99 302.75 508.08 302.72 510.11 302.72 512.14 302.73 514.51 302.69 516.87 302.66 519.08 303.42 521.29 304.18 524.34 305.53 527.40 306.87 527.40 306.87 527.39 306.87 527.39 306.87 527.38 306.87 525.23 307.42 523.07 307.96 520.89 307.69 518.71 307.41 516.62 307.38 514.52 307.36 512.30 307.35 510.07 307.33 507.91 307.31 505.74 307.29 503.43 307.62 501.11 307.95 499.14 308.27 497.16 308.60 495.05 308.47 492.94 308.34 492.90 308.62 492.87 308.90 492.76 309.16 492.66 309.42 492.50 309.65 492.34 309.87 492.12 310.06 491.91 310.24 491.66 310.37 491.41 310.50 491.14 310.56 490.86 310.62 490.58 310.62 490.30 310.61 490.03 310.54 489.76 310.47 489.51 310.34 489.27 310.20 489.06 310.02 488.85 309.83 488.69 309.59 488.54 309.36 488.44 309.10 488.35 308.83 488.32 308.55 488.29 308.28 488.26 308.13 488.23 307.99 488.53 305.77 488.84 303.55 489.16 301.50 489.48 299.46 489.89 297.33 490.31 295.21 490.69 293.20 491.08 291.18 491.97 288.64 492.87 286.10 493.75 284.09 494.63 282.07 495.11 280.07 495.59 278.07 495.77 277.98 495.94 277.89 496.14 277.85 496.33 277.81 496.52 277.81 496.72 277.81 496.91 277.86 497.10 277.91 497.27 278.01 497.45 278.10 497.59 278.23 497.74 278.37 497.84 278.53 497.95 278.69 498.02 278.88 498.09 279.06 498.11 279.26 498.13 279.45 498.10 279.65 498.07 279.84 498.00 280.03 497.93 280.21 497.81 280.37 497.70 280.53 497.55 280.66 497.40 280.78 496.92 280.93 496.43 281.08 495.50 280.91 494.56 280.73 494.56 280.72 Z"></path>
</svg>