<svg width="775" height="436" xmlns="http://www.w3.org/2000/svg" xmlns:xlink="http://www.w3.org/1999/xlink">
<path fill="#ff595e" d="M 238.42 358.87 Q 238.42 358.87 240.10 359.31 241.78 359.76 244.16 361.06 246.55 362.37 248.99 363.29 251.43 364.22 255.11 364.70 258.80 365.18 261.81 365.45 264.82 365.72 266.87 365.86 268.93 366.01 271.50 366.04 274.07 366.06 276.09 366.04 278.11 366.02 282.39 365.89 286.66 365.77 292.13 365.54 297.59 365.32 302.91 364.80 308.24 364.28 313.62 363.31 319.00 362.33 323.93 361.03 328.87 359.72 331.53 358.79 334.19 357.86 337.25 356.53 340.30 355.21 342.52 354.19 344.74 353.18 347.69 351.67 350.64 350.15 355.44 347.32 360.24 344.49 364.17 341.81 368.10 339.14 371.28 336.02 374.46 332.89 376.69 329.79 378.93 326.70 379.96 324.11 380.98 321.53 381.21 318.98 381.44 316.44 381.46 313.93 381.48 311.43 381.81 309.40 382.13 307.36 382.08 305.31 382.03 303.26 381.98 300.98 381.92 298.70 381.89 296.56 381.85 294.43 381.48 292.16 381.12 289.90 380.70 287.93 380.29 285.97 379.69 283.92 379.09 281.87 378.60 279.92 378.12 277.97 377.66 275.46 377.19 272.95 376.78 270.90 376.37 268.85 375.64 266.66 374.90 264.46 374.45 262.41 373.99 260.35 373.63 258.36 373.28 256.37 372.91 253.68 372.54 251.00 374.12 248.10 375.69 245.21 375.68 245.21 375.68 245.21 375.67 245.21 375.67 245.21 377.30 247.22 378.93 249.23 379.24 251.30 379.55 253.38 379.97 255.46 380.38 257.55 380.72 259.60 381.06 261.65 381.66 263.70 382.25 265.76 382.68 267.81 383.10 269.86 383.71 272.68 384.31 275.51 384.86 277.71 385.41 279.92 386.03 282.24 386.65 284.56 387.03 287.15 387.41 289.73 387.66 292.44 387.90 295.14 387.86 297.53 387.82 299.92 387.72 302.78 387.62 305.64 387.26 308.57 386.89 311.50 386.78 314.11 386.66 316.73 386.13 319.88 385.61 323.04 384.23 326.10 382.84 329.16 380.38 332.58 377.92 336.01 374.42 339.52 370.92 343.03 366.79 345.79 362.67 348.55 357.66 351.36 352.65 354.18 349.60 355.62 346.56 357.06 344.23 358.06 341.90 359.06 338.77 360.28 335.64 361.50 332.74 362.42 329.85 363.34 324.79 364.55 319.73 365.76 314.18 366.80 308.63 367.83 303.19 368.30 297.76 368.76 292.21 368.91 286.66 369.06 282.39 368.94 278.11 368.81 276.08 368.78 274.06 368.75 271.45 368.73 268.84 368.70 266.69 368.58 264.54 368.45 262.32 368.18 260.09 367.91 257.46 367.60 254.83 367.29 252.80 366.98 250.77 366.67 247.28 365.27 243.78 363.86 242.06 362.82 240.33 361.78 239.37 360.33 238.41 358.89 238.41 358.88 Z"></path><path fill="#ff595e" d="M 373.06 247.23 Q 373.06 247.23 373.36 248.80 373.65 250.36 372.84 252.37 372.04 254.37 371.08 256.63 370.13 258.89 368.79 260.84 367.45 262.79 366.39 264.64 365.33 266.49 363.98 268.78 362.63 271.08 361.71 273.12 360.80 275.15 360.69 275.41 360.58 275.66 360.52 275.89 360.46 276.13 360.35 276.34 360.24 276.55 360.08 276.73 359.91 276.90 359.71 277.04 359.52 277.17 359.29 277.25 359.06 277.34 358.83 277.36 358.59 277.39 358.35 277.36 358.11 277.33 357.89 277.24 357.67 277.15 357.47 277.01 357.27 276.87 357.12 276.69 356.96 276.51 356.85 276.30 356.74 276.08 356.69 275.85 356.63 275.62 356.63 275.38 356.64 275.14 357.23 273.19 357.83 271.24 358.71 269.31 359.58 267.39 360.64 265.42 361.71 263.44 363.64 259.95 365.58 256.46 366.99 254.34 368.41 252.23 369.85 250.28 371.28 248.34 372.73 246.20 374.18 244.06 373.95 244.23 373.73 244.41 373.79 244.10 373.86 243.79 373.99 243.51 374.12 243.22 374.32 242.98 374.51 242.73 374.76 242.54 375.01 242.35 375.30 242.23 375.59 242.10 375.90 242.05 376.21 241.99 376.52 242.02 376.84 242.04 377.14 242.14 377.44 242.24 377.70 242.40 377.97 242.57 378.19 242.79 378.41 243.02 378.57 243.29 378.73 243.56 378.82 243.86 378.91 244.16 378.92 244.48 378.94 244.79 377.31 246.36 375.68 247.94 378.21 247.58 380.74 247.22 382.56 248.82 384.38 250.42 386.12 251.50 387.85 252.58 389.73 253.36 391.62 254.13 393.79 254.76 395.97 255.39 398.51 257.12 401.05 258.85 402.01 261.16 402.97 263.48 404.20 264.45 405.43 265.42 405.66 265.71 405.89 266.00 406.04 266.34 406.19 266.67 406.26 267.04 406.33 267.40 406.30 267.77 406.28 268.14 406.17 268.49 406.06 268.85 405.87 269.16 405.68 269.48 405.42 269.74 405.15 270.00 404.84 270.19 404.52 270.39 404.17 270.50 403.81 270.61 403.45 270.63 403.08 270.65 402.71 270.58 402.35 270.52 402.01 270.36 401.67 270.21 401.38 269.98 401.09 269.76 399.90 267.93 398.71 266.10 397.03 264.62 395.34 263.13 393.69 261.95 392.05 260.77 390.33 259.60 388.62 258.43 386.40 257.44 384.19 256.45 382.14 254.95 380.09 253.44 378.40 252.34 376.70 251.24 374.85 250.16 372.99 249.08 373.67 247.50 374.35 245.92 374.36 245.91 374.36 245.91 374.37 245.91 374.37 245.91 375.81 245.68 377.24 245.44 379.15 246.12 381.06 246.80 382.76 247.86 384.47 248.92 386.33 250.09 388.19 251.25 390.37 252.57 392.55 253.89 394.35 255.03 396.16 256.18 397.82 257.41 399.49 258.63 401.30 260.20 403.12 261.76 404.28 263.59 405.43 265.42 405.66 265.71 405.89 266.00 406.04 266.34 406.19 266.67 406.26 267.04 406.33 267.40 406.30 267.77 406.28 268.14 406.17 268.49 406.06 268.85 405.87 269.16 405.68 269.48 405.42 269.74 405.15 270.00 404.84 270.19 404.52 270.39 404.17 270.50 403.82 270.61 403.45 270.63 403.08 270.65 402.71 270.58 402.35 270.52 402.01 270.36 401.67 270.21 401.38 269.98 401.09 269.76 401.05 269.67 401.00 269.59 399.72 267.92 398.43 266.24 396.96 263.98 395.48 261.73 393.54 261.00 391.60 260.27 389.61 259.74 387.62 259.21 385.70 258.12 383.78 257.03 382.03 255.90 380.28 254.77 378.77 253.34 377.26 251.91 375.43 250.32 373.61 248.74 373.67 246.57 373.73 244.41 373.79 244.10 373.86 243.79 373.99 243.51 374.12 243.22 374.32 242.98 374.51 242.73 374.76 242.54 375.01 242.35 375.30 242.23 375.59 242.10 375.90 242.05 376.21 241.99 376.52 242.02 376.84 242.04 377.14 242.14 377.44 242.24 377.70 242.40 377.97 242.57 378.19 242.79 378.41 243.02 378.57 243.29 378.73 243.56 378.82 243.86 378.91 244.16 378.92 244.48 378.94 244.79 378.46 245.77 377.98 246.76 377.02 248.56 376.06 250.36 374.57 252.21 373.07 254.07 371.75 255.73 370.42 257.40 368.93 259.77 367.44 262.14 366.17 264.31 364.90 266.48 363.90 268.52 362.90 270.56 361.74 273.11 360.58 275.66 360.52 275.89 360.46 276.13 360.35 276.34 360.24 276.55 360.08 276.73 359.91 276.90 359.71 277.04 359.52 277.17 359.29 277.25 359.07 277.34 358.83 277.36 358.59 277.39 358.35 277.36 358.11 277.33 357.89 277.24 357.67 277.15 357.47 277.01 357.27 276.87 357.12 276.69 356.96 276.51 356.85 276.30 356.74 276.08 356.69 275.85 356.63 275.62 356.63 275.38 356.64 275.14 356.89 273.95 357.14 272.76 358.06 270.75 358.99 268.73 360.03 266.94 361.08 265.16 362.14 263.43 363.21 261.70 364.76 259.47 366.31 257.23 367.29 254.98 368.28 252.74 369.23 250.68 370.18 248.62 371.61 247.92 373.04 247.22 373.05 247.23 Z"></path><path fill="#ff595e" d="M 375.02 245.92 Q 375.02 245.92 374.47 246.48 373.92 247.03 373.35 246.59 372.77 246.14 372.69 246.01 372.60 245.88 372.55 245.73 372.50 245.59 372.48 245.43 372.47 245.28 372.49 245.13 372.51 244.97 372.57 244.83 372.63 244.69 372.72 244.56 372.81 244.44 372.92 244.33 373.04 244.23 373.18 244.17 373.32 244.10 373.47 244.06 373.62 244.03 373.78 244.03 373.93 244.03 374.08 244.07 374.23 244.11 374.37 244.19 374.50 244.26 374.62 244.37 374.73 244.47 376.75 244.74 378.76 245.00 380.50 246.75 382.24 248.49 384.15 249.11 386.06 249.73 386.45 249.71 386.85 249.69 387.10 249.72 387.36 249.76 387.60 249.85 387.84 249.94 388.05 250.08 388.26 250.23 388.43 250.42 388.60 250.62 388.72 250.84 388.84 251.07 388.90 251.32 388.96 251.57 388.96 251.83 388.96 252.09 388.90 252.33 388.83 252.58 388.71 252.81 388.59 253.04 388.42 253.23 388.25 253.42 388.04 253.57 387.83 253.71 387.59 253.80 387.35 253.89 387.09 253.93 386.84 253.96 384.81 253.28 382.77 252.60 380.97 251.55 379.17 250.49 377.18 249.44 375.20 248.39 374.61 246.31 374.02 244.23 374.43 246.57 374.85 248.90 373.47 250.52 372.08 252.14 370.89 253.91 369.69 255.67 368.01 257.53 366.34 259.38 365.32 261.29 364.30 263.19 363.35 265.25 362.41 267.32 361.49 269.28 360.58 271.24 359.92 273.03 359.26 274.81 359.23 275.05 359.20 275.28 359.11 275.51 359.03 275.73 358.89 275.92 358.76 276.12 358.58 276.27 358.40 276.43 358.19 276.54 357.98 276.65 357.75 276.71 357.52 276.77 357.29 276.76 357.05 276.76 356.82 276.71 356.59 276.65 356.38 276.54 356.17 276.43 355.99 276.27 355.81 276.11 355.68 275.92 355.54 275.72 355.46 275.50 355.38 275.28 355.35 275.04 355.32 274.81 356.35 273.10 357.39 271.38 358.60 269.41 359.82 267.43 361.02 265.74 362.22 264.05 363.60 262.19 364.98 260.34 366.31 258.64 367.65 256.94 369.02 255.15 370.38 253.36 371.83 251.62 373.27 249.89 374.29 247.74 375.30 245.59 375.75 245.29 376.19 245.00 376.24 244.82 376.29 244.65 376.39 244.50 376.48 244.35 376.60 244.22 376.73 244.09 376.88 244.00 377.03 243.91 377.20 243.85 377.37 243.80 377.55 243.79 377.73 243.78 377.91 243.81 378.08 243.84 378.25 243.91 378.41 243.99 378.55 244.09 378.69 244.20 378.80 244.34 378.91 244.48 378.99 244.65 379.06 244.81 379.09 244.98 379.13 245.16 379.12 245.34 379.11 245.52 379.61 246.30 380.12 247.08 380.11 247.08 380.11 247.08 380.11 247.09 380.10 247.09 378.15 246.04 376.19 245.00 376.24 244.83 376.29 244.65 376.39 244.50 376.48 244.35 376.60 244.22 376.73 244.09 376.88 244.00 377.03 243.91 377.20 243.85 377.37 243.80 377.55 243.79 377.73 243.78 377.91 243.81 378.08 243.84 378.25 243.91 378.41 243.98 378.55 244.09 378.69 244.20 378.80 244.34 378.91 244.48 378.99 244.65 379.06 244.81 379.09 244.98 379.13 245.16 379.12 245.34 379.11 245.52 378.75 246.59 378.40 247.65 377.62 249.82 376.83 251.99 375.23 254.18 373.63 256.38 372.36 257.97 371.10 259.56 369.75 261.24 368.39 262.91 366.96 264.75 365.54 266.60 363.74 269.18 361.95 271.75 360.60 273.28 359.26 274.81 359.23 275.05 359.20 275.28 359.11 275.51 359.03 275.73 358.89 275.92 358.76 276.12 358.58 276.27 358.40 276.43 358.19 276.54 357.98 276.65 357.75 276.71 357.52 276.76 357.29 276.76 357.05 276.76 356.82 276.71 356.59 276.65 356.38 276.54 356.17 276.43 355.99 276.27 355.81 276.11 355.68 275.92 355.54 275.72 355.46 275.50 355.38 275.28 355.35 275.04 355.32 274.81 355.26 274.40 355.20 273.99 355.87 272.10 356.54 270.20 357.31 268.04 358.09 265.87 358.74 263.97 359.39 262.08 360.35 260.27 361.31 258.45 362.54 256.60 363.76 254.76 365.24 252.92 366.71 251.09 368.33 248.91 369.94 246.74 371.36 245.16 372.77 243.57 374.56 242.54 376.34 241.52 377.56 243.59 378.77 245.67 380.60 246.70 382.43 247.72 384.64 248.71 386.85 249.69 387.10 249.72 387.36 249.76 387.60 249.85 387.84 249.94 388.05 250.08 388.26 250.23 388.43 250.42 388.60 250.62 388.72 250.84 388.84 251.07 388.90 251.32 388.96 251.57 388.96 251.83 388.96 252.08 388.90 252.33 388.83 252.58 388.71 252.81 388.59 253.04 388.42 253.23 388.25 253.42 388.04 253.57 387.83 253.71 387.59 253.80 387.35 253.89 387.09 253.93 386.84 253.96 385.55 253.92 384.26 253.88 382.47 252.98 380.68 252.08 378.65 250.18 376.61 248.28 374.69 247.21 372.77 246.14 372.69 246.01 372.60 245.88 372.55 245.73 372.50 245.59 372.48 245.43 372.47 245.28 372.49 245.13 372.51 244.97 372.57 244.83 372.63 244.69 372.72 244.56 372.81 244.44 372.92 244.33 373.04 244.23 373.18 244.17 373.32 244.10 373.47 244.06 373.62 244.03 373.78 244.03 373.93 244.03 374.08 244.07 374.23 244.11 374.37 244.19 374.50 244.26 374.62 244.37 374.73 244.47 374.67 244.63 374.61 244.80 374.81 245.35 375.02 245.90 375.02 245.91 Z"></path><path fill="#8ac926" d="M 363.85 163.83 Q 363.85 163.83 362.62 164.15 361.40 164.48 359.54 163.22 357.68 161.95 356.50 160.19 355.33 158.42 354.28 156.07 353.22 153.72 352.18 151.16 351.13 148.61 350.59 146.41 350.05 144.21 349.45 141.62 348.85 139.03 348.45 135.81 348.04 132.60 347.88 130.46 347.71 128.33 347.67 126.18 347.63 124.04 347.78 120.54 347.93 117.04 348.64 113.47 349.35 109.91 350.33 106.66 351.32 103.41 352.53 100.49 353.73 97.58 355.23 94.82 356.72 92.07 358.74 89.39 360.75 86.72 363.00 84.44 365.25 82.16 366.97 80.78 368.70 79.40 371.01 77.85 373.32 76.30 375.62 75.05 377.92 73.79 382.37 72.18 386.82 70.56 391.41 69.13 396.01 67.70 400.78 66.25 405.56 64.80 410.46 63.59 415.35 62.37 420.42 61.68 425.48 60.98 429.45 60.58 433.42 60.19 436.01 60.22 438.60 60.25 441.49 60.69 444.38 61.14 446.87 61.38 449.36 61.61 451.61 62.22 453.86 62.84 456.20 63.46 458.54 64.07 461.20 64.65 463.85 65.23 466.03 65.87 468.21 66.52 470.15 67.03 472.09 67.55 475.29 68.45 478.49 69.36 482.15 70.37 485.81 71.37 489.12 72.39 492.43 73.42 495.16 74.21 497.88 75.00 500.12 75.76 502.36 76.51 504.48 77.29 506.60 78.07 508.98 79.50 511.36 80.92 511.81 82.96 512.26 84.99 512.26 84.99 512.26 85.00 512.26 85.00 512.26 85.01 510.17 85.62 508.09 86.24 506.24 85.38 504.39 84.53 502.21 83.72 500.02 82.91 498.07 82.30 496.11 81.69 493.20 80.89 490.29 80.08 487.10 79.11 483.92 78.13 480.21 77.03 476.49 75.92 473.42 74.94 470.35 73.97 468.31 73.33 466.26 72.68 463.55 71.86 460.84 71.03 458.42 70.44 456.00 69.84 454.05 69.26 452.10 68.67 450.04 68.10 447.98 67.53 445.67 67.24 443.36 66.95 441.15 66.53 438.94 66.11 436.46 65.99 433.98 65.88 430.00 66.26 426.01 66.63 421.26 67.21 416.52 67.78 411.78 68.85 407.05 69.92 402.31 71.31 397.57 72.69 392.97 74.13 388.38 75.57 384.31 76.97 380.24 78.38 377.42 79.90 374.60 81.41 371.43 83.46 368.25 85.51 366.02 87.51 363.78 89.50 361.81 91.71 359.85 93.92 358.39 96.49 356.94 99.06 355.82 101.76 354.69 104.47 353.82 107.62 352.95 110.78 352.29 114.06 351.64 117.35 351.41 120.69 351.19 124.02 351.17 126.11 351.15 128.19 351.26 130.21 351.37 132.24 351.74 136.11 352.12 139.98 352.89 143.81 353.67 147.64 354.60 150.22 355.53 152.79 357.10 156.15 358.68 159.50 360.23 160.95 361.78 162.40 362.82 163.10 363.86 163.81 363.86 163.82 Z"></path><path fill="#8ac926" d="M 504.40 67.93 Q 504.40 67.93 503.10 68.09 501.80 68.24 500.85 66.29 499.90 64.33 501.44 62.56 502.99 60.79 503.09 60.69 503.20 60.59 503.53 60.57 503.87 60.55 504.20 60.61 504.53 60.67 504.84 60.81 505.15 60.95 505.41 61.16 505.68 61.37 505.88 61.63 506.09 61.90 506.23 62.20 506.36 62.51 506.42 62.84 506.49 63.17 506.46 63.51 506.44 63.85 506.34 64.17 506.24 64.49 506.07 64.78 505.89 65.06 505.65 65.30 505.42 65.54 505.13 65.71 504.84 65.89 504.52 65.99 504.20 66.08 505.80 67.69 507.39 69.29 507.82 71.73 508.25 74.16 508.60 76.32 508.95 78.49 509.63 80.67 510.31 82.85 511.80 84.30 513.28 85.75 514.44 87.56 515.61 89.36 514.74 88.44 513.86 87.53 514.26 87.61 514.66 87.69 515.03 87.87 515.40 88.04 515.72 88.30 516.04 88.56 516.28 88.88 516.53 89.21 516.69 89.59 516.85 89.96 516.92 90.36 516.99 90.77 516.95 91.18 516.92 91.58 516.79 91.97 516.67 92.36 516.45 92.71 516.23 93.05 515.94 93.34 515.64 93.62 515.29 93.82 514.93 94.03 514.54 94.14 514.15 94.26 513.74 94.28 513.33 94.29 511.78 92.40 510.22 90.52 509.47 88.50 508.71 86.49 507.82 84.56 506.93 82.64 506.01 80.69 505.08 78.73 504.15 76.56 503.21 74.38 502.18 71.92 501.14 69.46 500.67 67.43 500.21 65.40 499.29 63.50 498.37 61.61 497.69 59.72 497.00 57.83 498.09 59.24 499.19 60.64 498.81 60.52 498.44 60.40 498.10 60.19 497.76 59.99 497.48 59.70 497.21 59.42 497.00 59.08 496.80 58.74 496.69 58.36 496.57 57.98 496.55 57.59 496.53 57.19 496.61 56.80 496.68 56.41 496.85 56.05 497.01 55.69 497.26 55.38 497.51 55.07 497.82 54.83 498.14 54.59 498.50 54.43 498.86 54.27 499.25 54.20 499.64 54.14 500.04 54.16 500.43 54.19 501.75 56.00 503.06 57.80 504.43 59.48 505.81 61.15 506.60 63.18 507.39 65.21 508.29 67.36 509.20 69.51 509.99 71.43 510.78 73.36 511.47 75.44 512.16 77.52 512.95 80.00 513.75 82.48 513.97 84.58 514.20 86.67 512.71 88.35 511.21 90.02 509.39 91.11 507.57 92.21 505.76 93.06 503.94 93.92 502.04 94.79 500.14 95.67 497.88 96.65 495.62 97.63 493.60 99.00 491.58 100.37 489.77 101.49 487.97 102.61 485.97 103.91 483.97 105.21 482.10 105.98 480.24 106.75 478.60 107.07 476.95 107.38 476.55 107.34 476.15 107.31 475.77 107.18 475.39 107.05 475.06 106.83 474.72 106.61 474.44 106.32 474.17 106.03 473.97 105.68 473.77 105.33 473.66 104.94 473.55 104.55 473.54 104.15 473.53 103.75 473.61 103.36 473.70 102.97 473.87 102.60 474.05 102.24 474.30 101.93 474.56 101.62 474.88 101.39 475.21 101.15 475.58 100.99 475.95 100.84 476.35 100.78 476.74 100.72 478.71 99.87 480.68 99.03 482.68 97.93 484.67 96.82 486.46 95.60 488.26 94.39 490.32 93.38 492.38 92.37 494.28 91.21 496.18 90.05 498.83 88.12 501.47 86.18 503.45 84.79 505.44 83.40 507.71 82.01 509.98 80.62 511.81 81.43 513.64 82.24 513.63 82.24 513.63 82.23 513.62 82.23 513.62 82.23 514.82 82.86 516.02 83.48 514.54 84.88 513.06 86.28 511.04 87.59 509.02 88.91 507.39 90.10 505.76 91.29 503.49 93.04 501.23 94.78 499.18 96.22 497.13 97.65 494.91 98.61 492.69 99.57 490.76 100.67 488.83 101.77 486.81 102.87 484.79 103.96 482.81 104.96 480.82 105.96 478.89 106.67 476.95 107.38 476.55 107.34 476.15 107.31 475.77 107.18 475.39 107.05 475.06 106.83 474.72 106.61 474.44 106.32 474.17 106.03 473.97 105.68 473.77 105.33 473.66 104.94 473.55 104.55 473.54 104.15 473.53 103.75 473.61 103.36 473.70 102.97 473.87 102.60 474.05 102.24 474.30 101.93 474.56 101.62 474.88 101.39 475.21 101.15 475.58 100.99 475.95 100.84 476.35 100.78 476.74 100.72 476.62 100.83 476.50 100.94 478.57 99.95 480.64 98.97 483.00 97.49 485.35 96.01 487.22 94.83 489.08 93.66 491.61 92.16 494.15 90.65 496.20 89.73 498.25 88.82 501.19 87.76 504.12 86.71 505.73 85.48 507.34 84.25 506.30 81.42 505.26 78.60 504.36 76.07 503.46 73.54 502.49 71.30 501.52 69.06 500.71 66.90 499.90 64.74 499.54 62.69 499.19 60.65 498.81 60.52 498.44 60.40 498.10 60.19 497.76 59.99 497.48 59.70 497.21 59.42 497.00 59.08 496.80 58.74 496.69 58.36 496.57 57.98 496.55 57.59 496.53 57.19 496.61 56.80 496.68 56.41 496.85 56.05 497.01 55.69 497.26 55.38 497.51 55.07 497.82 54.83 498.14 54.59 498.50 54.43 498.86 54.27 499.25 54.20 499.64 54.14 500.04 54.16 500.43 54.19 501.09 54.52 501.75 54.86 503.38 57.17 505.00 59.49 505.82 61.48 506.64 63.47 506.95 65.90 507.25 68.32 508.53 70.65 509.80 72.97 510.90 75.35 511.99 77.73 512.86 80.03 513.72 82.34 514.62 84.29 515.51 86.24 516.25 88.40 516.98 90.56 515.42 89.04 513.86 87.53 514.26 87.61 514.66 87.69 515.03 87.87 515.40 88.04 515.72 88.30 516.04 88.56 516.28 88.88 516.53 89.21 516.69 89.59 516.85 89.96 516.92 90.36 516.99 90.77 516.95 91.18 516.92 91.58 516.79 91.97 516.67 92.36 516.45 92.71 516.23 93.05 515.94 93.34 515.64 93.62 515.29 93.82 514.93 94.03 514.54 94.14 514.15 94.26 513.74 94.28 513.33 94.29 512.31 93.61 511.28 92.93 509.73 91.62 508.18 90.31 506.92 88.68 505.67 87.04 504.61 85.09 503.55 83.13 502.97 80.55 502.39 77.97 501.98 75.69 501.58 73.40 501.08 70.73 500.58 68.07 500.71 66.01 500.83 63.94 502.01 62.27 503.20 60.59 503.53 60.57 503.87 60.55 504.20 60.61 504.53 60.67 504.84 60.81 505.15 60.95 505.41 61.16 505.67 61.37 505.88 61.63 506.09 61.90 506.23 62.20 506.36 62.51 506.42 62.84 506.49 63.17 506.46 63.51 506.44 63.85 506.34 64.17 506.24 64.49 506.07 64.78 505.89 65.06 505.65 65.30 505.42 65.54 505.13 65.71 504.84 65.89 504.52 65.99 504.20 66.08 504.47 65.72 504.75 65.35 504.58 66.63 504.41 67.92 504.41 67.93 Z"></path><path fill="#ffca3a" d="M 560.24 82.38 Q 560.24 82.38 560.04 84.59 559.84 86.80 557.73 89.13 555.63 91.47 553.37 93.77 551.10 96.08 549.21 98.02 547.32 99.96 545.26 101.76 543.21 103.56 541.63 104.81 540.06 106.06 538.27 107.03 536.47 107.99 536.32 107.96 536.16 107.92 535.85 107.91 535.54 107.90 535.25 107.81 534.95 107.72 534.68 107.57 534.41 107.41 534.19 107.20 533.97 106.98 533.80 106.72 533.64 106.46 533.54 106.17 533.44 105.87 533.42 105.56 533.39 105.25 533.44 104.95 533.49 104.64 533.61 104.36 533.73 104.07 533.92 103.83 534.11 103.58 534.35 103.38 534.59 103.19 534.87 103.06 535.15 102.92 535.45 102.86 535.75 102.80 539.05 101.48 542.34 100.17 544.49 99.47 546.65 98.78 549.14 97.94 551.63 97.09 553.90 96.24 556.17 95.38 558.16 94.60 560.14 93.82 562.07 92.87 564.00 91.92 565.27 91.68 566.54 91.43 566.87 91.44 567.21 91.45 567.53 91.53 567.85 91.62 568.15 91.79 568.44 91.95 568.68 92.18 568.93 92.41 569.11 92.69 569.30 92.97 569.41 93.28 569.52 93.60 569.55 93.93 569.58 94.27 569.53 94.60 569.48 94.93 569.36 95.24 569.23 95.55 569.03 95.82 568.83 96.09 568.58 96.31 568.32 96.53 568.02 96.67 567.72 96.82 567.39 96.89 567.07 96.97 565.03 97.35 563.00 97.74 559.85 96.97 556.70 96.19 554.24 95.46 551.78 94.73 549.08 93.87 546.39 93.01 543.91 92.26 541.42 91.51 539.55 90.77 537.68 90.03 540.02 88.83 542.35 87.63 540.80 86.31 539.25 84.99 541.21 86.53 543.16 88.06 545.12 89.79 547.09 91.51 548.87 94.62 550.64 97.73 551.74 100.43 552.83 103.13 553.45 105.03 554.08 106.93 555.15 108.93 556.22 110.93 554.19 112.20 552.16 113.48 551.90 111.42 551.64 109.36 551.67 106.37 551.70 103.37 551.74 100.86 551.78 98.34 552.02 95.08 552.25 91.81 552.69 89.80 553.13 87.78 556.32 86.40 559.51 85.01 559.51 85.02 559.52 85.02 559.52 85.03 559.52 85.03 559.34 87.76 559.16 90.49 558.65 92.46 558.15 94.42 558.16 96.96 558.18 99.51 558.24 102.76 558.31 106.01 558.31 108.43 558.32 110.84 557.94 113.24 557.56 115.64 554.63 116.15 551.71 116.67 550.78 114.89 549.85 113.12 548.87 111.22 547.90 109.31 547.09 107.33 546.28 105.35 545.41 103.24 544.54 101.12 542.95 98.43 541.35 95.74 540.27 93.66 539.18 91.57 537.63 89.60 536.09 87.63 537.79 85.98 539.50 84.34 541.69 85.04 543.88 85.74 545.97 86.37 548.06 86.99 550.78 87.98 553.50 88.97 555.74 89.68 557.98 90.38 560.07 91.16 562.17 91.94 564.35 91.69 566.54 91.43 566.87 91.44 567.21 91.45 567.53 91.53 567.85 91.62 568.15 91.79 568.44 91.95 568.68 92.18 568.93 92.41 569.11 92.69 569.30 92.97 569.41 93.28 569.52 93.60 569.55 93.93 569.58 94.27 569.53 94.60 569.48 94.93 569.36 95.24 569.23 95.55 569.03 95.82 568.83 96.09 568.58 96.31 568.32 96.53 568.02 96.67 567.72 96.82 567.39 96.89 567.07 96.97 566.57 96.96 566.07 96.96 564.20 98.03 562.33 99.10 560.18 99.96 558.03 100.82 555.57 101.67 553.11 102.52 550.67 103.31 548.23 104.11 544.91 105.19 541.59 106.27 538.88 107.10 536.16 107.92 535.85 107.91 535.54 107.90 535.25 107.81 534.95 107.72 534.68 107.57 534.41 107.41 534.19 107.20 533.97 106.98 533.80 106.72 533.64 106.46 533.54 106.17 533.44 105.87 533.42 105.56 533.39 105.26 533.44 104.95 533.49 104.64 533.61 104.36 533.73 104.07 533.92 103.83 534.11 103.58 534.35 103.38 534.59 103.19 534.87 103.06 535.15 102.92 535.45 102.86 535.75 102.80 536.20 102.63 536.65 102.47 538.25 101.24 539.85 100.02 541.90 98.31 543.96 96.61 545.88 94.71 547.81 92.81 550.05 90.54 552.28 88.27 554.19 86.13 556.10 83.99 558.16 83.18 560.23 82.37 560.23 82.38 Z"></path><path fill="#ffca3a" d="M 547.10 99.45 Q 547.10 99.45 547.10 99.45 547.10 99.45 547.10 99.45 Z"></path><path fill="#ffca3a" d="M 551.04 96.83 Q 551.04 96.83 550.65 97.15 550.25 97.47 550.25 97.47 550.25 97.48 550.25 97.48 550.25 97.49 550.64 97.15 551.03 96.81 551.04 96.82 Z"></path><path fill="#ffca3a" d="M 549.73 96.83 Q 549.73 96.83 549.35 97.02 548.97 97.21 548.97 97.21 548.97 97.20 548.97 97.20 548.96 97.19 549.34 97.00 549.72 96.82 549.72 96.82 Z"></path><path fill="#ffca3a" d="M 547.74 69.89 Q 547.74 69.89 547.43 68.68 547.11 67.46 547.50 65.45 547.90 63.43 549.13 60.85 550.37 58.26 550.37 58.26 550.38 58.26 550.38 58.26 550.39 58.26 550.32 61.01 550.26 63.76 549.71 65.78 549.15 67.80 548.46 68.85 547.76 69.90 547.75 69.90 Z"></path><path fill="#ffca3a" d="M 571.39 73.17 Q 571.39 73.17 571.49 72.07 571.59 70.96 573.15 69.61 574.70 68.26 576.22 67.84 577.74 67.42 577.75 67.42 577.75 67.43 577.75 67.43 577.76 67.43 575.61 69.90 573.47 72.37 572.44 72.78 571.41 73.19 571.40 73.18 Z"></path><path fill="#ffca3a" d="M 585.19 89.59 Q 585.19 89.59 585.83 88.46 586.48 87.32 589.48 87.54 592.49 87.76 592.49 87.76 592.49 87.77 592.49 87.77 592.49 87.78 590.08 89.07 587.68 90.37 586.44 89.99 585.19 89.61 585.19 89.60 Z"></path><path fill="#ffca3a" d="M 583.89 108.65 Q 583.89 108.65 584.63 108.79 585.38 108.94 586.77 110.62 588.15 112.30 588.15 112.30 588.15 112.30 588.14 112.31 588.14 112.31 585.26 111.09 582.38 109.86 583.12 109.25 583.87 108.65 583.88 108.65 Z"></path><path fill="#ffca3a" d="M 568.12 127.03 Q 568.12 127.03 569.25 128.63 570.37 130.23 569.57 132.77 568.78 135.31 568.78 135.31 568.77 135.31 568.77 135.31 568.76 135.31 567.69 132.97 566.62 130.64 567.36 128.84 568.10 127.04 568.11 127.04 Z"></path><path fill="#ffca3a" d="M 543.16 131.64 Q 543.16 131.64 542.98 132.60 542.80 133.56 542.39 135.56 541.98 137.56 540.62 140.06 539.27 142.55 539.26 142.55 539.26 142.55 539.25 142.54 539.25 142.54 539.52 138.85 539.80 135.16 540.52 133.19 541.24 131.22 542.20 131.42 543.15 131.63 543.16 131.63 Z"></path><path fill="#ffca3a" d="M 525.42 121.79 Q 525.42 121.79 524.86 122.36 524.29 122.93 520.43 124.57 516.57 126.21 516.57 126.21 516.57 126.21 516.56 126.20 516.56 126.20 518.43 124.41 520.30 122.62 522.30 121.62 524.29 120.63 524.86 121.20 525.42 121.77 525.42 121.78 Z"></path><path fill="#ffca3a" d="M 514.26 109.97 Q 514.26 109.97 513.20 110.38 512.15 110.79 509.90 111.39 507.65 112.00 505.78 111.31 503.92 110.63 503.92 110.62 503.92 110.62 503.92 110.61 503.92 110.61 506.05 109.77 508.18 108.92 510.38 108.65 512.59 108.37 513.42 109.16 514.26 109.95 514.26 109.96 Z"></path><path fill="#ffca3a" d="M 530.01 75.81 Q 530.01 75.81 528.79 74.96 527.57 74.11 526.91 70.79 526.24 67.47 526.24 67.47 526.25 67.47 526.25 67.46 526.25 67.46 528.61 70.22 530.96 72.98 530.50 74.39 530.03 75.80 530.02 75.81 Z"></path><path fill="#ffca3a" d="M 550.38 89.59 Q 550.38 89.59 550.80 88.58 551.22 87.58 552.84 86.01 554.46 84.44 556.08 82.66 557.69 80.88 558.49 80.26 559.29 79.64 559.46 79.63 559.63 79.61 559.81 79.64 559.98 79.67 560.14 79.74 560.30 79.80 560.44 79.91 560.58 80.01 560.69 80.15 560.80 80.29 560.88 80.44 560.95 80.60 560.99 80.77 561.02 80.94 561.02 81.12 561.01 81.29 560.96 81.46 560.91 81.63 560.82 81.78 560.74 81.93 560.62 82.06 560.49 82.19 560.35 82.28 560.20 82.37 560.03 82.43 559.87 82.48 559.82 84.55 559.78 86.61 559.08 88.76 558.39 90.92 557.35 92.54 556.30 94.17 556.30 94.17 556.29 94.17 556.29 94.17 556.28 94.17 556.38 90.88 556.47 87.60 556.96 85.48 557.45 83.35 558.37 81.50 559.29 79.64 559.46 79.63 559.63 79.61 559.81 79.64 559.98 79.67 560.14 79.74 560.30 79.80 560.44 79.91 560.58 80.01 560.69 80.15 560.80 80.29 560.88 80.44 560.95 80.60 560.99 80.77 561.02 80.94 561.02 81.12 561.01 81.29 560.96 81.46 560.91 81.63 560.82 81.78 560.74 81.93 560.62 82.06 560.49 82.19 560.35 82.28 560.20 82.37 560.03 82.43 559.87 82.48 559.15 83.05 558.43 83.62 557.05 85.13 555.67 86.64 554.11 88.00 552.56 89.36 551.47 89.48 550.39 89.61 550.38 89.60 Z"></path><path fill="#ffca3a" d="M 549.72 96.16 Q 549.72 96.16 549.42 95.44 549.12 94.71 549.13 94.10 549.14 93.49 549.17 93.34 549.20 93.20 549.26 93.06 549.32 92.92 549.41 92.80 549.50 92.69 549.62 92.60 549.74 92.50 549.88 92.44 550.01 92.38 550.16 92.35 550.31 92.33 550.46 92.34 550.61 92.35 550.75 92.39 550.89 92.44 551.02 92.51 551.15 92.59 551.25 92.70 551.36 92.80 551.44 92.93 551.51 93.06 551.56 93.20 551.60 93.35 551.61 93.49 551.62 93.64 550.45 95.96 549.28 98.28 548.78 99.29 548.28 100.30 548.24 100.44 548.20 100.58 548.12 100.70 548.05 100.82 547.95 100.93 547.84 101.03 547.72 101.10 547.60 101.18 547.46 101.22 547.32 101.27 547.18 101.27 547.03 101.28 546.89 101.26 546.75 101.23 546.62 101.17 546.48 101.11 546.37 101.03 546.26 100.94 546.17 100.82 546.08 100.71 546.02 100.58 545.96 100.45 545.93 100.30 545.90 100.16 545.91 100.02 545.92 99.87 547.34 98.40 548.76 96.93 549.34 96.17 549.91 95.42 549.94 95.28 549.97 95.15 550.03 95.03 550.08 94.91 550.17 94.80 550.26 94.70 550.37 94.61 550.48 94.53 550.60 94.48 550.73 94.43 550.86 94.41 551.00 94.38 551.13 94.40 551.27 94.41 551.40 94.45 551.53 94.50 551.64 94.57 551.76 94.64 551.85 94.74 551.95 94.84 552.01 94.96 552.08 95.08 552.12 95.21 552.15 95.34 552.16 95.48 552.16 95.61 550.63 97.18 549.10 98.75 549.10 98.75 549.09 98.75 549.09 98.75 549.08 98.74 549.50 97.08 549.91 95.42 549.94 95.29 549.97 95.15 550.03 95.03 550.08 94.91 550.17 94.80 550.26 94.70 550.37 94.61 550.48 94.53 550.60 94.48 550.73 94.43 550.86 94.41 551.00 94.38 551.13 94.40 551.27 94.41 551.40 94.45 551.53 94.50 551.64 94.57 551.76 94.64 551.85 94.74 551.95 94.84 552.01 94.96 552.08 95.08 552.12 95.21 552.15 95.34 552.16 95.48 552.16 95.61 551.82 96.45 551.48 97.29 549.88 98.79 548.28 100.30 548.24 100.44 548.20 100.57 548.12 100.70 548.05 100.82 547.95 100.93 547.84 101.03 547.72 101.10 547.60 101.18 547.46 101.22 547.32 101.27 547.18 101.27 547.03 101.28 546.89 101.26 546.75 101.23 546.62 101.17 546.48 101.11 546.37 101.03 546.26 100.94 546.17 100.82 546.08 100.71 546.02 100.58 545.96 100.45 545.93 100.30 545.90 100.16 545.91 100.02 545.92 99.87 546.49 98.50 547.06 97.13 548.10 95.31 549.14 93.49 549.17 93.34 549.20 93.20 549.26 93.06 549.32 92.92 549.41 92.80 549.50 92.69 549.62 92.60 549.74 92.50 549.88 92.44 550.01 92.38 550.16 92.35 550.31 92.33 550.46 92.34 550.61 92.35 550.75 92.39 550.89 92.44 551.02 92.51 551.15 92.59 551.25 92.70 551.36 92.80 551.44 92.93 551.51 93.06 551.56 93.20 551.60 93.35 551.61 93.49 551.62 93.64 551.35 94.50 551.08 95.36 550.41 95.77 549.73 96.17 549.72 96.17 Z"></path><path fill="#ffca3a" d="M 543.17 96.17 Q 543.17 96.17 543.33 97.10 543.49 98.03 542.13 99.59 540.77 101.15 539.31 102.63 537.84 104.12 537.04 104.96 536.24 105.81 536.09 105.90 535.94 106.00 535.78 106.06 535.61 106.13 535.44 106.15 535.26 106.17 535.09 106.14 534.92 106.12 534.75 106.06 534.59 105.99 534.44 105.89 534.30 105.79 534.18 105.66 534.07 105.53 533.99 105.37 533.91 105.21 533.87 105.04 533.83 104.87 533.83 104.69 533.83 104.52 533.87 104.35 533.91 104.18 534.00 104.02 534.08 103.87 534.20 103.74 534.32 103.61 536.00 102.00 537.68 100.40 539.32 99.18 540.96 97.96 543.56 96.73 546.15 95.50 546.15 95.51 546.15 95.51 546.15 95.52 546.15 95.52 544.68 97.21 543.20 98.89 541.39 100.60 539.58 102.30 537.91 104.05 536.24 105.80 536.09 105.90 535.94 106.00 535.78 106.06 535.61 106.13 535.44 106.15 535.27 106.17 535.09 106.14 534.92 106.12 534.75 106.06 534.59 105.99 534.44 105.89 534.30 105.79 534.18 105.66 534.07 105.53 533.99 105.37 533.91 105.21 533.87 105.04 533.83 104.87 533.83 104.70 533.83 104.52 533.87 104.35 533.91 104.18 534.00 104.02 534.08 103.87 534.20 103.74 534.32 103.61 535.07 103.22 535.82 102.83 537.16 101.19 538.49 99.55 539.90 98.06 541.31 96.57 542.23 96.37 543.15 96.16 543.16 96.17 Z"></path>
</svg>