<svg width="775" height="436" xmlns="http://www.w3.org/2000/svg" xmlns:xlink="http://www.w3.org/1999/xlink">
<path fill="#6a4c93" d="M 441.28 387.03 Q 441.28 387.03 441.28 387.04 441.27 387.04 441.27 387.04 441.27 387.05 441.27 387.04 Z"></path><path fill="#6a4c93" d="M 135.95 281.39 Q 135.95 281.39 134.64 281.55 133.32 281.71 131.25 281.62 129.18 281.53 126.98 282.13 124.77 282.73 122.08 284.00 119.38 285.28 117.51 286.23 115.64 287.19 113.38 288.04 111.12 288.89 109.22 289.88 107.32 290.87 105.39 292.24 103.46 293.60 101.75 294.68 100.04 295.77 98.36 296.87 96.68 297.98 95.18 299.46 93.69 300.93 92.39 302.49 91.10 304.05 89.88 306.31 88.65 308.56 88.71 310.83 88.77 313.09 88.53 315.18 88.30 317.27 87.85 319.29 87.39 321.31 87.46 323.48 87.53 325.65 87.55 327.81 87.56 329.96 88.23 332.56 88.90 335.16 89.97 336.99 91.04 338.82 92.16 340.51 93.28 342.19 95.37 343.69 97.46 345.18 99.52 346.51 101.58 347.85 103.29 349.00 104.99 350.15 107.22 351.13 109.45 352.11 112.50 352.93 115.56 353.75 117.51 354.31 119.46 354.87 122.16 355.43 124.86 356.00 127.51 356.10 130.17 356.20 132.54 356.47 134.90 356.74 136.92 356.73 138.94 356.73 141.00 356.73 143.06 356.72 145.64 356.73 148.22 356.73 151.38 356.73 154.55 356.74 156.83 356.50 159.11 356.26 161.22 356.18 163.34 356.11 165.47 355.94 167.61 355.76 170.03 355.42 172.45 355.08 174.59 354.68 176.72 354.29 178.96 353.75 181.19 353.22 183.11 352.40 185.02 351.57 187.05 350.68 189.08 349.79 190.97 348.68 192.86 347.57 194.87 346.72 196.87 345.87 198.88 344.57 200.89 343.28 203.18 341.69 205.47 340.10 207.02 338.68 208.56 337.25 210.05 335.39 211.54 333.53 212.69 331.47 213.84 329.42 214.84 327.36 215.84 325.31 216.67 322.94 217.49 320.58 217.53 318.52 217.57 316.46 217.12 313.96 216.67 311.46 215.95 309.33 215.23 307.21 213.82 305.27 212.41 303.34 210.78 301.55 209.16 299.76 207.67 298.40 206.18 297.05 204.48 295.71 202.78 294.37 200.81 293.16 198.83 291.94 196.48 290.47 194.13 289.00 191.88 287.55 189.64 286.09 187.70 285.03 185.75 283.97 183.55 283.40 181.34 282.82 178.74 282.20 176.14 281.58 173.88 281.16 171.61 280.74 168.63 280.17 165.65 279.60 162.91 279.21 160.16 278.81 158.18 278.55 156.19 278.29 153.99 277.91 151.78 277.53 149.62 277.47 147.46 277.42 145.40 277.67 143.34 277.92 141.08 278.52 138.82 279.13 136.47 279.78 134.12 280.44 131.78 281.09 129.45 281.74 126.93 282.71 124.42 283.68 122.41 284.33 120.40 284.98 118.10 285.59 115.81 286.20 113.73 287.19 111.65 288.17 109.77 289.28 107.89 290.38 105.71 290.91 103.54 291.44 101.65 292.70 99.76 293.95 98.35 295.57 96.95 297.18 93.95 298.97 90.95 300.76 90.95 300.76 90.95 300.75 90.94 300.75 90.94 300.75 92.09 298.29 93.23 295.84 93.82 293.81 94.40 291.78 95.98 290.40 97.56 289.02 99.28 287.90 100.99 286.79 103.39 285.92 105.78 285.06 107.64 283.94 109.50 282.83 111.32 281.92 113.13 281.01 115.36 280.38 117.58 279.74 119.51 279.19 121.45 278.64 123.73 278.34 126.02 278.04 127.88 276.74 129.74 275.43 132.03 274.64 134.32 273.85 136.45 273.44 138.58 273.02 141.10 272.54 143.63 272.05 145.54 271.47 147.46 270.89 149.48 270.88 151.50 270.86 153.72 271.19 155.95 271.52 157.99 271.82 160.03 272.12 162.22 272.48 164.40 272.84 166.57 273.19 168.74 273.54 171.37 274.04 174.00 274.55 175.99 274.89 177.99 275.23 180.01 275.64 182.02 276.06 184.04 276.64 186.06 277.23 188.70 278.26 191.33 279.30 193.69 280.77 196.04 282.23 197.76 283.35 199.49 284.48 201.41 285.60 203.33 286.72 205.31 288.13 207.29 289.55 209.19 291.20 211.08 292.85 212.66 294.44 214.24 296.03 215.70 297.52 217.17 299.00 218.63 301.12 220.09 303.24 221.01 305.52 221.93 307.81 222.86 310.18 223.79 312.56 223.78 314.70 223.78 316.83 223.70 319.05 223.61 321.26 222.98 323.62 222.35 325.98 221.26 328.38 220.17 330.78 218.84 333.00 217.50 335.23 215.73 337.53 213.97 339.82 212.14 341.80 210.31 343.78 208.43 345.12 206.55 346.45 204.27 347.80 201.98 349.14 199.94 350.33 197.89 351.51 195.77 352.64 193.64 353.78 191.81 354.59 189.98 355.40 188.15 356.24 186.32 357.09 184.43 357.87 182.54 358.65 180.16 359.23 177.79 359.81 175.56 360.22 173.33 360.63 171.10 360.93 168.88 361.24 166.12 361.45 163.36 361.65 161.31 361.78 159.26 361.90 156.90 362.12 154.55 362.33 151.38 362.34 148.22 362.34 145.64 362.34 143.06 362.34 140.99 362.33 138.92 362.32 136.83 362.28 134.75 362.24 131.20 361.88 127.65 361.52 125.63 361.35 123.62 361.18 121.07 360.67 118.52 360.16 116.09 359.50 113.65 358.83 110.97 357.96 108.29 357.08 106.41 356.27 104.53 355.46 102.31 354.45 100.09 353.43 98.41 352.18 96.73 350.94 95.02 349.59 93.31 348.25 91.34 346.55 89.38 344.85 88.24 343.13 87.11 341.41 86.11 339.66 85.11 337.92 84.37 336.06 83.62 334.20 83.41 332.08 83.20 329.96 83.23 327.37 83.27 324.78 83.33 322.57 83.39 320.37 83.86 318.40 84.34 316.42 84.52 314.30 84.69 312.18 85.05 310.08 85.40 307.97 86.25 305.50 87.10 303.03 88.27 301.24 89.43 299.46 90.98 297.89 92.52 296.32 94.13 294.94 95.73 293.56 97.90 292.28 100.07 291.01 101.75 289.89 103.42 288.76 105.32 287.93 107.22 287.11 109.88 285.85 112.55 284.60 114.74 283.71 116.94 282.83 119.17 281.97 121.39 281.10 123.52 280.43 125.65 279.77 127.84 279.38 130.02 278.98 132.04 279.26 134.05 279.53 135.00 280.45 135.96 281.37 135.95 281.38 Z"></path><path fill="#6a4c93" d="M 171.41 297.15 Q 171.41 297.15 170.55 296.80 169.69 296.46 168.92 298.67 168.15 300.88 170.19 300.15 172.24 299.43 170.88 297.96 169.51 296.50 169.51 296.49 169.51 296.49 169.51 296.48 169.51 296.48 171.72 295.95 173.92 295.43 175.43 297.85 176.93 300.28 175.08 302.36 173.23 304.44 170.95 304.94 168.67 305.44 166.88 304.22 165.09 303.00 164.94 300.79 164.80 298.58 165.89 296.72 166.97 294.87 168.95 294.27 170.92 293.66 172.92 294.77 174.92 295.87 175.69 298.07 176.47 300.27 174.98 302.19 173.49 304.10 170.94 304.50 168.39 304.89 166.44 303.12 164.49 301.34 165.26 299.20 166.03 297.06 168.10 295.61 170.18 294.15 171.99 295.23 173.81 296.30 174.70 298.23 175.59 300.16 174.50 301.99 173.40 303.82 171.39 304.01 169.38 304.19 167.07 303.26 164.76 302.32 164.74 299.64 164.73 296.96 166.71 295.21 168.69 293.45 170.54 294.51 172.39 295.56 171.91 296.35 171.43 297.14 171.42 297.14 Z"></path><path fill="#6a4c93" d="M 147.12 307.00 Q 147.12 307.00 146.31 307.53 145.50 308.06 147.54 307.85 149.57 307.64 147.92 308.79 146.27 309.95 148.38 308.77 150.48 307.60 148.82 306.46 147.16 305.32 146.42 306.47 145.69 307.62 145.69 307.62 145.69 307.63 145.69 307.63 145.68 307.64 144.97 305.14 144.26 302.64 146.71 301.86 149.16 301.08 151.73 302.77 154.31 304.47 154.26 307.40 154.21 310.33 152.76 311.81 151.32 313.28 148.51 313.46 145.71 313.65 144.10 312.36 142.49 311.08 142.44 308.67 142.39 306.27 143.59 304.49 144.80 302.70 146.94 302.00 149.09 301.30 151.31 302.01 153.53 302.71 154.47 304.53 155.40 306.35 154.46 308.63 153.52 310.90 151.25 312.43 148.98 313.96 146.86 314.02 144.74 314.09 143.13 312.28 141.52 310.48 141.87 308.37 142.21 306.27 143.67 304.19 145.14 302.12 147.31 302.34 149.49 302.56 151.36 303.76 153.23 304.95 153.19 307.12 153.15 309.28 151.44 310.73 149.74 312.18 147.66 312.94 145.57 313.71 143.03 312.89 140.49 312.07 141.19 309.76 141.89 307.45 144.18 306.31 146.47 305.17 146.79 306.08 147.12 306.98 147.12 306.99 Z"></path><path fill="#6a4c93" d="M 163.54 318.83 Q 163.54 318.83 162.97 319.49 162.41 320.16 161.99 320.54 161.58 320.91 161.33 320.88 161.08 320.85 160.84 320.76 160.61 320.67 160.40 320.53 160.19 320.38 160.02 320.19 159.86 320.00 159.74 319.78 159.62 319.56 159.56 319.31 159.50 319.07 159.50 318.82 159.50 318.56 159.56 318.32 159.62 318.07 159.74 317.85 159.86 317.63 160.02 317.44 160.19 317.25 160.40 317.11 160.61 316.96 160.84 316.87 161.08 316.78 161.33 316.75 161.58 316.72 163.73 316.63 165.87 316.53 167.74 315.47 169.61 314.42 171.17 314.32 172.74 314.22 172.74 314.22 172.73 314.22 172.73 314.22 172.72 314.22 171.59 317.11 170.46 319.99 168.19 320.55 165.92 321.10 163.75 321.00 161.58 320.91 161.33 320.88 161.08 320.85 160.84 320.76 160.61 320.67 160.40 320.53 160.19 320.38 160.02 320.19 159.86 320.00 159.74 319.78 159.62 319.56 159.56 319.31 159.50 319.07 159.50 318.82 159.50 318.56 159.56 318.32 159.62 318.07 159.74 317.85 159.86 317.63 160.02 317.44 160.19 317.25 160.40 317.11 160.61 316.96 160.84 316.87 161.08 316.78 161.33 316.75 161.58 316.72 161.99 317.09 162.41 317.47 162.97 318.14 163.54 318.81 163.54 318.82 Z"></path><path fill="#6a4c93" d="M 162.88 318.17 Q 162.88 318.17 162.13 318.95 161.37 319.73 159.37 319.82 157.36 319.92 155.55 318.87 153.73 317.81 153.69 317.67 153.65 317.53 153.68 317.29 153.70 317.05 153.79 316.83 153.87 316.60 154.00 316.40 154.14 316.20 154.32 316.04 154.49 315.87 154.71 315.76 154.92 315.64 155.15 315.58 155.39 315.52 155.63 315.52 155.87 315.51 156.11 315.57 156.34 315.62 156.56 315.73 156.77 315.84 156.95 316.00 157.14 316.16 157.28 316.35 157.42 316.55 157.51 316.77 157.60 317.00 157.63 317.24 157.66 317.48 160.32 317.34 162.98 317.19 164.83 316.00 166.68 314.81 168.34 313.68 170.00 312.55 171.69 312.46 173.38 312.37 173.38 312.37 173.39 312.37 173.39 312.37 173.40 312.37 172.83 314.24 172.26 316.11 170.67 317.69 169.07 319.26 167.29 320.26 165.50 321.26 163.29 321.46 161.09 321.66 159.13 320.96 157.17 320.26 155.41 318.90 153.65 317.54 153.68 317.29 153.70 317.05 153.79 316.83 153.87 316.60 154.00 316.40 154.14 316.20 154.32 316.04 154.49 315.87 154.71 315.76 154.92 315.64 155.15 315.58 155.39 315.52 155.63 315.52 155.87 315.51 156.10 315.57 156.34 315.62 156.56 315.73 156.77 315.84 156.95 316.00 157.14 316.16 157.28 316.35 157.42 316.55 157.51 316.77 157.60 317.00 157.63 317.24 157.66 317.48 157.51 316.94 157.36 316.40 159.37 316.49 161.37 316.59 162.13 317.37 162.88 318.15 162.88 318.16 Z"></path><path fill="#1982c4" d="M 437.34 322.67 Q 437.34 322.67 437.34 322.67 437.33 322.67 437.33 322.68 437.33 322.68 437.33 322.67 Z"></path><path fill="#1982c4" d="M 115.58 289.92 Q 115.58 289.92 114.77 289.35 113.96 288.78 113.74 286.64 113.52 284.50 113.11 282.28 112.69 280.06 112.32 277.50 111.94 274.94 111.83 272.20 111.71 269.45 111.75 267.35 111.79 265.24 111.83 262.80 111.86 260.37 111.87 258.32 111.87 256.26 111.45 254.21 111.02 252.16 112.44 249.73 113.86 247.29 115.88 248.04 117.89 248.79 119.44 250.53 120.99 252.26 122.39 254.20 123.80 256.13 125.08 258.05 126.37 259.97 128.21 261.99 130.04 264.00 131.72 265.90 133.39 267.79 135.27 269.64 137.14 271.49 139.02 273.55 140.89 275.61 142.73 277.66 144.57 279.71 143.49 278.67 142.41 277.64 142.77 277.75 143.13 277.86 143.46 278.05 143.78 278.25 144.05 278.51 144.31 278.78 144.51 279.10 144.71 279.43 144.82 279.79 144.94 280.15 144.96 280.52 144.98 280.90 144.92 281.27 144.85 281.64 144.70 281.99 144.54 282.33 144.31 282.63 144.08 282.93 143.78 283.16 143.48 283.40 143.14 283.55 142.80 283.71 142.43 283.78 142.05 283.85 141.68 283.83 141.30 283.80 140.66 281.29 140.01 278.78 140.01 278.78 140.01 278.77 140.01 278.77 140.02 278.76 141.21 278.20 142.41 277.64 142.77 277.75 143.13 277.86 143.45 278.05 143.78 278.25 144.05 278.51 144.31 278.78 144.51 279.10 144.71 279.42 144.82 279.79 144.93 280.15 144.96 280.52 144.98 280.90 144.92 281.27 144.85 281.64 144.70 281.99 144.54 282.33 144.31 282.63 144.08 282.93 143.78 283.16 143.49 283.40 143.14 283.55 142.80 283.71 142.43 283.78 142.05 283.85 141.68 283.83 141.30 283.80 141.14 283.88 140.98 283.96 139.01 282.76 137.05 281.56 135.35 280.02 133.66 278.48 132.33 276.96 131.00 275.43 129.54 273.78 128.08 272.12 126.61 270.45 125.15 268.78 123.33 266.97 121.52 265.15 120.10 263.23 118.68 261.31 117.35 259.39 116.01 257.48 116.12 254.82 116.23 252.16 116.46 254.21 116.69 256.26 116.69 258.32 116.70 260.37 116.74 262.79 116.78 265.21 116.84 267.28 116.90 269.34 116.90 271.84 116.90 274.33 117.16 276.92 117.42 279.52 117.54 282.01 117.66 284.49 117.44 286.64 117.22 288.78 116.41 289.35 115.60 289.92 115.59 289.92 Z"></path><path fill="#1982c4" d="M 114.95 253.14 Q 114.95 253.14 116.24 254.42 117.54 255.70 118.37 257.62 119.20 259.55 119.71 261.72 120.22 263.90 120.33 266.12 120.44 268.35 120.54 270.36 120.63 272.38 120.65 274.95 120.67 277.52 120.66 279.91 120.64 282.30 120.63 284.34 120.63 286.38 120.62 288.42 120.62 290.46 119.42 292.39 118.22 294.33 117.66 294.63 117.09 294.94 116.80 294.93 116.51 294.91 116.23 294.83 115.96 294.75 115.71 294.60 115.46 294.46 115.25 294.26 115.04 294.06 114.89 293.81 114.73 293.57 114.64 293.29 114.55 293.02 114.53 292.73 114.51 292.44 114.56 292.15 114.60 291.87 114.72 291.60 114.83 291.34 115.01 291.10 115.18 290.87 115.41 290.69 115.63 290.51 115.89 290.39 116.16 290.26 116.44 290.21 116.72 290.15 118.90 290.01 121.07 289.88 123.36 289.11 125.65 288.34 128.24 287.37 130.83 286.41 132.82 285.25 134.81 284.10 136.84 282.52 138.86 280.95 140.03 280.84 141.20 280.73 141.20 280.73 141.21 280.73 141.21 280.73 141.22 280.73 141.40 283.02 141.58 285.32 139.92 286.60 138.26 287.88 136.32 289.29 134.38 290.70 132.11 291.67 129.85 292.64 127.55 293.38 125.25 294.12 123.19 294.66 121.12 295.21 119.11 295.07 117.09 294.94 116.80 294.93 116.51 294.91 116.23 294.83 115.96 294.75 115.71 294.60 115.46 294.46 115.25 294.26 115.04 294.06 114.89 293.81 114.73 293.57 114.64 293.29 114.55 293.02 114.53 292.73 114.51 292.44 114.56 292.15 114.60 291.87 114.72 291.60 114.83 291.34 115.01 291.10 115.18 290.87 115.41 290.69 115.63 290.51 115.89 290.39 116.16 290.26 116.44 290.21 116.72 290.15 116.25 290.89 115.79 291.63 115.82 289.49 115.85 287.34 115.83 285.12 115.80 282.90 115.79 280.75 115.77 278.61 115.75 276.44 115.72 274.27 115.83 272.08 115.93 269.88 115.97 267.74 116.00 265.59 115.68 263.39 115.36 261.20 114.60 258.91 113.84 256.62 114.38 254.88 114.93 253.14 114.94 253.14 Z"></path><path fill="#1982c4" d="M 119.54 265.62 Q 119.54 265.62 120.29 266.37 121.05 267.13 122.01 269.73 122.97 272.34 123.46 274.65 123.94 276.96 124.39 279.22 124.84 281.48 125.49 283.49 126.14 285.51 126.41 287.05 126.67 288.60 126.65 288.83 126.62 289.05 126.54 289.26 126.46 289.48 126.33 289.66 126.20 289.85 126.03 290.00 125.86 290.15 125.66 290.26 125.46 290.37 125.24 290.42 125.02 290.48 124.79 290.48 124.56 290.48 124.34 290.42 124.12 290.37 123.92 290.26 123.72 290.16 123.55 290.01 123.38 289.86 123.25 289.67 123.12 289.48 123.04 289.27 122.96 289.06 122.93 288.83 122.90 288.61 122.55 285.85 122.20 283.10 121.53 280.49 120.87 277.88 120.16 275.27 119.46 272.66 119.05 270.67 118.65 268.68 118.61 266.51 118.56 264.34 118.04 263.53 117.51 262.72 117.51 262.39 117.50 262.06 117.57 261.75 117.64 261.43 117.79 261.14 117.93 260.85 118.14 260.60 118.36 260.35 118.62 260.16 118.88 259.97 119.19 259.84 119.49 259.72 119.81 259.68 120.13 259.63 120.46 259.66 120.78 259.69 121.09 259.80 121.40 259.91 121.67 260.09 121.94 260.27 122.16 260.51 122.38 260.75 122.54 261.04 122.70 261.32 122.78 261.63 122.87 261.95 123.48 264.20 124.09 266.46 124.38 268.99 124.68 271.52 124.86 274.06 125.04 276.60 125.03 278.82 125.02 281.04 125.03 283.05 125.05 285.06 125.05 287.09 125.04 289.13 124.91 289.85 124.78 290.57 124.74 290.89 124.70 291.20 124.59 291.50 124.48 291.79 124.30 292.05 124.12 292.31 123.89 292.52 123.65 292.73 123.37 292.88 123.09 293.02 122.78 293.10 122.48 293.17 122.16 293.17 121.85 293.17 121.54 293.10 121.23 293.02 120.95 292.88 120.67 292.73 120.44 292.52 120.20 292.31 120.02 292.05 119.84 291.79 119.73 291.50 119.62 291.20 119.58 290.89 119.54 290.57 119.62 288.37 119.69 286.16 119.70 284.13 119.71 282.09 119.70 279.19 119.69 276.28 119.69 273.71 119.68 271.14 119.31 269.07 118.94 267.00 120.13 265.08 121.32 263.15 123.20 264.13 125.07 265.10 125.62 267.03 126.16 268.96 126.99 271.04 127.82 273.13 129.27 275.72 130.72 278.30 131.88 280.11 133.04 281.91 133.61 283.01 134.17 284.10 134.19 284.45 134.22 284.79 134.16 285.13 134.10 285.47 133.96 285.79 133.82 286.10 133.61 286.38 133.40 286.65 133.13 286.87 132.86 287.08 132.54 287.23 132.23 287.37 131.89 287.44 131.55 287.50 131.20 287.49 130.86 287.47 130.53 287.37 130.20 287.27 129.90 287.09 129.60 286.91 129.35 286.67 129.11 286.43 128.93 286.13 128.75 285.84 128.64 285.51 128.53 285.18 127.98 282.53 127.43 279.87 126.64 277.85 125.86 275.83 125.18 273.94 124.50 272.05 123.75 270.26 123.01 268.47 123.03 268.18 123.04 267.88 123.12 267.60 123.21 267.32 123.36 267.07 123.51 266.81 123.71 266.60 123.92 266.39 124.17 266.24 124.42 266.08 124.70 265.99 124.98 265.90 125.28 265.88 125.57 265.86 125.86 265.91 126.15 265.96 126.42 266.07 126.69 266.19 126.92 266.37 127.16 266.55 127.34 266.78 127.53 267.01 127.65 267.28 127.77 267.55 127.83 267.83 127.89 268.12 129.02 269.90 130.15 271.68 131.33 273.30 132.52 274.92 133.57 276.89 134.63 278.85 135.63 279.89 136.63 280.92 136.81 281.18 137.00 281.45 137.11 281.75 137.22 282.05 137.26 282.37 137.30 282.68 137.26 283.00 137.23 283.32 137.11 283.62 137.00 283.92 136.82 284.19 136.63 284.45 136.39 284.67 136.15 284.88 135.87 285.03 135.58 285.18 135.27 285.26 134.96 285.33 134.64 285.33 134.32 285.34 134.00 285.26 133.69 285.18 133.41 285.03 133.12 284.88 132.88 284.67 132.64 284.46 131.68 282.49 130.72 280.52 129.66 278.56 128.59 276.60 127.78 275.09 126.96 273.59 126.83 273.35 126.69 273.12 126.61 272.86 126.53 272.60 126.52 272.33 126.51 272.05 126.56 271.79 126.61 271.52 126.73 271.27 126.84 271.03 127.01 270.82 127.18 270.61 127.40 270.44 127.62 270.28 127.87 270.17 128.12 270.06 128.38 270.01 128.65 269.97 128.92 269.99 129.19 270.01 129.45 270.09 129.71 270.18 129.94 270.32 130.17 270.47 130.36 270.66 130.55 270.85 131.58 272.79 132.62 274.72 133.45 276.61 134.28 278.50 135.19 280.30 136.10 282.10 136.33 283.21 136.55 284.32 136.57 284.55 136.58 284.79 136.53 285.02 136.49 285.25 136.39 285.46 136.29 285.67 136.15 285.86 136.00 286.04 135.81 286.18 135.63 286.32 135.41 286.42 135.20 286.51 134.97 286.55 134.74 286.59 134.50 286.58 134.27 286.56 134.05 286.49 133.82 286.42 133.62 286.29 133.43 286.17 133.26 286.00 133.10 285.84 132.98 285.64 132.86 285.43 132.79 285.21 132.72 284.99 131.18 283.64 129.65 282.30 129.17 284.25 128.69 286.19 128.31 284.06 127.94 281.93 128.42 284.01 128.90 286.09 128.31 284.05 127.72 282.01 127.65 281.97 127.58 281.94 127.47 281.78 127.36 281.61 127.29 281.42 127.22 281.23 127.20 281.03 127.18 280.83 127.21 280.63 127.24 280.43 127.31 280.25 127.39 280.06 127.50 279.90 127.62 279.73 127.77 279.60 127.93 279.47 128.11 279.38 128.29 279.29 128.48 279.25 128.68 279.20 128.88 279.21 129.08 279.21 129.27 279.26 129.47 279.31 129.64 279.41 129.82 279.51 129.97 279.64 130.12 279.78 130.35 282.36 130.59 284.93 130.61 285.30 130.64 285.66 130.82 285.76 131.00 285.87 131.16 286.01 131.31 286.15 131.42 286.33 131.54 286.50 131.61 286.70 131.68 286.90 131.69 287.10 131.71 287.31 131.68 287.52 131.65 287.72 131.57 287.92 131.49 288.11 131.37 288.28 131.25 288.45 131.09 288.58 130.93 288.72 130.74 288.81 130.55 288.90 130.35 288.95 130.15 288.99 129.94 288.98 129.73 288.98 129.53 288.92 129.33 288.87 128.85 286.89 128.38 284.90 128.82 286.39 129.26 287.89 129.23 288.11 129.20 288.33 129.12 288.53 129.04 288.74 128.91 288.92 128.78 289.10 128.62 289.25 128.45 289.40 128.25 289.50 128.05 289.60 127.84 289.65 127.62 289.70 127.40 289.70 127.18 289.70 126.96 289.64 126.75 289.59 126.55 289.48 126.36 289.38 126.19 289.23 126.03 289.08 125.90 288.90 125.78 288.71 125.70 288.50 125.62 288.30 125.60 288.08 125.57 287.85 125.78 285.74 125.99 283.62 124.11 284.60 122.24 285.58 122.14 286.43 122.04 287.28 122.02 287.43 122.01 287.57 121.96 287.70 121.90 287.84 121.82 287.96 121.74 288.08 121.63 288.17 121.52 288.27 121.40 288.33 121.27 288.40 121.13 288.43 120.99 288.47 120.84 288.47 120.70 288.47 120.56 288.43 120.42 288.40 120.29 288.33 120.17 288.26 120.06 288.17 119.95 288.07 119.87 287.95 119.79 287.83 119.74 287.70 119.69 287.56 119.67 287.42 119.65 287.28 119.44 285.20 119.22 283.12 118.89 282.97 118.56 282.83 118.48 282.70 118.40 282.57 118.35 282.43 118.31 282.29 118.30 282.13 118.29 281.98 118.31 281.83 118.34 281.68 118.40 281.55 118.46 281.41 118.55 281.29 118.65 281.17 118.76 281.07 118.88 280.98 119.02 280.91 119.16 280.85 119.31 280.82 119.46 280.79 119.61 280.80 119.76 280.81 119.90 280.85 120.05 280.90 120.18 280.97 120.31 281.05 120.42 281.16 120.53 281.26 120.32 284.18 120.12 287.09 119.86 288.50 119.60 289.92 119.58 290.08 119.56 290.25 119.49 290.40 119.43 290.55 119.33 290.69 119.24 290.83 119.11 290.93 118.98 291.04 118.83 291.12 118.68 291.19 118.52 291.23 118.36 291.26 118.19 291.26 118.02 291.26 117.86 291.21 117.70 291.17 117.56 291.09 117.41 291.01 117.29 290.89 117.17 290.78 117.07 290.64 116.98 290.50 116.93 290.34 116.87 290.19 116.85 290.02 116.84 289.85 116.98 287.78 117.12 285.71 116.69 284.29 116.26 282.87 116.27 282.71 116.29 282.56 116.34 282.41 116.40 282.26 116.49 282.13 116.58 282.00 116.69 281.89 116.81 281.79 116.95 281.71 117.09 281.64 117.24 281.60 117.39 281.56 117.55 281.56 117.71 281.55 117.86 281.59 118.02 281.63 118.16 281.70 118.30 281.77 118.42 281.87 118.54 281.98 118.63 282.11 118.72 282.24 118.78 282.38 118.83 282.53 118.85 282.69 118.88 282.84 119.00 284.86 119.12 286.88 119.10 288.73 119.07 290.57 119.05 290.75 119.03 290.93 118.96 291.10 118.90 291.27 118.80 291.42 118.69 291.57 118.56 291.69 118.42 291.81 118.26 291.89 118.10 291.98 117.92 292.02 117.75 292.07 117.56 292.07 117.38 292.07 117.21 292.02 117.03 291.98 116.87 291.89 116.71 291.81 116.57 291.69 116.43 291.57 116.33 291.42 116.23 291.27 116.16 291.10 116.10 290.93 116.08 290.75 116.06 290.57 116.21 288.40 116.36 286.23 116.26 285.45 116.16 284.67 116.18 284.51 116.20 284.34 116.26 284.18 116.32 284.02 116.42 283.88 116.51 283.74 116.64 283.63 116.77 283.52 116.92 283.44 117.07 283.36 117.23 283.32 117.39 283.28 117.56 283.28 117.73 283.28 117.90 283.32 118.06 283.36 118.21 283.44 118.36 283.52 118.49 283.63 118.61 283.74 118.71 283.88 118.81 284.02 118.87 284.18 118.93 284.34 118.95 284.51 118.97 284.67 119.04 286.77 119.12 288.86 119.07 290.37 119.01 291.88 118.99 292.06 118.97 292.23 118.91 292.39 118.84 292.56 118.75 292.70 118.65 292.84 118.52 292.96 118.39 293.07 118.23 293.15 118.08 293.24 117.91 293.28 117.74 293.32 117.56 293.32 117.39 293.32 117.22 293.28 117.05 293.24 116.90 293.15 116.74 293.07 116.61 292.96 116.48 292.84 116.38 292.70 116.28 292.56 116.22 292.39 116.16 292.23 116.14 292.06 116.12 291.88 115.88 289.61 115.64 287.33 115.51 286.01 115.38 284.69 115.40 284.50 115.42 284.32 115.49 284.15 115.55 283.98 115.66 283.82 115.76 283.67 115.90 283.55 116.04 283.43 116.20 283.34 116.36 283.26 116.54 283.21 116.72 283.17 116.91 283.17 117.09 283.17 117.27 283.21 117.45 283.26 117.61 283.34 117.78 283.43 117.91 283.55 118.05 283.67 118.16 283.82 118.26 283.98 118.33 284.15 118.39 284.32 118.41 284.50 118.44 284.69 118.51 286.94 118.59 289.19 118.57 290.86 118.54 292.53 118.52 292.73 118.50 292.93 118.43 293.11 118.36 293.30 118.24 293.46 118.13 293.62 117.98 293.75 117.84 293.88 117.66 293.97 117.49 294.06 117.30 294.11 117.10 294.16 116.91 294.16 116.71 294.16 116.52 294.11 116.33 294.06 116.15 293.97 115.98 293.88 115.83 293.75 115.68 293.62 115.57 293.46 115.46 293.29 115.39 293.11 115.32 292.93 115.29 292.73 115.27 292.53 115.06 290.43 114.85 288.32 114.76 286.32 114.67 284.31 114.62 284.17 114.56 284.03 114.58 283.83 114.61 283.63 114.68 283.43 114.75 283.24 114.87 283.08 114.98 282.91 115.14 282.77 115.29 282.64 115.47 282.54 115.65 282.45 115.85 282.40 116.05 282.35 116.25 282.35 116.45 282.35 116.65 282.40 116.85 282.45 117.03 282.54 117.21 282.64 117.36 282.77 117.51 282.91 117.63 283.08 117.75 283.24 117.82 283.43 117.89 283.62 117.92 283.83 117.94 284.03 118.01 286.11 118.09 288.20 118.02 289.72 117.95 291.23 117.93 291.43 117.90 291.64 117.83 291.83 117.76 292.02 117.64 292.19 117.53 292.36 117.37 292.50 117.22 292.63 117.04 292.73 116.85 292.82 116.65 292.87 116.46 292.92 116.25 292.92 116.04 292.92 115.85 292.87 115.65 292.82 115.46 292.73 115.28 292.63 115.13 292.50 114.97 292.36 114.86 292.19 114.74 292.02 114.67 291.83 114.60 291.64 114.57 291.43 114.55 291.23 114.38 288.68 114.22 286.12 114.03 285.41 113.84 284.71 113.86 284.50 113.89 284.29 113.96 284.09 114.03 283.89 114.14 283.71 114.26 283.54 114.41 283.39 114.57 283.25 114.75 283.15 114.94 283.05 115.14 282.99 115.34 282.94 115.55 282.93 115.77 282.93 115.97 282.97 116.18 283.02 116.37 283.11 116.56 283.21 116.72 283.34 116.88 283.48 117.00 283.65 117.12 283.82 117.20 284.02 117.28 284.21 117.31 284.42 117.34 284.63 117.39 286.80 117.44 288.97 117.25 290.09 117.07 291.22 117.05 291.40 117.03 291.57 116.96 291.74 116.90 291.90 116.80 292.05 116.70 292.20 116.56 292.32 116.43 292.43 116.27 292.52 116.12 292.60 115.94 292.64 115.77 292.68 115.59 292.68 115.42 292.68 115.24 292.64 115.07 292.60 114.91 292.52 114.76 292.43 114.62 292.32 114.49 292.20 114.39 292.05 114.29 291.90 114.22 291.74 114.16 291.57 114.14 291.40 114.12 291.22 114.24 289.10 114.36 286.97 114.25 286.51 114.14 286.04 114.16 285.86 114.18 285.69 114.24 285.53 114.31 285.36 114.41 285.22 114.51 285.07 114.64 284.96 114.77 284.84 114.92 284.76 115.08 284.68 115.25 284.64 115.42 284.60 115.59 284.60 115.77 284.60 115.94 284.64 116.11 284.68 116.26 284.76 116.42 284.84 116.55 284.96 116.68 285.07 116.78 285.22 116.88 285.36 116.94 285.53 117.00 285.69 117.02 285.86 117.05 286.04 117.29 287.97 117.54 289.90 117.52 290.05 117.51 290.21 117.45 290.36 117.40 290.50 117.31 290.63 117.23 290.76 117.11 290.86 117.00 290.97 116.86 291.04 116.72 291.12 116.57 291.15 116.42 291.19 116.27 291.20 116.11 291.20 115.96 291.16 115.81 291.13 115.67 291.06 115.53 290.99 115.41 290.88 115.30 290.78 115.21 290.66 115.12 290.53 115.06 290.39 115.00 290.24 114.98 290.09 114.96 289.93 115.60 288.35 116.24 286.76 116.24 286.76 116.25 286.76 116.25 286.76 116.26 286.76 116.90 288.33 117.54 289.90 117.52 290.05 117.51 290.21 117.45 290.36 117.40 290.50 117.31 290.63 117.23 290.76 117.11 290.86 117.00 290.97 116.86 291.04 116.72 291.12 116.57 291.15 116.42 291.19 116.27 291.20 116.11 291.20 115.96 291.16 115.81 291.13 115.67 291.06 115.53 290.99 115.41 290.89 115.30 290.78 115.21 290.66 115.12 290.53 115.06 290.39 115.00 290.24 114.98 290.09 114.96 289.93 114.55 287.99 114.14 286.04 114.16 285.86 114.18 285.69 114.24 285.53 114.31 285.36 114.41 285.22 114.51 285.07 114.64 284.96 114.77 284.84 114.92 284.76 115.08 284.68 115.25 284.64 115.42 284.60 115.59 284.60 115.77 284.60 115.94 284.64 116.11 284.68 116.26 284.76 116.42 284.84 116.55 284.96 116.68 285.07 116.78 285.22 116.88 285.36 116.94 285.53 117.00 285.69 117.02 285.86 117.05 286.04 116.93 286.51 116.82 286.97 116.95 289.10 117.07 291.22 117.05 291.40 117.03 291.57 116.96 291.74 116.90 291.90 116.80 292.05 116.70 292.20 116.56 292.32 116.43 292.43 116.27 292.52 116.12 292.60 115.94 292.64 115.77 292.68 115.59 292.68 115.42 292.68 115.24 292.64 115.07 292.60 114.91 292.52 114.76 292.43 114.62 292.32 114.49 292.20 114.39 292.05 114.29 291.90 114.22 291.74 114.16 291.57 114.14 291.40 114.12 291.22 113.93 290.09 113.75 288.97 113.80 286.84 113.84 284.71 113.86 284.50 113.89 284.29 113.96 284.09 114.03 283.89 114.14 283.71 114.26 283.54 114.41 283.39 114.57 283.25 114.75 283.15 114.94 283.05 115.14 282.99 115.34 282.94 115.55 282.93 115.77 282.93 115.97 282.97 116.18 283.02 116.37 283.11 116.55 283.21 116.72 283.34 116.88 283.48 117.00 283.65 117.12 283.82 117.20 284.02 117.28 284.21 117.31 284.42 117.34 284.63 117.30 285.77 117.25 286.90 117.60 289.07 117.95 291.23 117.93 291.43 117.90 291.64 117.83 291.83 117.76 292.02 117.64 292.19 117.53 292.36 117.37 292.50 117.22 292.63 117.04 292.73 116.85 292.82 116.65 292.87 116.46 292.92 116.25 292.92 116.04 292.92 115.85 292.87 115.65 292.82 115.46 292.73 115.28 292.63 115.13 292.50 114.97 292.36 114.86 292.19 114.74 292.02 114.67 291.83 114.60 291.64 114.57 291.43 114.55 291.23 114.48 289.72 114.41 288.20 114.49 286.12 114.56 284.03 114.58 283.83 114.61 283.63 114.68 283.44 114.75 283.24 114.87 283.08 114.98 282.91 115.14 282.77 115.29 282.64 115.47 282.54 115.65 282.45 115.85 282.40 116.05 282.35 116.25 282.35 116.45 282.35 116.65 282.40 116.85 282.45 117.03 282.54 117.21 282.64 117.36 282.77 117.51 282.91 117.63 283.08 117.75 283.24 117.82 283.43 117.89 283.62 117.92 283.83 117.94 284.03 117.88 284.08 117.83 284.13 117.79 286.15 117.75 288.17 118.15 290.35 118.54 292.53 118.52 292.73 118.50 292.93 118.43 293.11 118.36 293.29 118.24 293.46 118.13 293.62 117.98 293.75 117.84 293.88 117.66 293.97 117.49 294.06 117.30 294.11 117.10 294.16 116.91 294.16 116.71 294.16 116.52 294.11 116.33 294.06 116.15 293.97 115.98 293.88 115.83 293.75 115.68 293.62 115.57 293.46 115.46 293.30 115.39 293.11 115.32 292.93 115.29 292.73 115.27 292.53 115.25 290.86 115.22 289.19 115.30 286.94 115.38 284.69 115.40 284.50 115.42 284.32 115.49 284.15 115.55 283.98 115.66 283.82 115.76 283.67 115.90 283.55 116.04 283.43 116.20 283.34 116.36 283.26 116.54 283.21 116.72 283.17 116.91 283.17 117.09 283.17 117.27 283.21 117.45 283.26 117.61 283.34 117.78 283.43 117.91 283.55 118.05 283.67 118.16 283.82 118.26 283.98 118.33 284.15 118.39 284.32 118.41 284.50 118.44 284.69 118.31 285.99 118.19 287.30 118.60 289.59 119.01 291.88 118.99 292.06 118.97 292.23 118.91 292.39 118.84 292.56 118.75 292.70 118.65 292.84 118.52 292.96 118.39 293.07 118.23 293.15 118.08 293.24 117.91 293.28 117.74 293.32 117.56 293.32 117.39 293.32 117.22 293.28 117.05 293.24 116.90 293.15 116.74 293.07 116.61 292.96 116.48 292.84 116.38 292.70 116.28 292.56 116.22 292.39 116.16 292.23 116.14 292.06 116.12 291.88 116.06 290.37 116.01 288.86 116.08 286.77 116.16 284.67 116.18 284.51 116.20 284.34 116.26 284.18 116.32 284.02 116.42 283.88 116.51 283.74 116.64 283.63 116.77 283.52 116.92 283.44 117.07 283.36 117.23 283.32 117.39 283.28 117.56 283.28 117.73 283.28 117.90 283.32 118.06 283.36 118.21 283.44 118.36 283.52 118.49 283.63 118.61 283.74 118.71 283.88 118.81 284.02 118.87 284.18 118.93 284.34 118.95 284.51 118.97 284.67 118.87 285.45 118.77 286.23 118.92 288.40 119.07 290.57 119.05 290.75 119.03 290.93 118.96 291.10 118.90 291.27 118.80 291.42 118.69 291.57 118.56 291.69 118.42 291.81 118.26 291.89 118.10 291.98 117.92 292.02 117.75 292.07 117.56 292.07 117.38 292.07 117.21 292.02 117.03 291.98 116.87 291.89 116.71 291.81 116.57 291.69 116.44 291.57 116.33 291.42 116.23 291.27 116.16 291.10 116.10 290.93 116.08 290.75 116.06 290.57 116.03 288.73 116.00 286.88 116.13 284.88 116.26 282.87 116.27 282.71 116.29 282.56 116.34 282.41 116.40 282.26 116.49 282.13 116.58 282.00 116.69 281.89 116.81 281.79 116.95 281.71 117.09 281.64 117.24 281.60 117.39 281.56 117.55 281.56 117.71 281.55 117.86 281.59 118.02 281.63 118.16 281.70 118.30 281.77 118.42 281.87 118.54 281.98 118.63 282.11 118.72 282.24 118.78 282.38 118.83 282.53 118.85 282.69 118.88 282.84 119.10 284.28 119.32 285.71 119.46 287.81 119.60 289.92 119.58 290.08 119.56 290.25 119.49 290.40 119.43 290.55 119.33 290.69 119.24 290.83 119.11 290.93 118.98 291.04 118.83 291.12 118.68 291.19 118.52 291.23 118.36 291.26 118.19 291.26 118.02 291.26 117.86 291.21 117.70 291.17 117.56 291.09 117.41 291.01 117.29 290.89 117.17 290.78 117.07 290.64 116.98 290.50 116.93 290.34 116.87 290.19 116.85 290.02 116.84 289.85 116.78 288.46 116.72 287.06 117.64 284.95 118.56 282.83 118.48 282.70 118.40 282.57 118.35 282.43 118.31 282.29 118.30 282.13 118.29 281.98 118.31 281.83 118.34 281.68 118.40 281.55 118.46 281.41 118.55 281.29 118.65 281.17 118.76 281.07 118.88 280.98 119.02 280.91 119.16 280.85 119.31 280.82 119.46 280.79 119.61 280.80 119.76 280.81 119.90 280.85 120.05 280.90 120.18 280.97 120.31 281.05 120.42 281.16 120.53 281.26 120.85 282.17 121.18 283.07 121.61 285.18 122.04 287.28 122.02 287.43 122.01 287.57 121.96 287.70 121.90 287.84 121.82 287.96 121.74 288.08 121.63 288.17 121.52 288.27 121.40 288.33 121.27 288.40 121.13 288.43 120.99 288.47 120.84 288.47 120.70 288.47 120.56 288.43 120.42 288.40 120.29 288.33 120.17 288.26 120.06 288.17 119.95 288.07 119.87 287.95 119.79 287.83 119.74 287.70 119.69 287.56 119.67 287.42 119.65 287.28 119.70 285.86 119.75 284.44 120.58 282.53 121.41 280.62 123.48 280.18 125.55 279.74 127.19 281.68 128.84 283.62 129.05 285.75 129.26 287.89 129.23 288.11 129.20 288.33 129.12 288.53 129.04 288.74 128.91 288.92 128.78 289.10 128.62 289.25 128.45 289.40 128.25 289.50 128.05 289.60 127.84 289.65 127.62 289.70 127.40 289.70 127.18 289.70 126.96 289.64 126.75 289.59 126.55 289.48 126.36 289.38 126.19 289.23 126.03 289.08 125.90 288.90 125.78 288.71 125.70 288.50 125.62 288.30 125.60 288.08 125.57 287.86 125.47 287.15 125.37 286.45 125.96 283.93 126.55 281.41 128.69 281.08 130.84 280.75 130.74 283.21 130.64 285.66 130.82 285.76 131.00 285.87 131.16 286.01 131.31 286.15 131.42 286.33 131.54 286.50 131.61 286.70 131.68 286.90 131.69 287.10 131.71 287.31 131.68 287.52 131.65 287.72 131.57 287.92 131.50 288.11 131.37 288.28 131.25 288.45 131.09 288.58 130.93 288.72 130.74 288.81 130.55 288.90 130.35 288.95 130.15 288.99 129.94 288.98 129.73 288.98 129.53 288.92 129.33 288.87 128.34 288.03 127.36 287.20 127.47 284.57 127.58 281.94 127.47 281.78 127.36 281.61 127.29 281.42 127.22 281.23 127.20 281.03 127.18 280.83 127.21 280.63 127.24 280.43 127.31 280.25 127.39 280.06 127.50 279.90 127.62 279.73 127.77 279.60 127.93 279.47 128.11 279.38 128.29 279.29 128.48 279.25 128.68 279.20 128.88 279.21 129.08 279.21 129.27 279.26 129.47 279.31 129.64 279.41 129.82 279.51 129.97 279.64 130.12 279.78 130.20 279.87 130.28 279.97 130.70 282.54 131.13 285.10 130.30 287.05 129.48 289.00 127.33 288.40 125.17 287.80 125.15 284.96 125.13 282.12 126.59 280.21 128.05 278.31 129.70 279.78 131.36 281.26 130.54 283.31 129.72 285.35 128.03 286.78 126.33 288.21 125.31 285.77 124.28 283.33 124.92 281.08 125.55 278.83 127.58 278.31 129.60 277.79 131.64 279.42 133.68 281.05 135.12 282.68 136.55 284.32 136.57 284.55 136.58 284.79 136.53 285.02 136.49 285.25 136.39 285.46 136.29 285.67 136.15 285.86 136.00 286.04 135.82 286.18 135.63 286.32 135.41 286.42 135.20 286.51 134.97 286.55 134.74 286.59 134.50 286.58 134.27 286.56 134.05 286.49 133.82 286.42 133.62 286.29 133.43 286.17 133.26 286.00 133.10 285.84 132.98 285.64 132.86 285.43 132.79 285.21 132.72 284.99 132.61 285.04 132.50 285.10 131.64 283.19 130.77 281.29 130.01 279.39 129.25 277.48 128.11 275.54 126.96 273.59 126.83 273.35 126.69 273.12 126.61 272.86 126.53 272.60 126.52 272.33 126.51 272.05 126.56 271.79 126.61 271.52 126.73 271.28 126.84 271.03 127.01 270.82 127.18 270.61 127.40 270.44 127.62 270.28 127.87 270.17 128.11 270.06 128.38 270.01 128.65 269.97 128.92 269.99 129.19 270.01 129.45 270.09 129.71 270.18 129.94 270.32 130.17 270.47 130.36 270.66 130.55 270.85 131.20 271.95 131.85 273.05 133.10 274.95 134.35 276.85 135.49 278.88 136.63 280.92 136.81 281.18 137.00 281.45 137.11 281.75 137.22 282.05 137.26 282.37 137.30 282.68 137.26 283.00 137.23 283.32 137.11 283.62 137.00 283.92 136.82 284.19 136.63 284.45 136.39 284.67 136.15 284.88 135.87 285.03 135.58 285.18 135.27 285.26 134.96 285.33 134.64 285.33 134.32 285.34 134.00 285.26 133.69 285.18 133.41 285.03 133.12 284.88 132.88 284.67 132.64 284.46 132.43 284.30 132.23 284.15 130.92 282.35 129.62 280.54 128.43 278.61 127.24 276.68 125.93 274.55 124.63 272.41 123.82 270.44 123.01 268.47 123.03 268.18 123.04 267.88 123.12 267.60 123.21 267.32 123.36 267.07 123.51 266.81 123.71 266.60 123.92 266.39 124.17 266.24 124.42 266.08 124.70 265.99 124.98 265.90 125.28 265.88 125.57 265.86 125.86 265.91 126.15 265.96 126.42 266.07 126.69 266.19 126.92 266.37 127.16 266.55 127.34 266.78 127.53 267.01 127.65 267.28 127.77 267.55 127.83 267.83 127.89 268.12 128.55 269.33 129.22 270.53 130.02 273.14 130.82 275.75 131.81 277.96 132.79 280.17 133.48 282.14 134.17 284.10 134.19 284.45 134.22 284.79 134.16 285.13 134.10 285.47 133.96 285.79 133.82 286.10 133.61 286.38 133.40 286.65 133.13 286.87 132.86 287.08 132.54 287.23 132.23 287.37 131.89 287.44 131.55 287.50 131.20 287.49 130.86 287.47 130.53 287.37 130.20 287.27 129.90 287.09 129.60 286.91 129.35 286.67 129.11 286.43 128.93 286.13 128.75 285.84 128.64 285.51 128.53 285.18 128.19 285.14 127.84 285.09 126.94 283.30 126.04 281.50 124.99 279.74 123.93 277.97 122.80 275.13 121.66 272.28 120.84 269.96 120.01 267.64 121.87 266.55 123.72 265.45 124.18 268.30 124.64 271.14 124.64 273.71 124.63 276.28 124.62 279.19 124.61 282.09 124.62 284.13 124.63 286.16 124.71 288.37 124.78 290.57 124.74 290.89 124.70 291.20 124.59 291.50 124.48 291.79 124.30 292.05 124.12 292.31 123.89 292.52 123.65 292.73 123.37 292.88 123.09 293.02 122.78 293.10 122.48 293.17 122.16 293.17 121.85 293.17 121.54 293.10 121.23 293.02 120.95 292.88 120.67 292.73 120.44 292.52 120.20 292.31 120.02 292.05 119.84 291.79 119.73 291.50 119.62 291.20 119.58 290.89 119.54 290.57 119.41 289.85 119.28 289.13 119.28 287.09 119.27 285.06 119.29 283.05 119.30 281.04 119.28 278.85 119.27 276.67 119.17 274.67 119.07 272.67 118.80 269.87 118.52 267.07 118.02 264.90 117.51 262.72 117.51 262.39 117.50 262.06 117.57 261.75 117.64 261.43 117.79 261.14 117.93 260.85 118.14 260.60 118.36 260.35 118.62 260.16 118.88 259.97 119.19 259.84 119.49 259.72 119.81 259.68 120.13 259.63 120.46 259.66 120.78 259.69 121.09 259.80 121.40 259.91 121.67 260.09 121.94 260.27 122.16 260.51 122.38 260.75 122.54 261.03 122.70 261.32 122.78 261.63 122.87 261.95 122.61 262.02 122.35 262.10 122.74 264.63 123.12 267.17 123.38 269.23 123.63 271.28 123.99 273.37 124.34 275.45 124.93 277.70 125.52 279.94 125.86 281.96 126.20 283.97 126.44 286.28 126.67 288.60 126.65 288.83 126.62 289.05 126.54 289.26 126.46 289.48 126.33 289.66 126.20 289.85 126.03 290.00 125.86 290.15 125.66 290.26 125.46 290.37 125.24 290.42 125.02 290.48 124.79 290.48 124.56 290.48 124.34 290.42 124.12 290.37 123.92 290.26 123.72 290.16 123.55 290.01 123.38 289.86 123.25 289.67 123.12 289.48 123.04 289.27 122.96 289.06 122.93 288.83 122.90 288.61 122.44 287.11 121.97 285.61 121.32 283.66 120.67 281.71 120.38 279.71 120.09 277.71 119.68 275.36 119.27 273.00 118.65 270.06 118.02 267.13 118.77 266.37 119.52 265.62 119.53 265.62 Z"></path><path fill="#ffca3a" d="M 120.86 253.14 Q 120.86 253.14 121.33 254.09 121.80 255.04 120.71 256.92 119.62 258.80 118.45 260.69 117.29 262.58 115.88 264.46 114.48 266.33 112.77 267.27 111.05 268.20 111.05 268.19 111.05 268.19 111.04 268.19 111.04 268.18 112.56 265.23 114.07 262.28 115.18 260.48 116.29 258.69 117.72 256.47 119.14 254.25 119.99 253.69 120.84 253.14 120.85 253.14 Z"></path><path fill="#ffca3a" d="M 126.75 262.98 Q 126.75 262.98 126.45 262.31 126.16 261.63 126.24 261.55 126.32 261.47 126.45 261.37 126.58 261.27 126.73 261.20 126.88 261.13 127.05 261.10 127.21 261.07 127.38 261.08 127.55 261.09 127.71 261.14 127.86 261.19 128.01 261.28 128.15 261.36 128.27 261.48 128.39 261.60 128.47 261.74 128.56 261.88 128.61 262.04 128.66 262.20 128.67 262.37 128.68 262.53 128.65 262.70 128.62 262.86 128.55 263.02 128.48 263.17 128.38 263.30 128.28 263.43 126.94 265.51 125.60 267.59 124.09 269.49 122.57 271.38 120.99 272.62 119.40 273.86 116.86 275.31 114.31 276.76 114.31 276.76 114.31 276.76 114.30 276.75 114.30 276.75 114.85 275.22 115.39 273.70 116.89 272.20 118.39 270.69 120.17 269.48 121.95 268.27 123.17 266.65 124.40 265.03 125.36 263.25 126.32 261.47 126.45 261.37 126.58 261.27 126.73 261.20 126.88 261.13 127.05 261.10 127.21 261.07 127.38 261.08 127.55 261.09 127.71 261.14 127.86 261.19 128.01 261.27 128.15 261.36 128.27 261.48 128.39 261.60 128.47 261.74 128.56 261.88 128.61 262.04 128.66 262.20 128.67 262.37 128.68 262.53 128.65 262.70 128.62 262.86 128.55 263.02 128.48 263.17 128.38 263.30 128.28 263.43 128.20 263.51 128.12 263.59 127.44 263.29 126.77 263.00 126.76 262.99 Z"></path><path fill="#ffca3a" d="M 130.71 270.22 Q 130.71 270.22 131.28 271.16 131.84 272.10 130.90 274.41 129.96 276.71 128.77 278.32 127.58 279.93 125.95 281.30 124.33 282.66 122.71 284.14 121.09 285.61 118.04 286.78 114.99 287.95 114.99 287.94 114.99 287.94 114.99 287.93 114.99 287.93 115.83 286.16 116.67 284.40 118.30 283.07 119.93 281.75 121.54 280.40 123.14 279.05 124.79 277.49 126.45 275.94 127.62 273.64 128.80 271.34 129.74 270.78 130.69 270.21 130.70 270.21 Z"></path><path fill="#ffca3a" d="M 138.59 274.82 Q 138.59 274.82 138.60 275.58 138.61 276.35 137.60 278.20 136.60 280.05 134.86 282.06 133.12 284.07 131.47 285.55 129.82 287.03 127.79 288.65 125.76 290.27 123.71 291.44 121.66 292.62 119.71 293.22 117.77 293.82 116.50 294.45 115.23 295.08 115.23 295.07 115.23 295.07 115.22 295.06 115.22 295.06 115.84 293.60 116.46 292.14 118.08 290.91 119.70 289.69 121.53 288.22 123.35 286.76 125.40 285.40 127.45 284.03 129.05 282.81 130.65 281.58 132.57 279.92 134.49 278.25 135.77 276.52 137.04 274.79 137.81 274.80 138.57 274.80 138.58 274.81 Z"></path><path fill="#ffca3a" d="M 131.35 271.52 Q 131.35 271.52 131.72 270.77 132.10 270.01 132.11 270.01 132.11 270.02 132.12 270.02 132.12 270.02 131.74 270.78 131.36 271.53 131.36 271.53 Z"></path><path fill="#ffca3a" d="M 109.02 245.27 Q 109.02 245.27 108.23 245.76 107.43 246.26 107.02 246.19 106.62 246.12 106.45 246.04 106.27 245.96 106.13 245.84 105.98 245.72 105.86 245.57 105.75 245.41 105.67 245.24 105.60 245.06 105.57 244.87 105.54 244.69 105.55 244.50 105.57 244.31 105.63 244.12 105.69 243.94 105.79 243.78 105.89 243.62 106.03 243.49 106.17 243.36 106.33 243.26 106.50 243.17 106.68 243.11 106.86 243.06 107.06 243.05 107.25 243.04 107.43 243.08 107.62 243.12 109.52 244.31 111.42 245.51 113.02 246.82 114.63 248.13 116.08 250.28 117.52 252.42 117.52 252.43 117.51 252.43 117.51 252.43 117.51 252.44 115.61 252.19 113.71 251.94 111.96 250.72 110.21 249.50 108.42 247.81 106.62 246.12 106.45 246.04 106.27 245.96 106.13 245.84 105.98 245.72 105.86 245.57 105.75 245.41 105.67 245.24 105.60 245.06 105.57 244.87 105.54 244.69 105.55 244.50 105.57 244.31 105.63 244.12 105.69 243.94 105.79 243.78 105.89 243.62 106.03 243.49 106.17 243.36 106.33 243.26 106.50 243.17 106.68 243.11 106.86 243.06 107.06 243.05 107.25 243.04 107.43 243.08 107.62 243.12 107.99 243.31 108.35 243.49 108.69 244.37 109.03 245.25 109.03 245.26 Z"></path><path fill="#ffca3a" d="M 115.60 240.66 Q 115.60 240.66 116.17 241.89 116.74 243.12 115.95 245.28 115.16 247.45 114.44 249.65 113.73 251.84 112.34 253.47 110.95 255.10 110.95 255.10 110.95 255.11 110.95 255.11 110.95 255.12 110.69 252.30 110.44 249.48 111.01 247.33 111.57 245.19 112.25 243.21 112.94 241.22 114.26 240.94 115.58 240.65 115.59 240.66 Z"></path><path fill="#ffca3a" d="M 118.88 245.27 Q 118.88 245.27 118.32 246.24 117.76 247.21 115.52 248.88 113.28 250.56 110.27 251.77 107.27 252.97 104.55 253.03 101.83 253.09 101.82 253.09 101.82 253.08 101.81 253.08 101.81 253.08 105.30 250.47 108.79 247.86 110.97 247.01 113.16 246.15 115.07 245.11 116.97 244.06 117.92 244.65 118.87 245.25 118.88 245.26 Z"></path><path fill="#ff595e" d="M 243.00 305.69 Q 243.00 305.69 242.37 306.00 241.75 306.32 241.01 305.47 240.28 304.62 240.28 304.45 240.27 304.28 240.31 304.11 240.35 303.94 240.43 303.78 240.50 303.63 240.62 303.50 240.73 303.37 240.87 303.26 241.01 303.16 241.17 303.10 241.33 303.03 241.50 303.01 241.67 302.98 241.85 303.00 242.02 303.02 242.18 303.08 242.34 303.14 242.49 303.23 242.63 303.33 242.75 303.45 242.87 303.58 242.95 303.73 243.03 303.88 243.08 304.05 243.12 304.22 243.81 302.31 244.50 300.40 246.18 299.11 247.87 297.82 249.49 296.46 251.11 295.09 252.99 293.82 254.87 292.56 256.97 291.38 259.07 290.21 260.68 288.80 262.30 287.38 263.86 286.07 265.42 284.75 267.41 283.72 269.40 282.70 271.26 281.61 273.12 280.51 275.37 279.06 277.62 277.61 279.79 276.21 281.97 274.80 283.82 274.02 285.67 273.24 286.45 272.75 287.23 272.26 287.48 272.08 287.73 271.90 288.02 271.78 288.31 271.67 288.62 271.62 288.92 271.58 289.23 271.61 289.54 271.64 289.84 271.74 290.13 271.85 290.39 272.02 290.65 272.19 290.86 272.42 291.07 272.64 291.22 272.92 291.37 273.19 291.45 273.49 291.53 273.79 291.54 274.10 291.55 274.41 291.48 274.71 291.41 275.02 291.27 275.29 291.14 275.57 290.94 275.81 290.73 276.05 288.75 276.67 286.76 277.29 285.09 278.57 283.41 279.86 281.48 281.00 279.54 282.15 277.18 283.52 274.82 284.89 273.07 286.12 271.31 287.36 269.40 288.20 267.48 289.05 265.42 289.96 263.35 290.87 261.73 292.17 260.11 293.47 257.85 294.84 255.60 296.21 253.55 297.34 251.50 298.46 249.93 299.85 248.37 301.24 246.67 302.40 244.96 303.56 243.62 305.07 242.28 306.59 241.59 306.13 240.90 305.67 240.90 305.68 240.90 305.68 240.90 305.69 240.90 305.69 240.09 304.27 239.28 302.86 240.91 301.57 242.53 300.29 244.02 298.62 245.51 296.95 247.28 295.46 249.05 293.98 251.08 293.00 253.11 292.03 255.10 290.72 257.09 289.41 259.37 287.73 261.64 286.05 263.59 285.54 265.53 285.02 267.82 283.76 270.11 282.49 271.75 281.22 273.39 279.95 276.04 278.34 278.69 276.73 281.01 276.03 283.32 275.34 285.28 273.80 287.23 272.26 287.48 272.08 287.73 271.90 288.02 271.78 288.31 271.67 288.62 271.62 288.92 271.58 289.23 271.61 289.54 271.64 289.84 271.74 290.13 271.85 290.39 272.02 290.65 272.19 290.86 272.42 291.07 272.64 291.22 272.92 291.37 273.19 291.45 273.49 291.53 273.79 291.54 274.10 291.55 274.41 291.48 274.71 291.41 275.02 291.27 275.29 291.14 275.57 290.94 275.81 290.74 276.05 289.04 277.05 287.34 278.06 285.05 279.05 282.75 280.05 280.68 281.47 278.60 282.89 276.77 284.12 274.93 285.36 273.08 286.48 271.24 287.60 269.24 288.80 267.25 290.00 265.29 291.29 263.32 292.58 261.42 293.49 259.51 294.39 257.78 295.71 256.05 297.03 254.09 298.19 252.13 299.34 250.17 300.74 248.21 302.13 246.63 303.36 245.05 304.59 242.67 304.61 240.28 304.62 240.28 304.45 240.27 304.28 240.31 304.11 240.35 303.94 240.43 303.78 240.50 303.63 240.62 303.50 240.73 303.37 240.87 303.26 241.01 303.16 241.17 303.10 241.33 303.03 241.50 303.01 241.67 302.98 241.85 303.00 242.02 303.02 242.18 303.08 242.34 303.14 242.49 303.23 242.63 303.33 242.75 303.45 242.87 303.58 242.95 303.73 243.03 303.88 243.08 304.05 243.12 304.22 242.94 304.25 242.76 304.29 242.89 304.98 243.01 305.67 243.01 305.68 Z"></path><path fill="#ffca3a" d="M 298.84 261.01 Q 298.84 261.01 299.81 260.50 300.78 259.99 302.50 261.28 304.22 262.57 305.80 264.11 307.38 265.65 307.70 267.00 308.02 268.35 308.02 268.35 308.03 268.35 308.03 268.35 308.04 268.35 305.63 267.35 303.23 266.34 301.57 264.57 299.91 262.80 299.37 261.92 298.83 261.03 298.83 261.02 Z"></path><path fill="#ffca3a" d="M 304.74 259.04 Q 304.74 259.04 304.38 258.31 304.02 257.57 304.17 257.45 304.32 257.34 304.49 257.26 304.66 257.18 304.84 257.15 305.03 257.12 305.22 257.13 305.40 257.14 305.58 257.19 305.76 257.25 305.92 257.35 306.08 257.44 306.22 257.58 306.35 257.71 306.45 257.87 306.54 258.03 306.60 258.21 306.66 258.39 306.67 258.58 306.68 258.77 306.65 258.95 306.61 259.13 306.53 259.31 306.46 259.48 306.34 259.63 306.23 259.77 305.36 261.77 304.49 263.76 302.77 265.83 301.05 267.90 300.25 268.13 299.46 268.36 299.46 268.36 299.47 268.36 299.47 268.36 299.48 268.36 299.00 266.87 298.52 265.37 300.04 263.77 301.57 262.16 302.79 259.86 304.02 257.57 304.17 257.45 304.32 257.34 304.49 257.26 304.66 257.18 304.84 257.15 305.03 257.12 305.22 257.13 305.40 257.14 305.58 257.19 305.76 257.25 305.92 257.35 306.08 257.44 306.22 257.58 306.35 257.71 306.45 257.87 306.54 258.03 306.60 258.21 306.66 258.39 306.67 258.58 306.68 258.77 306.65 258.95 306.61 259.13 306.53 259.31 306.46 259.48 306.34 259.63 306.23 259.77 305.49 259.41 304.75 259.06 304.75 259.05 Z"></path><path fill="#ffca3a" d="M 308.68 260.37 Q 308.68 260.37 307.75 260.91 306.81 261.45 304.36 262.24 301.91 263.03 299.85 263.87 297.79 264.72 296.02 264.52 294.24 264.31 294.24 264.31 294.24 264.30 294.24 264.30 294.24 264.29 296.33 262.60 298.42 260.91 300.98 260.00 303.55 259.09 305.55 258.81 307.54 258.52 308.11 259.44 308.69 260.35 308.69 260.36 Z"></path><path fill="#ffca3a" d="M 299.50 257.07 Q 299.50 257.07 300.73 256.76 301.97 256.45 303.65 257.98 305.33 259.52 305.40 261.61 305.47 263.69 305.05 265.21 304.64 266.73 304.63 266.74 304.63 266.74 304.62 266.74 304.62 266.74 303.52 264.82 302.41 262.91 301.60 261.06 300.79 259.22 300.14 258.15 299.49 257.09 299.49 257.08 Z"></path><path fill="#ffca3a" d="M 318.54 272.83 Q 318.54 272.83 320.18 273.17 321.82 273.50 323.96 275.18 326.10 276.85 327.60 278.32 329.10 279.78 330.05 280.31 331.00 280.84 331.00 280.84 331.01 280.84 331.01 280.84 331.02 280.84 328.52 281.05 326.02 281.25 324.51 279.85 322.99 278.46 321.39 277.21 319.78 275.95 319.16 274.40 318.53 272.85 318.54 272.84 Z"></path><path fill="#ffca3a" d="M 326.42 272.17 Q 326.42 272.17 326.85 271.59 327.28 271.00 327.49 270.83 327.70 270.65 327.83 270.63 327.95 270.60 328.08 270.61 328.20 270.61 328.32 270.65 328.45 270.68 328.55 270.75 328.66 270.81 328.76 270.90 328.85 270.98 328.91 271.09 328.98 271.20 329.02 271.32 329.06 271.44 329.07 271.56 329.08 271.69 329.06 271.81 329.04 271.94 328.99 272.05 328.94 272.17 328.87 272.27 328.79 272.37 328.69 272.45 328.59 272.53 328.48 272.59 328.37 272.64 326.85 274.24 325.32 275.85 323.64 276.96 321.96 278.06 319.60 279.71 317.24 281.36 317.23 281.35 317.23 281.35 317.22 281.35 317.22 281.35 318.45 278.26 319.67 275.16 321.41 274.03 323.14 272.91 325.42 271.78 327.70 270.65 327.83 270.63 327.95 270.60 328.08 270.61 328.20 270.61 328.32 270.65 328.45 270.68 328.55 270.75 328.66 270.81 328.75 270.90 328.85 270.98 328.91 271.09 328.98 271.20 329.02 271.32 329.06 271.44 329.07 271.56 329.08 271.69 329.06 271.81 329.04 271.94 328.99 272.05 328.94 272.17 328.87 272.27 328.79 272.37 328.69 272.45 328.59 272.53 328.48 272.59 328.37 272.64 328.09 272.63 327.82 272.61 327.12 272.40 326.42 272.19 326.42 272.18 Z"></path><path fill="#ffca3a" d="M 313.94 273.49 Q 313.94 273.49 314.90 272.86 315.86 272.23 317.81 272.95 319.76 273.66 321.90 273.96 324.03 274.26 327.17 275.52 330.31 276.77 330.31 276.78 330.31 276.78 330.31 276.79 330.31 276.79 326.79 277.40 323.27 278.01 321.22 277.62 319.18 277.24 317.11 276.38 315.04 275.52 314.49 274.51 313.94 273.51 313.94 273.50 Z"></path><path fill="#ffca3a" d="M 343.50 265.61 Q 343.50 265.61 344.83 265.41 346.15 265.22 348.24 266.44 350.34 267.67 352.58 268.94 354.82 270.21 355.72 271.52 356.63 272.83 356.63 272.84 356.63 272.84 356.63 272.85 356.63 272.85 354.16 273.01 351.70 273.17 349.47 271.83 347.24 270.49 345.55 269.39 343.86 268.28 343.67 266.95 343.49 265.62 343.50 265.62 Z"></path><path fill="#ffca3a" d="M 355.32 263.66 Q 355.32 263.66 355.03 264.96 354.74 266.27 352.91 267.32 351.09 268.37 349.51 269.79 347.94 271.21 345.39 273.01 342.85 274.81 342.84 274.81 342.84 274.81 342.83 274.81 342.83 274.81 342.64 272.78 342.45 270.75 344.18 268.75 345.91 266.74 347.49 265.52 349.08 264.30 350.98 263.42 352.87 262.53 354.09 263.08 355.31 263.64 355.32 263.65 Z"></path><path fill="#ffca3a" d="M 344.80 261.01 Q 344.80 261.01 344.81 260.07 344.81 259.13 345.59 258.85 346.38 258.56 346.60 258.56 346.82 258.55 347.04 258.60 347.25 258.66 347.45 258.76 347.65 258.86 347.81 259.00 347.98 259.15 348.11 259.33 348.24 259.51 348.32 259.72 348.40 259.92 348.43 260.14 348.46 260.36 348.43 260.58 348.41 260.80 348.33 261.01 348.26 261.22 348.13 261.41 348.01 261.59 347.85 261.74 347.68 261.89 347.49 261.99 347.29 262.10 347.08 262.15 346.86 262.21 348.04 264.04 349.23 265.86 348.92 267.88 348.60 269.90 348.01 272.35 347.42 274.80 347.42 274.80 347.42 274.81 347.41 274.81 347.41 274.82 345.62 273.03 343.82 271.24 344.07 269.05 344.32 266.86 344.43 264.61 344.54 262.37 345.46 260.47 346.38 258.56 346.60 258.56 346.82 258.55 347.04 258.60 347.25 258.66 347.45 258.76 347.65 258.86 347.81 259.00 347.98 259.15 348.11 259.33 348.24 259.51 348.32 259.72 348.40 259.92 348.43 260.14 348.46 260.36 348.43 260.58 348.41 260.80 348.33 261.01 348.26 261.22 348.13 261.41 348.01 261.59 347.85 261.74 347.68 261.89 347.49 261.99 347.29 262.10 347.08 262.15 346.86 262.21 346.59 262.18 346.32 262.15 345.57 261.59 344.81 261.03 344.81 261.02 Z"></path><path fill="#ffca3a" d="M 345.47 282.03 Q 345.47 282.03 346.42 281.26 347.36 280.49 349.57 281.22 351.77 281.94 353.61 282.93 355.44 283.91 357.80 285.05 360.16 286.18 361.34 288.04 362.52 289.91 362.52 289.91 362.52 289.92 362.52 289.92 362.52 289.93 358.73 289.41 354.95 288.89 352.99 287.45 351.03 286.01 349.19 284.79 347.34 283.58 346.41 282.81 345.47 282.05 345.47 282.04 Z"></path><path fill="#ffca3a" d="M 355.98 278.10 Q 355.98 278.10 356.89 278.92 357.80 279.74 356.83 281.54 355.85 283.35 353.97 285.16 352.10 286.96 350.42 288.12 348.74 289.28 347.45 290.51 346.16 291.74 346.15 291.74 346.15 291.73 346.14 291.73 346.14 291.73 347.01 288.74 347.88 285.74 349.45 284.31 351.02 282.87 352.58 281.17 354.14 279.48 355.05 278.79 355.96 278.10 355.97 278.10 Z"></path><path fill="#ffca3a" d="M 352.03 276.79 Q 352.03 276.79 351.13 277.18 350.23 277.56 349.62 277.70 349.00 277.83 348.80 277.75 348.60 277.68 348.43 277.56 348.26 277.44 348.12 277.28 347.98 277.12 347.88 276.93 347.78 276.74 347.73 276.54 347.68 276.33 347.68 276.12 347.68 275.91 347.74 275.71 347.79 275.50 347.89 275.32 347.98 275.13 348.12 274.97 348.27 274.81 348.44 274.69 348.61 274.58 348.81 274.50 349.01 274.43 349.22 274.40 349.43 274.38 349.64 274.40 349.85 274.43 351.04 276.04 352.23 277.66 352.29 280.11 352.36 282.57 352.78 284.70 353.19 286.83 352.93 288.89 352.68 290.95 352.67 290.95 352.67 290.95 352.66 290.95 352.66 290.95 351.03 289.20 349.41 287.46 348.58 285.01 347.76 282.57 348.38 280.20 349.00 277.83 348.80 277.75 348.60 277.68 348.43 277.56 348.26 277.44 348.12 277.28 347.98 277.12 347.88 276.93 347.78 276.74 347.73 276.54 347.68 276.33 347.68 276.12 347.68 275.91 347.74 275.71 347.79 275.50 347.89 275.32 347.98 275.13 348.12 274.97 348.26 274.81 348.44 274.69 348.61 274.58 348.81 274.50 349.01 274.43 349.22 274.40 349.43 274.38 349.64 274.40 349.85 274.43 350.33 274.84 350.81 275.25 351.42 276.01 352.04 276.77 352.03 276.78 Z"></path><path fill="#ffca3a" d="M 359.92 282.05 Q 359.92 282.05 358.78 282.79 357.65 283.54 354.99 284.23 352.32 284.92 348.90 285.38 345.48 285.83 345.48 285.83 345.47 285.83 345.47 285.83 345.46 285.83 347.22 283.41 348.97 280.98 351.14 280.73 353.31 280.49 355.48 280.51 357.65 280.53 358.78 281.28 359.92 282.03 359.92 282.04 Z"></path><path fill="#ffca3a" d="M 325.11 257.07 Q 325.11 257.07 326.07 256.44 327.03 255.82 329.10 257.03 331.17 258.23 332.73 261.21 334.28 264.18 334.28 264.18 334.27 264.18 334.27 264.18 334.26 264.18 331.93 262.91 329.60 261.63 327.90 260.36 326.21 259.09 325.66 258.09 325.10 257.09 325.11 257.08 Z"></path><path fill="#ffca3a" d="M 334.30 255.77 Q 334.30 255.77 333.82 256.42 333.35 257.07 331.69 258.94 330.04 260.81 328.09 261.92 326.14 263.04 324.32 263.61 322.50 264.18 322.49 264.17 322.49 264.17 322.48 264.17 322.48 264.17 324.15 261.68 325.81 259.19 327.59 258.09 329.36 256.99 331.18 255.72 332.99 254.46 333.64 255.11 334.30 255.75 334.30 255.76 Z"></path><path fill="#ffca3a" d="M 329.06 253.79 Q 329.06 253.79 330.18 254.31 331.30 254.84 330.88 256.85 330.46 258.86 329.70 260.93 328.94 263.00 327.62 264.57 326.31 266.14 326.30 266.15 326.30 266.15 326.30 266.15 326.29 266.16 325.99 262.88 325.68 259.61 326.62 257.69 327.55 255.77 328.29 254.78 329.04 253.80 329.05 253.79 Z"></path><path fill="#6a4c93" d="M 243.66 297.15 Q 243.66 297.15 242.90 297.56 242.13 297.96 240.69 299.55 239.24 301.14 238.85 303.38 238.45 305.62 238.97 307.56 239.48 309.49 241.50 309.30 243.52 309.10 244.68 307.01 245.84 304.91 245.24 302.82 244.64 300.72 243.17 300.17 241.71 299.63 241.70 299.63 241.70 299.63 241.69 299.63 241.69 299.63 242.82 297.61 243.96 295.59 245.79 296.60 247.63 297.61 249.42 300.83 251.21 304.04 250.76 306.22 250.32 308.40 249.15 310.23 247.99 312.07 245.33 313.09 242.67 314.12 240.50 313.74 238.33 313.37 236.44 312.07 234.55 310.78 233.93 308.72 233.31 306.66 234.09 304.71 234.88 302.76 235.11 300.72 235.34 298.68 236.99 297.27 238.65 295.86 240.79 295.71 242.93 295.57 243.30 296.35 243.67 297.13 243.67 297.14 Z"></path><path fill="#6a4c93" d="M 238.41 300.43 Q 238.41 300.43 237.56 300.48 236.71 300.52 239.09 300.13 241.46 299.74 241.19 299.80 240.93 299.87 241.02 299.71 241.11 299.55 241.24 299.41 241.36 299.28 241.52 299.18 241.67 299.08 241.84 299.02 242.02 298.95 242.20 298.94 242.39 298.92 242.57 298.95 242.75 298.98 242.92 299.05 243.09 299.12 243.24 299.22 243.39 299.33 243.51 299.48 243.62 299.62 243.71 299.78 243.79 299.95 243.83 300.13 243.86 300.31 243.86 300.49 243.85 300.68 243.80 300.85 243.76 301.03 242.51 303.04 241.26 305.06 241.14 304.72 241.03 304.39 241.03 304.39 241.04 304.39 241.04 304.39 241.05 304.39 239.91 305.97 238.78 307.54 238.66 305.42 238.55 303.29 239.74 301.58 240.93 299.87 241.02 299.71 241.11 299.55 241.24 299.41 241.36 299.28 241.52 299.18 241.67 299.08 241.84 299.02 242.02 298.96 242.20 298.94 242.39 298.92 242.57 298.95 242.75 298.98 242.92 299.05 243.09 299.12 243.24 299.22 243.39 299.33 243.51 299.48 243.62 299.62 243.71 299.78 243.79 299.95 243.83 300.13 243.86 300.31 243.86 300.49 243.85 300.68 243.80 300.85 243.76 301.03 242.54 301.90 241.33 302.77 239.39 303.35 237.45 303.93 235.94 302.52 234.44 301.10 236.14 299.96 237.84 298.82 238.13 299.62 238.42 300.42 238.41 300.43 Z"></path>
</svg>