<svg width="775" height="436" xmlns="http://www.w3.org/2000/svg" xmlns:xlink="http://www.w3.org/1999/xlink">
<path fill="#6a4c93" d="M 629.85 304.38 Q 629.85 304.38 628.52 304.44 627.19 304.51 625.18 303.78 623.16 303.04 621.02 303.06 618.88 303.09 616.56 303.17 614.24 303.26 610.93 303.69 607.62 304.12 603.81 305.14 600.01 306.16 596.05 307.48 592.09 308.80 589.03 310.04 585.97 311.29 583.89 312.38 581.82 313.47 579.94 314.54 578.05 315.60 575.27 317.90 572.50 320.21 570.70 321.69 568.90 323.17 567.32 325.08 565.73 326.99 564.43 328.59 563.13 330.20 560.80 334.76 558.47 339.33 557.17 343.04 555.86 346.74 555.31 350.15 554.75 353.56 554.93 356.57 555.10 359.57 555.65 362.14 556.19 364.70 557.35 367.53 558.51 370.36 560.43 372.55 562.34 374.73 564.35 376.42 566.36 378.12 569.71 379.78 573.06 381.44 576.55 382.62 580.04 383.79 584.51 384.55 588.98 385.32 593.76 385.56 598.54 385.80 602.98 385.32 607.42 384.83 611.26 384.16 615.10 383.49 617.06 383.06 619.02 382.63 621.72 381.93 624.42 381.23 626.57 380.82 628.73 380.40 630.75 379.85 632.77 379.29 634.84 378.62 636.91 377.95 638.89 377.18 640.86 376.41 643.52 375.21 646.18 374.01 648.14 372.91 650.10 371.80 651.88 370.10 653.67 368.39 656.04 365.84 658.41 363.29 659.82 360.77 661.23 358.25 661.84 356.12 662.46 353.99 662.58 351.98 662.69 349.96 662.49 347.20 662.30 344.45 661.85 341.74 661.40 339.04 660.59 337.00 659.78 334.96 658.70 332.43 657.62 329.90 656.19 328.20 654.76 326.49 652.78 325.17 650.81 323.85 648.47 322.76 646.14 321.68 643.57 320.66 641.00 319.65 638.81 318.89 636.61 318.13 633.87 317.44 631.12 316.75 628.56 316.11 626.00 315.47 623.77 314.70 621.54 313.92 619.20 312.52 616.86 311.13 615.39 309.70 613.93 308.27 611.58 307.76 609.23 307.24 607.41 306.73 605.59 306.22 605.59 306.21 605.58 306.21 605.58 306.21 605.57 306.21 607.95 303.72 610.33 301.24 612.80 301.48 615.28 301.73 618.27 303.23 621.26 304.74 623.10 305.61 624.93 306.47 626.93 307.01 628.93 307.56 631.26 308.23 633.59 308.91 636.42 309.70 639.25 310.48 641.55 311.33 643.85 312.18 646.52 313.21 649.19 314.24 652.03 315.53 654.87 316.82 657.70 318.83 660.53 320.84 662.75 323.87 664.97 326.91 665.91 329.21 666.86 331.51 667.96 334.25 669.06 336.99 669.63 340.21 670.20 343.43 670.29 346.85 670.37 350.28 670.02 352.95 669.68 355.62 668.63 358.60 667.58 361.57 665.43 364.67 663.28 367.77 660.52 370.42 657.76 373.07 655.06 375.19 652.35 377.31 650.52 378.28 648.69 379.25 645.84 380.54 642.99 381.83 640.86 382.68 638.73 383.52 636.62 384.19 634.52 384.87 632.38 385.53 630.24 386.19 628.11 386.57 625.98 386.95 623.29 387.72 620.61 388.48 618.43 389.01 616.26 389.54 612.36 390.29 608.46 391.03 603.42 391.57 598.37 392.11 593.24 391.73 588.10 391.35 583.27 390.45 578.44 389.56 574.53 388.39 570.62 387.22 566.73 385.43 562.83 383.64 560.26 381.48 557.68 379.32 555.69 377.10 553.70 374.89 552.38 372.67 551.06 370.46 550.46 368.37 549.86 366.28 549.26 363.36 548.67 360.44 548.49 356.58 548.32 352.71 549.13 348.80 549.95 344.89 551.47 340.83 553.00 336.76 554.65 333.39 556.31 330.02 557.52 328.21 558.74 326.41 560.71 324.24 562.68 322.08 564.19 320.52 565.70 318.96 567.24 317.68 568.77 316.40 570.46 314.85 572.14 313.30 573.83 312.18 575.52 311.07 577.77 309.82 580.01 308.56 581.91 307.56 583.80 306.55 587.14 305.19 590.48 303.83 594.58 302.64 598.67 301.45 602.80 300.50 606.93 299.56 610.58 299.23 614.24 298.91 617.15 299.00 620.06 299.09 622.38 299.41 624.70 299.73 626.72 300.84 628.73 301.95 629.29 303.16 629.86 304.36 629.85 304.37 Z"></path><path fill="#6a4c93" d="M 594.39 321.45 Q 594.39 321.45 594.44 322.63 594.49 323.81 592.84 323.67 591.19 323.53 591.05 323.36 590.90 323.19 590.80 322.98 590.70 322.78 590.65 322.56 590.60 322.34 590.60 322.11 590.61 321.88 590.67 321.67 590.72 321.45 590.83 321.25 590.94 321.05 591.10 320.88 591.25 320.72 591.44 320.59 591.63 320.47 591.84 320.39 592.06 320.31 592.28 320.29 592.51 320.27 592.73 320.30 592.96 320.33 593.17 320.42 593.38 320.50 593.56 320.64 593.75 320.77 593.64 322.77 593.54 324.78 591.98 326.17 590.43 327.56 592.11 326.17 593.79 324.77 592.13 324.33 590.47 323.89 590.46 323.89 590.46 323.89 590.45 323.89 590.45 323.89 592.99 322.16 595.53 320.44 596.59 322.94 597.65 325.45 596.64 327.62 595.63 329.79 593.59 330.08 591.54 330.37 589.80 328.99 588.07 327.61 588.11 325.13 588.15 322.64 589.54 321.03 590.93 319.42 593.54 319.58 596.14 319.74 597.63 321.46 599.13 323.18 598.44 325.09 597.76 327.00 595.93 328.72 594.11 330.44 591.94 331.16 589.78 331.88 587.37 330.29 584.96 328.69 585.50 326.50 586.05 324.32 587.42 322.39 588.80 320.46 591.31 319.62 593.81 318.79 595.84 319.57 597.87 320.35 597.87 323.28 597.86 326.21 595.91 328.12 593.95 330.04 591.95 329.94 589.94 329.84 589.41 327.05 588.88 324.26 590.64 322.51 592.41 320.75 594.74 321.33 597.07 321.90 596.88 324.24 596.69 326.59 594.26 327.46 591.83 328.33 590.35 326.87 588.87 325.41 589.82 323.41 590.76 321.41 593.03 321.28 595.30 321.15 595.23 323.34 595.16 325.53 593.18 324.53 591.19 323.53 591.05 323.36 590.90 323.19 590.80 322.98 590.70 322.78 590.65 322.56 590.60 322.34 590.60 322.11 590.61 321.88 590.67 321.67 590.72 321.45 590.83 321.25 590.94 321.05 591.10 320.88 591.25 320.72 591.44 320.59 591.63 320.47 591.84 320.39 592.06 320.31 592.28 320.29 592.51 320.27 592.73 320.30 592.96 320.33 593.17 320.42 593.38 320.50 593.56 320.64 593.75 320.77 593.93 320.91 594.11 321.04 595.41 322.56 596.72 324.08 595.18 325.57 593.65 327.07 591.79 326.07 589.93 325.07 590.97 323.21 592.01 321.34 593.20 321.39 594.38 321.44 594.39 321.44 Z"></path><path fill="#6a4c93" d="M 618.68 333.27 Q 618.68 333.27 617.55 333.20 616.42 333.14 614.82 335.03 613.21 336.92 615.30 336.75 617.38 336.57 615.19 336.36 613.00 336.15 612.96 335.64 612.93 335.12 612.92 335.12 612.92 335.12 612.92 335.11 612.91 335.11 615.60 335.17 618.29 335.24 617.35 337.10 616.40 338.96 614.48 339.86 612.55 340.76 611.36 338.74 610.17 336.71 610.89 334.57 611.61 332.42 613.56 331.33 615.52 330.23 617.69 331.21 619.85 332.19 620.75 334.75 621.64 337.32 619.97 339.07 618.30 340.82 616.24 340.92 614.17 341.03 612.85 338.97 611.52 336.92 612.73 334.54 613.93 332.16 615.86 331.49 617.79 330.82 619.87 331.45 621.95 332.07 622.42 334.07 622.90 336.06 621.76 337.95 620.62 339.84 618.88 341.15 617.15 342.46 614.52 342.41 611.89 342.35 610.12 341.15 608.36 339.94 608.28 337.90 608.20 335.87 609.73 334.13 611.26 332.40 613.23 331.09 615.19 329.78 617.32 330.45 619.44 331.13 619.07 332.19 618.69 333.26 618.69 333.26 Z"></path><path fill="#6a4c93" d="M 578.62 354.29 Q 578.62 354.29 577.59 354.15 576.56 354.00 577.50 352.20 578.44 350.40 580.48 349.50 582.52 348.61 585.08 348.36 587.64 348.10 590.07 348.94 592.50 349.78 593.57 351.51 594.64 353.24 594.79 355.33 594.95 357.42 594.34 360.78 593.74 364.13 593.73 364.13 593.73 364.13 593.72 364.13 593.72 364.13 592.70 363.24 591.68 362.34 590.13 360.11 588.58 357.88 588.40 355.81 588.21 353.74 586.13 353.52 584.05 353.29 581.99 353.55 579.93 353.81 579.28 354.04 578.63 354.27 578.62 354.28 Z"></path><path fill="#6a4c93" d="M 598.33 312.90 Q 598.33 312.90 599.29 312.67 600.24 312.45 601.23 313.98 602.21 315.52 602.21 315.52 602.21 315.53 602.21 315.53 602.21 315.54 600.07 315.20 597.92 314.87 598.12 313.89 598.32 312.91 598.33 312.90 Z"></path><path fill="#6a4c93" d="M 621.31 324.72 Q 621.31 324.72 621.88 323.80 622.45 322.89 625.03 323.60 627.60 324.31 627.74 327.14 627.88 329.97 627.88 329.98 627.88 329.98 627.88 329.99 627.88 329.99 625.16 328.28 622.45 326.56 621.88 325.65 621.31 324.74 621.31 324.73 Z"></path><path fill="#6a4c93" d="M 151.71 284.02 Q 151.71 284.02 149.30 283.72 146.88 283.42 143.72 283.45 140.56 283.47 137.15 285.30 133.75 287.13 131.15 289.04 128.55 290.95 125.59 293.55 122.63 296.16 120.00 298.65 117.38 301.15 116.06 302.68 114.74 304.20 113.18 306.08 111.62 307.96 110.31 309.75 108.99 311.54 107.59 313.90 106.19 316.25 105.23 318.70 104.27 321.14 103.07 324.78 101.88 328.43 100.90 332.80 99.92 337.17 99.71 341.45 99.50 345.74 100.05 349.46 100.60 353.17 101.80 356.44 103.00 359.71 104.47 362.06 105.95 364.40 108.79 366.52 111.63 368.64 114.53 369.64 117.42 370.64 121.85 371.48 126.28 372.32 130.53 372.78 134.78 373.24 140.00 373.40 145.22 373.56 150.52 373.22 155.81 372.88 160.82 372.10 165.82 371.32 170.23 370.04 174.64 368.75 178.50 367.20 182.36 365.64 184.30 364.75 186.24 363.87 188.06 362.61 189.89 361.36 191.84 359.96 193.79 358.56 195.75 356.60 197.70 354.65 199.07 352.92 200.43 351.19 201.76 348.71 203.10 346.22 203.64 343.30 204.19 340.38 204.09 337.71 204.00 335.03 203.35 332.73 202.71 330.42 201.79 328.11 200.86 325.80 199.96 323.74 199.05 321.69 198.05 319.19 197.05 316.70 195.86 314.74 194.67 312.78 192.52 309.65 190.37 306.52 189.05 304.86 187.73 303.19 185.82 301.51 183.91 299.84 181.87 298.41 179.83 296.98 177.68 295.61 175.53 294.23 173.39 292.65 171.25 291.06 169.28 289.49 167.31 287.92 164.91 286.58 162.51 285.24 160.38 284.72 158.26 284.20 155.55 283.95 152.84 283.71 150.67 283.75 148.49 283.80 146.61 284.61 144.73 285.42 142.60 286.37 140.48 287.33 138.54 286.02 136.61 284.71 136.61 284.71 136.62 284.71 136.62 284.71 136.63 284.71 138.50 282.56 140.38 280.40 142.15 279.44 143.93 278.48 146.86 277.59 149.80 276.69 151.89 276.85 153.98 277.00 156.79 277.25 159.59 277.50 161.91 277.99 164.23 278.48 166.29 279.38 168.35 280.28 170.37 281.65 172.40 283.02 174.05 284.26 175.70 285.50 177.55 286.93 179.39 288.37 181.46 289.72 183.52 291.08 186.03 292.84 188.53 294.60 190.99 297.02 193.45 299.45 194.78 301.17 196.11 302.89 198.01 305.94 199.91 309.00 201.31 311.28 202.70 313.55 203.82 316.21 204.93 318.86 205.97 321.08 207.02 323.30 207.94 325.89 208.86 328.48 209.50 331.56 210.14 334.64 209.98 337.94 209.82 341.23 208.80 344.88 207.78 348.52 206.10 351.39 204.43 354.26 202.22 356.80 200.00 359.34 198.28 360.95 196.56 362.57 194.62 363.89 192.69 365.22 190.46 366.70 188.23 368.19 186.22 369.06 184.21 369.92 180.18 371.54 176.15 373.15 171.40 374.52 166.65 375.89 161.46 376.69 156.27 377.50 150.72 377.85 145.17 378.21 139.78 378.05 134.39 377.89 129.98 377.46 125.57 377.03 121.59 376.26 117.61 375.49 115.57 375.06 113.53 374.63 111.48 373.72 109.42 372.80 107.24 371.50 105.05 370.20 103.61 368.67 102.18 367.14 100.50 364.35 98.82 361.57 97.43 357.87 96.05 354.17 95.39 350.00 94.73 345.84 95.01 341.02 95.29 336.21 96.43 331.60 97.56 326.98 98.44 324.55 99.31 322.11 100.12 320.02 100.93 317.93 102.25 315.28 103.57 312.62 104.73 310.95 105.88 309.28 107.36 307.44 108.83 305.59 110.37 303.78 111.91 301.96 113.43 300.32 114.96 298.68 117.65 296.14 120.34 293.60 123.28 290.94 126.23 288.29 129.22 286.13 132.21 283.97 135.25 282.83 138.28 281.70 140.66 281.48 143.05 281.26 145.27 281.41 147.48 281.57 149.60 282.78 151.72 284.00 151.72 284.01 Z"></path><path fill="#6a4c93" d="M 139.90 312.91 Q 139.90 312.91 139.59 313.89 139.29 314.87 140.20 317.33 141.11 319.80 142.71 318.49 144.32 317.17 143.74 317.73 143.16 318.29 143.16 318.29 143.17 318.29 143.17 318.29 143.18 318.29 141.27 319.62 139.36 320.96 138.27 318.74 137.17 316.51 137.50 314.38 137.83 312.24 139.67 311.15 141.51 310.05 143.64 310.45 145.78 310.85 147.37 312.45 148.96 314.05 149.42 316.50 149.87 318.94 149.42 320.95 148.98 322.96 147.62 324.80 146.26 326.65 143.66 326.61 141.07 326.56 139.34 325.32 137.60 324.09 136.82 321.97 136.04 319.85 135.99 317.54 135.94 315.22 137.09 313.46 138.23 311.70 139.06 312.30 139.89 312.90 139.89 312.90 Z"></path><path fill="#6a4c93" d="M 164.19 305.03 Q 164.19 305.03 163.17 304.89 162.15 304.75 162.83 307.32 163.50 309.89 164.48 307.96 165.45 306.03 164.58 307.88 163.71 309.73 165.25 309.80 166.79 309.86 166.79 309.87 166.80 309.87 166.80 309.87 166.81 309.87 165.97 312.09 165.14 314.30 162.92 314.21 160.70 314.12 159.41 311.98 158.11 309.84 158.16 307.83 158.21 305.82 159.48 303.51 160.75 301.20 163.24 301.15 165.72 301.10 167.72 302.27 169.71 303.45 170.24 305.39 170.77 307.34 170.39 309.42 170.01 311.51 168.62 313.26 167.22 315.01 165.34 315.75 163.46 316.48 161.17 314.92 158.89 313.36 158.69 310.46 158.48 307.56 159.23 305.12 159.99 302.68 162.36 302.86 164.72 303.03 164.46 304.03 164.20 305.02 164.19 305.02 Z"></path><path fill="#6a4c93" d="M 149.75 347.72 Q 149.75 347.72 149.44 348.54 149.13 349.35 149.16 349.81 149.19 350.27 149.02 350.42 148.85 350.57 148.65 350.68 148.45 350.78 148.23 350.83 148.01 350.89 147.78 350.89 147.55 350.88 147.33 350.83 147.11 350.77 146.91 350.67 146.71 350.56 146.54 350.41 146.37 350.26 146.24 350.07 146.11 349.88 146.03 349.67 145.95 349.46 145.93 349.23 145.90 349.01 145.93 348.78 145.96 348.55 146.04 348.34 146.12 348.13 146.25 347.94 146.38 347.76 146.81 345.24 147.24 342.73 148.44 340.59 149.64 338.46 150.87 336.88 152.11 335.30 154.13 333.96 156.16 332.63 158.03 331.83 159.91 331.03 161.96 330.97 164.01 330.91 165.97 331.78 167.93 332.66 169.67 333.98 171.41 335.30 172.71 337.47 174.01 339.64 175.03 341.57 176.04 343.50 175.04 345.96 174.04 348.42 174.04 348.42 174.05 348.42 174.05 348.42 174.06 348.42 171.64 346.68 169.22 344.94 168.05 342.38 166.88 339.82 165.42 338.35 163.95 336.87 161.84 336.95 159.73 337.04 157.67 337.90 155.62 338.76 154.05 340.45 152.49 342.15 151.76 344.25 151.03 346.35 150.11 348.31 149.19 350.27 149.02 350.42 148.85 350.57 148.65 350.68 148.45 350.78 148.23 350.83 148.01 350.89 147.78 350.89 147.55 350.88 147.33 350.83 147.11 350.77 146.91 350.67 146.71 350.56 146.54 350.41 146.37 350.26 146.24 350.07 146.11 349.88 146.03 349.67 145.95 349.46 145.93 349.23 145.90 349.01 145.93 348.78 145.96 348.55 146.04 348.34 146.12 348.13 146.25 347.94 146.38 347.76 147.24 347.30 148.10 346.83 148.92 347.27 149.74 347.70 149.75 347.71 Z"></path><path fill="#6a4c93" d="M 128.06 318.16 Q 128.06 318.16 127.36 317.35 126.66 316.55 127.25 314.37 127.85 312.20 129.54 310.58 131.24 308.95 131.24 308.96 131.24 308.96 131.24 308.97 131.24 308.97 131.08 310.90 130.92 312.82 130.20 314.79 129.48 316.75 128.78 317.45 128.08 318.16 128.07 318.16 Z"></path><path fill="#6a4c93" d="M 167.48 293.21 Q 167.48 293.21 166.69 293.67 165.91 294.13 165.67 294.04 165.43 293.95 165.29 293.88 165.14 293.81 165.01 293.71 164.88 293.61 164.78 293.48 164.69 293.34 164.62 293.19 164.56 293.04 164.53 292.88 164.50 292.72 164.52 292.55 164.53 292.39 164.58 292.24 164.63 292.08 164.72 291.94 164.81 291.80 164.93 291.69 165.05 291.58 165.19 291.49 165.33 291.41 165.49 291.37 165.65 291.32 165.81 291.31 165.97 291.31 166.13 291.34 166.29 291.37 168.58 291.56 170.86 291.75 171.41 293.12 171.96 294.50 171.96 294.50 171.96 294.51 171.96 294.51 171.96 294.52 168.70 294.23 165.43 293.95 165.29 293.88 165.14 293.81 165.01 293.71 164.88 293.61 164.78 293.48 164.69 293.34 164.62 293.19 164.56 293.04 164.53 292.88 164.50 292.72 164.52 292.56 164.53 292.39 164.58 292.24 164.63 292.08 164.72 291.94 164.81 291.80 164.93 291.69 165.05 291.58 165.19 291.49 165.33 291.41 165.49 291.37 165.65 291.32 165.81 291.31 165.97 291.31 166.13 291.34 166.29 291.37 166.54 291.44 166.78 291.51 167.13 292.35 167.48 293.19 167.48 293.20 Z"></path><path fill="#6a4c93" d="M 592.42 312.24 Q 592.42 312.24 592.98 311.31 593.55 310.39 595.54 311.06 597.53 311.73 598.90 313.30 600.27 314.86 600.27 314.87 600.27 314.87 600.27 314.88 600.27 314.88 596.91 314.50 593.55 314.11 592.98 313.18 592.42 312.26 592.42 312.25 Z"></path><path fill="#6a4c93" d="M 339.55 306.99 Q 339.55 306.99 339.05 306.06 338.55 305.14 336.18 305.21 333.81 305.29 331.55 306.33 329.30 307.37 326.10 308.86 322.91 310.34 320.28 311.61 317.65 312.87 313.52 315.40 309.39 317.93 306.52 319.88 303.64 321.83 301.29 323.93 298.93 326.04 296.63 328.31 294.34 330.58 292.97 332.46 291.61 334.35 290.20 337.04 288.79 339.74 287.97 342.06 287.15 344.38 286.82 346.57 286.49 348.76 286.15 351.14 285.80 353.52 286.13 356.70 286.46 359.88 287.47 362.20 288.48 364.53 289.72 366.57 290.96 368.62 292.79 370.32 294.63 372.03 296.82 373.54 299.01 375.05 300.95 376.29 302.88 377.54 304.83 378.40 306.77 379.26 309.14 380.09 311.50 380.91 315.04 382.07 318.59 383.23 321.46 383.75 324.32 384.27 326.46 384.45 328.59 384.63 331.61 384.83 334.62 385.04 338.64 385.16 342.66 385.29 346.25 384.95 349.84 384.62 353.27 383.65 356.70 382.69 359.70 381.60 362.70 380.52 366.35 378.33 370.00 376.14 371.89 374.87 373.78 373.60 375.95 371.61 378.11 369.63 380.39 366.93 382.66 364.23 384.06 361.47 385.46 358.72 386.09 356.30 386.72 353.88 387.06 351.30 387.39 348.72 387.72 346.10 388.04 343.48 388.18 341.38 388.31 339.28 388.16 336.77 388.02 334.25 387.72 332.11 387.42 329.96 386.68 327.68 385.95 325.39 384.58 323.27 383.21 321.15 381.62 319.51 380.03 317.87 377.35 315.70 374.67 313.54 373.09 312.15 371.51 310.76 369.21 309.29 366.90 307.82 364.39 306.56 361.87 305.29 358.88 304.64 355.89 303.98 353.69 303.56 351.49 303.15 349.36 303.08 347.24 303.01 344.98 303.38 342.71 303.75 340.35 304.40 338.00 305.05 335.88 305.67 333.77 306.30 331.78 306.67 329.80 307.04 327.01 307.71 324.21 308.38 321.17 308.91 318.13 309.44 318.13 309.43 318.13 309.43 318.12 309.42 318.12 309.42 320.19 306.84 322.27 304.27 325.02 302.77 327.78 301.28 330.00 300.85 332.21 300.42 334.47 299.68 336.72 298.94 339.85 298.10 342.98 297.25 345.14 296.90 347.30 296.55 350.01 296.61 352.72 296.67 354.84 297.06 356.96 297.45 359.91 297.99 362.87 298.52 364.76 299.34 366.65 300.16 368.94 301.38 371.23 302.61 373.26 303.89 375.30 305.17 377.04 306.81 378.78 308.46 380.44 309.84 382.10 311.23 383.87 312.85 385.65 314.47 387.65 317.02 389.66 319.57 390.81 321.79 391.96 324.01 392.69 326.31 393.41 328.61 393.76 330.98 394.10 333.34 394.27 336.40 394.44 339.46 394.30 341.86 394.15 344.26 393.78 346.91 393.42 349.55 392.94 352.27 392.45 354.99 391.52 358.08 390.59 361.17 388.98 364.18 387.37 367.20 384.67 370.36 381.97 373.53 379.43 375.77 376.89 378.02 374.82 379.36 372.76 380.70 370.48 382.08 368.21 383.47 366.33 384.40 364.44 385.33 361.34 386.38 358.23 387.42 354.38 388.41 350.53 389.41 346.56 389.78 342.60 390.16 338.45 390.04 334.30 389.93 331.30 389.74 328.31 389.54 325.97 389.31 323.64 389.08 320.46 388.48 317.28 387.88 313.62 386.69 309.96 385.49 307.38 384.56 304.80 383.63 302.54 382.59 300.28 381.55 298.38 380.34 296.48 379.14 294.00 377.45 291.52 375.77 289.23 373.46 286.95 371.16 285.64 368.90 284.32 366.64 283.15 363.89 281.97 361.13 281.50 356.99 281.02 352.84 281.34 350.47 281.66 348.11 282.00 345.77 282.34 343.44 283.40 340.50 284.46 337.55 286.02 334.74 287.59 331.92 289.32 329.59 291.06 327.26 293.43 324.99 295.80 322.71 298.45 320.48 301.09 318.26 304.13 316.23 307.18 314.19 309.48 312.84 311.77 311.49 313.77 310.23 315.76 308.96 318.57 307.74 321.37 306.53 324.66 305.29 327.95 304.05 330.27 303.14 332.59 302.23 334.62 301.53 336.66 300.83 338.65 301.13 340.64 301.44 340.98 303.63 341.32 305.83 340.44 306.41 339.56 307.00 339.56 306.99 Z"></path><path fill="#6a4c93" d="M 342.19 344.43 Q 342.19 344.43 343.10 344.81 344.01 345.19 344.25 347.28 344.49 349.38 344.01 347.15 343.53 344.92 343.95 346.90 344.38 348.88 343.83 346.79 343.29 344.70 343.74 344.82 344.19 344.95 344.18 344.95 344.18 344.95 344.17 344.94 344.17 344.94 346.57 345.00 348.97 345.06 348.51 347.41 348.06 349.76 346.37 351.03 344.68 352.30 342.62 352.02 340.55 351.75 339.71 348.62 338.87 345.49 340.17 343.83 341.46 342.17 343.39 341.25 345.31 340.33 346.83 341.98 348.35 343.64 348.75 346.03 349.15 348.43 347.98 350.38 346.82 352.32 344.45 352.76 342.07 353.19 340.98 351.29 339.88 349.38 340.12 347.28 340.36 345.19 341.26 344.81 342.17 344.43 342.18 344.43 Z"></path><path fill="#6a4c93" d="M 362.54 348.38 Q 362.54 348.38 361.65 349.15 360.77 349.92 361.15 352.07 361.54 354.21 361.34 352.07 361.14 349.93 361.38 349.43 361.62 348.92 361.43 348.62 361.25 348.32 361.14 347.99 361.04 347.65 361.02 347.30 360.99 346.95 361.06 346.61 361.12 346.26 361.26 345.94 361.40 345.62 361.62 345.34 361.83 345.06 362.11 344.85 362.39 344.63 362.71 344.48 363.03 344.34 363.37 344.27 363.72 344.21 364.07 344.23 364.42 344.25 364.75 344.35 365.09 344.46 365.39 344.64 365.69 344.82 365.94 345.06 366.19 345.31 365.77 347.47 365.34 349.63 363.48 350.40 361.61 351.17 362.40 352.14 363.18 353.11 363.19 353.11 363.19 353.11 363.20 353.11 363.20 353.11 361.06 354.78 358.92 356.45 358.35 354.07 357.79 351.68 358.47 349.52 359.16 347.36 360.83 346.11 362.49 344.87 362.05 346.89 361.62 348.92 361.43 348.62 361.25 348.32 361.14 347.99 361.04 347.65 361.02 347.30 360.99 346.95 361.06 346.61 361.12 346.26 361.26 345.94 361.40 345.62 361.62 345.34 361.83 345.06 362.11 344.85 362.39 344.63 362.71 344.48 363.03 344.34 363.37 344.27 363.72 344.21 364.07 344.23 364.42 344.25 364.75 344.35 365.09 344.45 365.39 344.64 365.69 344.82 365.94 345.06 366.19 345.31 366.54 346.36 366.88 347.41 366.63 349.82 366.38 352.24 365.33 354.05 364.27 355.86 362.26 356.60 360.24 357.34 358.32 356.39 356.41 355.44 355.97 353.40 355.54 351.37 356.59 349.16 357.63 346.95 359.84 346.50 362.05 346.06 362.30 347.21 362.55 348.36 362.54 348.37 Z"></path><path fill="#6a4c93" d="M 334.29 370.71 Q 334.29 370.71 333.36 370.87 332.42 371.03 332.24 368.22 332.06 365.41 334.14 364.32 336.22 363.22 338.74 362.41 341.26 361.61 344.52 362.95 347.78 364.29 347.28 366.81 346.78 369.34 346.78 369.34 346.77 369.34 346.77 369.34 346.76 369.34 344.96 368.67 343.16 367.99 341.05 368.06 338.94 368.13 336.81 368.50 334.67 368.87 334.49 369.78 334.31 370.69 334.30 370.70 Z"></path><path fill="#6a4c93" d="M 344.82 364.78 Q 344.82 364.78 346.12 364.74 347.42 364.69 348.55 366.47 349.67 368.25 349.09 367.41 348.51 366.57 348.76 366.65 349.01 366.74 349.24 366.87 349.46 367.01 349.65 367.20 349.84 367.39 349.97 367.62 350.11 367.85 350.18 368.10 350.26 368.36 350.27 368.62 350.29 368.88 350.23 369.14 350.18 369.40 350.07 369.64 349.96 369.89 349.80 370.09 349.63 370.30 349.42 370.46 349.21 370.62 348.97 370.73 348.73 370.83 348.47 370.88 348.21 370.93 347.94 370.91 347.68 370.89 346.33 369.06 344.98 367.23 342.89 366.12 340.80 365.02 339.27 366.86 337.75 368.71 336.03 368.39 334.31 368.08 334.31 368.07 334.31 368.07 334.30 368.07 334.30 368.06 335.91 365.04 337.51 362.02 340.02 361.64 342.52 361.25 344.79 361.99 347.05 362.74 347.78 364.66 348.51 366.57 348.76 366.65 349.01 366.74 349.24 366.87 349.46 367.01 349.65 367.20 349.84 367.39 349.97 367.62 350.11 367.85 350.18 368.10 350.26 368.35 350.27 368.62 350.29 368.88 350.24 369.14 350.18 369.40 350.07 369.64 349.96 369.89 349.80 370.09 349.63 370.30 349.42 370.46 349.21 370.62 348.97 370.73 348.73 370.83 348.47 370.88 348.21 370.93 347.94 370.91 347.68 370.89 347.10 370.59 346.51 370.28 345.11 368.72 343.71 367.16 344.26 365.98 344.80 364.80 344.81 364.79 Z"></path><path fill="#6a4c93" d="M 334.29 337.86 Q 334.29 337.86 333.77 336.69 333.24 335.52 335.20 334.28 337.15 333.03 339.17 332.62 341.19 332.20 342.35 334.03 343.50 335.87 343.50 335.87 343.49 335.87 343.49 335.87 343.48 335.87 342.12 336.41 340.76 336.95 338.82 337.44 336.87 337.94 335.59 337.90 334.31 337.87 334.30 337.86 Z"></path><path fill="#6a4c93" d="M 370.42 340.50 Q 370.42 340.50 369.65 341.09 368.88 341.69 366.76 340.73 364.63 339.76 363.92 339.47 363.21 339.19 363.21 339.18 363.21 339.18 363.21 339.17 363.21 339.17 365.08 337.80 366.95 336.43 368.71 337.48 370.46 338.53 370.44 339.51 370.43 340.48 370.42 340.49 Z"></path><path fill="#6a4c93" d="M 599.64 313.57 Q 599.64 313.57 598.94 314.62 598.24 315.67 596.60 314.38 594.96 313.09 594.35 312.32 593.74 311.54 593.74 311.54 593.73 311.54 593.73 311.54 593.72 311.54 596.63 311.49 599.53 311.45 599.59 312.50 599.64 313.55 599.64 313.56 Z"></path>
</svg>