<svg width="775" height="436" xmlns="http://www.w3.org/2000/svg" xmlns:xlink="http://www.w3.org/1999/xlink">
<path fill="#ffca3a" d="M 172.66 345.00 Q 172.66 345.00 172.65 345.00 172.65 345.01 172.65 345.01 172.64 345.01 172.65 345.01 Z"></path><path fill="#ffca3a" d="M 66.92 332.52 Q 66.92 332.52 66.91 332.52 66.91 332.53 66.91 332.53 66.90 332.53 66.91 332.53 Z"></path><path fill="#ffca3a" d="M 47.87 316.76 Q 47.87 316.76 47.87 316.76 47.86 316.76 47.86 316.77 47.86 316.77 47.86 316.76 Z"></path><path fill="#ffca3a" d="M 52.47 312.82 Q 52.47 312.82 52.46 312.82 52.46 312.82 52.46 312.83 52.45 312.83 52.46 312.82 Z"></path><path fill="#ffca3a" d="M 55.75 323.98 Q 55.75 323.98 55.75 323.98 55.74 323.99 55.74 323.99 55.74 324.00 55.74 323.99 Z"></path><path fill="#ffca3a" d="M 51.23 311.58 Q 51.23 311.58 53.89 311.85 56.56 312.12 56.55 312.12 56.55 312.13 56.55 312.13 56.55 312.14 53.89 311.87 51.23 311.60 51.23 311.59 Z"></path><path fill="#ffca3a" d="M 40.07 320.12 Q 40.07 320.12 41.95 320.50 43.84 320.87 43.84 320.88 43.84 320.88 43.84 320.89 43.84 320.89 41.95 320.52 40.06 320.14 40.06 320.13 Z"></path><path fill="#ffca3a" d="M 38.09 331.94 Q 38.09 331.94 39.79 331.94 41.49 331.94 41.49 331.95 41.49 331.95 41.49 331.96 41.49 331.96 39.79 331.96 38.09 331.96 38.09 331.95 Z"></path><path fill="#ffca3a" d="M 40.06 326.03 Q 40.06 326.03 41.95 326.22 43.84 326.41 43.84 326.41 43.84 326.42 43.84 326.42 43.84 326.43 41.95 326.24 40.06 326.05 40.06 326.04 Z"></path><path fill="#ffca3a" d="M 47.29 338.51 Q 47.29 338.51 49.74 338.51 52.20 338.51 52.20 338.51 52.20 338.52 52.20 338.52 52.20 338.53 49.74 338.53 47.29 338.53 47.29 338.52 Z"></path>
</svg>