<svg width="775" height="436" xmlns="http://www.w3.org/2000/svg" xmlns:xlink="http://www.w3.org/1999/xlink">
<path fill="#000000" d="M 157.64 275.47 Q 157.64 275.47 157.85 276.33 158.06 277.18 157.26 279.74 156.46 282.31 155.37 284.14 154.28 285.97 152.86 288.37 151.44 290.77 150.20 292.47 148.97 294.17 147.89 296.39 146.80 298.61 145.93 300.60 145.06 302.60 143.87 304.42 142.67 306.24 141.92 308.23 141.17 310.22 140.58 312.16 140.00 314.10 142.10 313.69 144.19 313.28 146.42 313.49 148.65 313.70 150.67 313.80 152.69 313.90 154.71 314.21 156.73 314.51 159.13 314.48 161.53 314.46 163.61 315.10 165.68 315.75 168.09 315.73 170.51 315.71 172.56 315.99 174.60 316.27 176.64 316.61 178.68 316.96 180.97 316.97 183.26 316.98 185.25 317.29 187.24 317.60 189.26 318.52 191.28 319.43 193.12 320.39 194.97 321.34 196.98 321.45 198.98 321.55 199.83 319.73 200.67 317.91 201.98 316.00 203.30 314.08 204.90 312.41 206.50 310.73 208.16 308.59 209.82 306.45 210.87 304.73 211.93 303.02 213.31 301.14 214.70 299.27 216.09 297.26 217.48 295.26 219.20 293.49 220.91 291.73 221.54 290.74 222.17 289.76 222.21 289.55 222.26 289.34 222.35 289.14 222.45 288.95 222.58 288.78 222.72 288.61 222.90 288.48 223.07 288.36 223.27 288.27 223.47 288.19 223.68 288.15 223.90 288.12 224.11 288.14 224.33 288.16 224.54 288.23 224.74 288.30 224.92 288.41 225.11 288.53 225.26 288.69 225.41 288.84 225.51 289.03 225.62 289.22 225.68 289.43 225.74 289.64 225.75 289.85 225.75 290.07 223.66 290.05 221.57 290.03 219.49 289.97 217.42 289.90 215.31 289.60 213.19 289.29 211.15 288.98 209.11 288.66 207.03 288.01 204.94 287.36 202.72 286.27 200.50 285.18 198.35 284.68 196.19 284.18 194.05 283.36 191.90 282.54 189.87 282.34 187.84 282.15 185.92 281.52 183.99 280.88 181.84 280.59 179.69 280.30 177.69 279.95 175.69 279.61 173.44 278.90 171.20 278.19 169.18 277.55 167.15 276.91 165.17 276.59 163.19 276.26 161.23 275.81 159.27 275.35 158.46 274.76 157.64 274.16 157.64 274.16 157.64 274.15 157.64 274.15 157.64 274.14 161.14 273.11 164.63 272.08 166.71 272.41 168.79 272.75 171.07 273.72 173.34 274.69 175.34 275.02 177.33 275.34 179.76 275.65 182.18 275.97 184.46 276.63 186.74 277.30 188.69 277.96 190.64 278.62 192.56 279.26 194.47 279.90 196.64 280.27 198.80 280.63 200.87 281.30 202.94 281.98 205.06 282.87 207.17 283.76 209.22 284.51 211.26 285.27 213.35 285.30 215.44 285.33 217.46 285.68 219.49 286.03 220.83 287.90 222.17 289.76 222.21 289.55 222.26 289.34 222.35 289.14 222.45 288.95 222.58 288.78 222.72 288.61 222.90 288.49 223.07 288.36 223.27 288.27 223.47 288.19 223.68 288.15 223.90 288.12 224.11 288.14 224.33 288.16 224.54 288.23 224.74 288.30 224.92 288.41 225.11 288.53 225.26 288.69 225.40 288.84 225.51 289.03 225.62 289.22 225.68 289.43 225.74 289.64 225.75 289.85 225.75 290.07 224.80 291.73 223.85 293.40 221.97 295.53 220.10 297.66 218.97 299.46 217.85 301.26 216.61 302.87 215.38 304.48 214.28 306.20 213.18 307.92 211.95 309.53 210.71 311.14 209.08 313.11 207.45 315.09 205.85 316.79 204.24 318.49 203.16 320.27 202.08 322.05 200.37 323.66 198.65 325.28 196.49 324.90 194.32 324.52 192.17 323.75 190.03 322.98 188.20 322.14 186.37 321.31 183.96 320.96 181.55 320.61 179.34 320.44 177.13 320.26 175.11 319.96 173.09 319.65 170.58 319.45 168.06 319.24 166.06 319.03 164.07 318.83 162.12 318.37 160.17 317.91 157.73 317.85 155.28 317.79 153.30 317.47 151.31 317.14 149.11 316.81 146.92 316.48 144.89 316.45 142.87 316.43 140.72 316.02 138.58 315.62 137.96 313.67 137.34 311.73 138.19 309.84 139.04 307.95 140.07 305.88 141.09 303.82 142.44 301.72 143.78 299.62 144.93 297.43 146.08 295.23 147.78 292.56 149.48 289.88 150.90 287.42 152.31 284.96 153.50 283.09 154.69 281.22 155.56 279.00 156.44 276.78 157.03 276.12 157.62 275.47 157.63 275.47 Z"></path><path fill="#000000" d="M 221.34 290.58 Q 221.34 290.58 220.66 291.08 219.98 291.57 218.16 292.54 216.33 293.51 214.25 294.41 212.17 295.32 209.91 296.01 207.65 296.70 205.54 297.37 203.43 298.04 201.41 298.11 199.39 298.17 197.47 298.81 195.56 299.45 193.14 299.83 190.72 300.21 188.72 300.59 186.72 300.96 184.73 301.34 182.73 301.72 180.71 301.74 178.70 301.76 176.42 301.45 174.15 301.14 172.72 299.42 171.30 297.70 169.97 295.86 168.65 294.01 167.16 292.58 165.67 291.15 164.43 288.88 163.20 286.62 161.76 284.96 160.32 283.31 159.39 281.36 158.47 279.42 158.37 276.49 158.28 273.56 158.28 273.56 158.29 273.56 158.29 273.56 158.30 273.56 160.15 276.08 161.99 278.61 163.10 280.79 164.20 282.97 165.67 284.75 167.14 286.53 167.93 288.44 168.71 290.36 170.53 291.82 172.36 293.29 173.23 295.19 174.11 297.09 176.11 298.08 178.12 299.08 180.19 299.10 182.27 299.13 184.47 298.85 186.67 298.57 188.67 298.27 190.67 297.97 192.95 297.74 195.23 297.51 197.13 296.83 199.03 296.16 201.19 296.15 203.35 296.14 205.74 295.48 208.13 294.83 210.08 294.22 212.03 293.61 213.87 292.68 215.72 291.75 217.69 291.05 219.67 290.34 220.50 290.45 221.33 290.56 221.33 290.57 Z"></path><path fill="#000000" d="M 170.76 297.81 Q 170.76 297.81 170.20 298.20 169.63 298.58 167.53 299.24 165.43 299.89 163.21 300.81 160.98 301.73 158.90 302.70 156.82 303.67 154.80 304.67 152.78 305.68 150.89 306.50 148.99 307.32 146.10 308.73 143.22 310.13 143.21 310.13 143.21 310.13 143.20 310.13 143.20 310.13 144.22 308.54 145.25 306.96 147.26 306.00 149.28 305.04 151.37 304.16 153.47 303.28 155.33 302.18 157.18 301.08 159.49 300.20 161.80 299.32 163.65 298.47 165.49 297.62 167.56 297.32 169.63 297.01 170.20 297.40 170.76 297.79 170.76 297.80 Z"></path><path fill="#000000" d="M 186.53 301.08 Q 186.53 301.08 187.19 301.45 187.84 301.82 189.12 303.48 190.40 305.13 191.60 307.12 192.80 309.11 194.27 310.70 195.74 312.30 197.30 314.51 198.87 316.71 198.86 316.71 198.86 316.72 198.86 316.72 198.85 316.73 196.66 315.11 194.46 313.50 192.87 311.69 191.28 309.88 190.28 307.99 189.28 306.10 188.00 304.35 186.72 302.61 186.62 301.85 186.52 301.09 186.53 301.08 Z"></path><path fill="#1982c4" d="M 178.64 270.86 Q 178.64 270.86 180.20 269.88 181.76 268.90 184.91 268.12 188.07 267.35 192.23 267.01 196.40 266.66 202.03 266.37 207.65 266.08 215.19 265.77 222.73 265.46 225.15 265.36 227.56 265.26 232.39 265.23 237.21 265.19 239.25 265.17 241.29 265.15 243.68 265.16 246.06 265.17 252.05 265.35 258.05 265.53 260.16 265.61 262.26 265.69 264.66 265.74 267.05 265.79 273.26 266.19 279.47 266.60 281.66 266.76 283.85 266.93 291.24 267.92 298.63 268.92 301.75 269.35 304.88 269.78 311.31 270.69 317.75 271.60 320.48 272.00 323.21 272.40 325.92 272.92 328.63 273.44 339.30 275.22 349.97 277.01 354.03 277.69 358.08 278.37 367.17 279.76 376.26 281.14 380.12 281.75 383.98 282.35 393.00 283.92 402.02 285.49 405.85 286.16 409.68 286.83 418.32 288.87 426.96 290.92 430.62 291.76 434.28 292.60 440.16 294.22 446.04 295.83 448.55 296.46 451.06 297.10 453.60 297.86 456.15 298.63 461.46 300.31 466.77 301.99 468.49 302.78 470.22 303.57 470.22 303.58 470.22 303.58 470.21 303.59 470.21 303.59 468.33 303.32 466.45 303.05 461.09 301.68 455.73 300.31 453.12 299.78 450.51 299.25 448.01 298.62 445.50 297.98 439.58 296.61 433.67 295.25 430.01 294.40 426.35 293.56 417.76 291.63 409.17 289.71 405.35 289.04 401.52 288.36 392.53 286.78 383.54 285.19 379.68 284.58 375.81 283.98 366.72 282.51 357.63 281.05 353.58 280.37 349.52 279.68 338.83 277.78 328.13 275.88 325.50 275.30 322.87 274.73 320.14 274.33 317.41 273.93 310.99 272.97 304.57 272.00 301.45 271.57 298.32 271.14 291.01 270.11 283.69 269.08 281.50 268.92 279.31 268.75 273.17 268.36 267.02 267.97 264.60 267.95 262.18 267.93 260.07 267.85 257.96 267.77 252.01 267.58 246.06 267.39 243.69 267.42 241.31 267.45 239.27 267.46 237.23 267.48 232.44 267.52 227.66 267.57 225.24 267.66 222.82 267.76 215.29 268.07 207.76 268.39 202.11 268.58 196.46 268.77 192.45 269.00 188.45 269.24 185.38 269.91 182.32 270.58 180.49 270.73 178.65 270.88 178.64 270.87 Z"></path><path fill="#1982c4" d="M 210.82 323.41 Q 210.82 323.41 210.98 322.19 211.15 320.97 213.28 319.72 215.41 318.47 217.50 317.96 219.59 317.45 222.61 316.68 225.62 315.90 227.95 315.33 230.27 314.75 232.48 314.40 234.68 314.06 238.77 313.23 242.87 312.41 245.27 312.11 247.68 311.81 251.22 311.37 254.75 310.92 263.06 310.31 271.37 309.70 274.34 309.51 277.30 309.32 283.84 308.87 290.39 308.43 293.17 308.23 295.95 308.04 302.63 307.76 309.30 307.49 312.13 307.38 314.96 307.26 320.51 307.02 326.05 306.79 328.41 306.69 330.76 306.59 333.24 306.32 335.72 306.06 342.02 305.91 348.31 305.76 350.51 305.74 352.71 305.72 354.92 305.50 357.12 305.27 363.07 305.14 369.02 305.00 371.12 304.99 373.22 304.97 375.63 304.98 378.03 304.98 383.48 305.17 388.94 305.36 393.09 305.47 397.25 305.58 401.32 305.78 405.40 305.97 411.65 306.92 417.90 307.86 419.98 308.20 422.06 308.54 424.08 308.90 426.09 309.26 432.22 310.49 438.35 311.71 440.59 312.14 442.83 312.57 447.57 313.51 452.30 314.45 454.31 314.85 456.32 315.25 460.59 316.42 464.86 317.59 470.27 319.29 475.67 320.99 478.82 322.40 481.97 323.81 481.97 323.82 481.97 323.82 481.97 323.83 481.97 323.83 478.59 323.14 475.21 322.45 469.80 320.92 464.39 319.38 460.15 318.32 455.92 317.26 453.91 316.87 451.90 316.47 447.17 315.54 442.45 314.61 440.20 314.18 437.96 313.76 431.83 312.69 425.70 311.63 423.68 311.33 421.66 311.03 419.58 310.69 417.50 310.35 411.36 309.55 405.22 308.75 401.21 308.53 397.21 308.31 393.01 308.19 388.82 308.07 383.43 307.89 378.04 307.71 375.64 307.73 373.24 307.75 371.14 307.76 369.04 307.78 363.20 307.88 357.35 307.98 355.04 308.15 352.73 308.32 350.54 308.34 348.34 308.36 342.15 308.49 335.96 308.61 333.41 308.81 330.87 309.01 328.51 309.11 326.16 309.21 320.61 309.46 315.06 309.70 312.23 309.81 309.40 309.93 302.76 310.20 296.12 310.47 293.34 310.66 290.56 310.86 284.01 311.33 277.46 311.80 274.49 311.99 271.53 312.18 263.30 312.80 255.07 313.42 251.45 313.82 247.83 314.22 245.53 314.43 243.22 314.64 239.10 315.31 234.98 315.99 232.86 316.32 230.73 316.65 228.39 317.19 226.04 317.72 223.87 318.24 221.71 318.76 219.03 319.45 216.34 320.14 214.55 321.11 212.77 322.08 211.80 322.75 210.83 323.42 210.83 323.41 Z"></path><path fill="#1982c4" d="M 223.96 299.10 Q 223.96 299.10 226.54 298.31 229.13 297.52 233.02 297.09 236.90 296.67 240.61 296.13 244.32 295.60 246.48 295.33 248.64 295.05 251.49 294.62 254.35 294.19 256.82 293.95 259.30 293.70 262.75 293.28 266.19 292.85 268.74 292.62 271.28 292.39 274.31 292.16 277.34 291.92 279.82 291.79 282.30 291.66 288.98 291.24 295.66 290.82 298.25 290.66 300.85 290.50 306.51 290.42 312.17 290.33 314.56 290.30 316.96 290.27 322.90 290.44 328.85 290.61 331.37 290.68 333.89 290.76 340.08 291.16 346.27 291.56 348.89 291.73 351.51 291.90 357.18 292.55 362.85 293.19 365.25 293.47 367.65 293.74 372.27 294.43 376.90 295.12 380.83 295.72 384.76 296.33 389.51 296.89 394.26 297.44 397.80 297.91 401.34 298.37 405.67 299.13 410.01 299.88 415.34 300.66 420.67 301.44 423.95 301.99 427.24 302.55 431.79 303.65 436.35 304.74 436.34 304.75 436.34 304.75 436.34 304.76 436.34 304.76 431.66 304.41 426.98 304.05 423.71 303.64 420.45 303.22 415.06 302.50 409.68 301.78 405.36 301.08 401.05 300.38 397.54 299.94 394.04 299.50 389.24 298.92 384.43 298.35 380.52 297.75 376.60 297.15 372.01 296.48 367.42 295.80 365.02 295.53 362.62 295.26 357.00 294.62 351.37 293.98 348.75 293.81 346.13 293.64 339.98 293.22 333.83 292.80 331.31 292.72 328.79 292.65 322.89 292.46 316.98 292.27 314.59 292.30 312.19 292.33 306.58 292.39 300.97 292.45 298.38 292.61 295.78 292.77 289.06 293.16 282.35 293.54 279.92 293.65 277.49 293.77 274.43 293.99 271.38 294.22 268.91 294.46 266.44 294.70 262.92 295.12 259.39 295.54 257.01 295.77 254.63 296.00 251.70 296.41 248.77 296.83 246.69 297.07 244.60 297.31 240.83 297.84 237.06 298.38 233.22 298.79 229.37 299.20 226.67 299.16 223.96 299.12 223.96 299.11 Z"></path><path fill="#1982c4" d="M 218.70 281.37 Q 218.70 281.37 220.24 280.31 221.78 279.26 224.60 278.74 227.42 278.22 230.78 278.06 234.13 277.89 237.66 277.68 241.18 277.47 243.30 277.34 245.41 277.20 248.27 276.99 251.13 276.77 253.39 276.63 255.66 276.48 259.04 276.41 262.42 276.35 265.10 276.33 267.78 276.31 270.60 276.48 273.42 276.65 276.07 276.98 278.72 277.31 282.96 277.79 287.20 278.28 290.61 278.55 294.01 278.82 302.05 279.81 310.09 280.79 313.13 281.20 316.17 281.61 323.67 282.35 331.17 283.09 334.37 283.40 337.57 283.72 345.53 284.40 353.49 285.08 356.88 285.38 360.27 285.68 368.36 286.63 376.45 287.59 379.87 288.04 383.29 288.50 389.87 289.63 396.45 290.76 399.24 291.24 402.02 291.72 404.74 292.33 407.46 292.94 413.80 294.25 420.14 295.55 422.35 296.00 424.56 296.44 427.03 297.03 429.50 297.61 435.51 299.16 441.52 300.71 443.63 301.23 445.75 301.76 448.02 302.59 450.28 303.42 454.44 304.88 458.59 306.34 461.88 307.62 465.17 308.91 469.89 310.96 474.61 313.01 478.12 314.62 481.63 316.22 488.16 319.73 494.69 323.24 497.16 324.51 499.63 325.78 503.72 328.07 507.82 330.35 507.82 330.36 507.82 330.36 507.81 330.37 507.81 330.37 503.54 328.43 499.26 326.49 496.79 325.22 494.32 323.95 487.67 320.74 481.01 317.54 477.50 316.02 473.98 314.50 469.22 312.60 464.45 310.71 461.18 309.54 457.91 308.38 453.71 306.99 449.51 305.60 447.34 304.86 445.16 304.11 443.05 303.59 440.93 303.06 434.91 301.66 428.89 300.25 426.45 299.70 424.02 299.15 421.81 298.70 419.59 298.26 413.23 296.97 406.87 295.68 404.20 295.12 401.53 294.56 398.74 294.08 395.96 293.60 389.44 292.45 382.91 291.30 379.49 290.85 376.07 290.39 368.07 289.21 360.06 288.02 356.67 287.73 353.29 287.43 345.32 286.71 337.34 285.99 334.15 285.68 330.95 285.36 323.41 284.63 315.86 283.89 312.82 283.48 309.78 283.08 301.86 282.08 293.93 281.09 290.43 280.85 286.93 280.62 282.68 280.08 278.43 279.54 275.82 279.26 273.22 278.98 270.50 278.78 267.78 278.57 265.10 278.56 262.43 278.55 259.07 278.53 255.72 278.50 253.50 278.59 251.28 278.68 248.38 278.89 245.47 279.10 243.40 279.20 241.33 279.30 237.75 279.54 234.17 279.77 230.94 279.96 227.70 280.15 225.07 280.69 222.44 281.24 220.57 281.31 218.71 281.39 218.71 281.38 Z"></path><path fill="#000000" d="M 583.23 97.48 Q 583.23 97.48 584.05 97.82 584.87 98.17 586.06 99.90 587.24 101.64 588.77 103.97 590.30 106.29 591.21 109.15 592.12 112.00 592.72 114.05 593.31 116.11 594.05 118.09 594.79 120.07 595.68 121.87 596.57 123.67 598.02 125.34 599.47 127.02 600.36 128.98 601.24 130.95 601.52 133.03 601.81 135.11 602.03 137.17 602.26 139.22 602.22 139.37 602.18 139.51 602.15 139.74 602.12 139.96 602.04 140.17 601.96 140.39 601.84 140.57 601.71 140.76 601.54 140.91 601.37 141.06 601.17 141.17 600.97 141.27 600.75 141.33 600.53 141.38 600.30 141.38 600.07 141.38 599.85 141.33 599.63 141.28 599.43 141.17 599.23 141.07 599.06 140.92 598.89 140.77 598.76 140.58 598.63 140.39 598.55 140.18 598.47 139.97 598.44 139.74 598.41 139.52 596.06 139.99 593.70 140.45 591.63 140.40 589.56 140.34 587.48 140.90 585.39 141.45 582.63 142.55 579.86 143.64 577.59 144.46 575.33 145.28 573.20 146.22 571.06 147.15 568.83 147.41 566.60 147.67 564.19 147.69 561.78 147.71 559.51 148.45 557.24 149.19 555.23 149.86 553.22 150.53 551.13 150.75 549.05 150.98 547.20 151.88 545.35 152.78 543.29 153.25 541.23 153.71 539.24 153.42 537.25 153.14 535.29 153.50 533.33 153.87 533.10 153.85 532.88 153.82 532.67 153.74 532.45 153.67 532.27 153.54 532.08 153.41 531.93 153.25 531.77 153.08 531.67 152.88 531.56 152.68 531.50 152.46 531.45 152.24 531.44 152.02 531.44 151.79 531.49 151.57 531.54 151.35 531.65 151.15 531.75 150.94 531.90 150.77 532.05 150.60 532.23 150.47 532.42 150.34 532.63 150.26 532.84 150.18 533.06 150.15 533.29 150.12 531.49 148.94 529.70 147.77 528.73 145.84 527.77 143.91 526.86 141.98 525.95 140.06 525.20 138.04 524.44 136.02 522.99 134.31 521.54 132.60 520.90 130.39 520.26 128.18 519.37 126.22 518.48 124.26 517.70 122.36 516.91 120.45 517.89 118.55 518.86 116.66 519.27 114.43 519.68 112.20 521.40 111.10 523.13 110.00 525.11 109.75 527.10 109.49 529.12 108.81 531.13 108.12 533.14 107.28 535.14 106.43 537.70 105.62 540.27 104.82 542.18 104.21 544.09 103.60 546.03 102.65 547.97 101.70 550.32 101.09 552.67 100.47 555.28 99.86 557.89 99.25 560.27 98.41 562.66 97.56 564.73 97.21 566.80 96.85 568.98 96.43 571.16 96.00 573.25 95.45 575.34 94.91 577.48 95.25 579.61 95.60 581.73 95.66 583.85 95.73 585.77 96.60 587.69 97.47 587.69 97.48 587.69 97.48 587.69 97.49 587.69 97.49 585.77 98.36 583.85 99.23 581.73 99.30 579.61 99.36 577.52 99.16 575.44 98.96 573.25 99.63 571.07 100.30 568.36 100.58 565.65 100.86 563.28 101.54 560.92 102.21 558.65 102.93 556.38 103.65 553.59 104.29 550.79 104.92 548.66 105.78 546.53 106.64 544.21 107.56 541.89 108.48 539.27 109.30 536.64 110.12 534.70 110.92 532.77 111.72 530.38 112.50 528.00 113.29 525.70 113.28 523.41 113.28 522.42 115.31 521.44 117.35 521.38 119.36 521.33 121.36 522.46 123.56 523.59 125.75 524.08 127.83 524.57 129.92 525.83 131.53 527.09 133.14 527.97 135.02 528.85 136.91 529.57 138.88 530.29 140.86 531.27 142.82 532.25 144.79 532.75 147.17 533.26 149.56 533.29 151.71 533.33 153.87 533.10 153.85 532.88 153.82 532.67 153.74 532.45 153.67 532.27 153.54 532.08 153.41 531.93 153.25 531.77 153.08 531.67 152.88 531.56 152.68 531.50 152.46 531.45 152.24 531.44 152.02 531.44 151.79 531.49 151.57 531.54 151.35 531.65 151.15 531.75 150.95 531.90 150.77 532.05 150.60 532.23 150.47 532.42 150.34 532.63 150.26 532.84 150.18 533.06 150.15 533.29 150.12 535.09 149.83 536.90 149.55 539.04 149.91 541.18 150.26 543.10 149.67 545.02 149.09 547.03 148.42 549.04 147.75 551.32 147.40 553.59 147.06 555.51 146.37 557.43 145.69 559.35 145.07 561.27 144.45 563.37 144.47 565.47 144.48 567.73 144.35 569.99 144.21 572.11 143.29 574.23 142.38 576.62 141.54 579.00 140.71 582.06 139.59 585.13 138.47 587.18 137.92 589.24 137.37 591.47 137.32 593.71 137.27 595.74 137.27 597.77 137.27 599.97 138.39 602.18 139.51 602.15 139.74 602.12 139.96 602.04 140.17 601.97 140.39 601.84 140.57 601.71 140.76 601.54 140.91 601.37 141.06 601.17 141.17 600.97 141.27 600.75 141.33 600.53 141.38 600.30 141.38 600.07 141.38 599.85 141.33 599.63 141.28 599.43 141.17 599.23 141.07 599.06 140.92 598.89 140.77 598.76 140.58 598.63 140.39 598.55 140.18 598.47 139.97 598.44 139.74 598.41 139.52 599.03 139.86 599.64 140.20 598.56 138.38 597.48 136.56 597.22 134.41 596.97 132.27 595.84 130.39 594.71 128.51 593.59 126.85 592.46 125.19 591.76 123.24 591.06 121.30 590.47 119.15 589.88 116.99 589.39 114.95 588.90 112.90 588.19 110.44 587.47 107.98 586.04 105.64 584.61 103.31 583.47 101.18 582.32 99.06 582.77 98.27 583.21 97.48 583.22 97.48 Z"></path><path fill="#000000" d="M 518.21 117.19 Q 518.21 117.19 518.42 117.78 518.62 118.36 520.79 118.84 522.96 119.32 524.91 120.04 526.86 120.77 529.19 121.40 531.53 122.04 533.52 122.27 535.51 122.51 537.33 123.76 539.16 125.01 541.17 124.98 543.19 124.95 545.30 124.96 547.41 124.98 549.60 125.29 551.78 125.60 554.42 125.97 557.06 126.34 559.14 126.77 561.21 127.19 563.28 126.88 565.34 126.58 567.74 125.98 570.13 125.39 571.44 123.52 572.75 121.64 574.06 119.31 575.38 116.98 576.49 115.29 577.60 113.60 578.19 111.58 578.77 109.57 579.69 107.58 580.60 105.59 582.18 102.85 583.76 100.12 583.76 100.13 583.76 100.13 583.76 100.14 583.76 100.14 584.64 102.11 585.51 104.08 584.76 106.37 584.00 108.67 582.96 110.38 581.92 112.10 580.91 114.41 579.91 116.71 578.92 118.69 577.93 120.66 576.58 122.61 575.23 124.55 573.47 126.24 571.72 127.93 569.36 128.59 567.00 129.24 564.53 130.03 562.06 130.81 560.08 130.51 558.10 130.21 556.05 129.90 554.00 129.60 551.88 129.31 549.76 129.03 547.46 129.07 545.15 129.11 543.10 129.09 541.05 129.07 538.95 128.06 536.85 127.04 534.88 126.37 532.91 125.70 530.79 125.22 528.68 124.75 526.23 123.91 523.79 123.07 521.90 122.25 520.02 121.42 518.52 119.09 517.02 116.76 517.61 116.97 518.19 117.18 518.20 117.18 Z"></path><path fill="#000000" d="M 555.64 130.33 Q 555.64 130.33 555.25 131.04 554.86 131.75 552.59 133.26 550.31 134.76 548.25 136.42 546.19 138.08 544.48 139.32 542.77 140.57 540.73 141.77 538.68 142.97 536.89 144.42 535.10 145.87 533.82 146.63 532.54 147.38 532.53 147.39 532.53 147.39 532.53 147.40 532.53 147.40 534.01 144.86 535.49 142.32 537.21 141.13 538.94 139.94 540.75 138.74 542.57 137.54 544.15 136.29 545.73 135.04 547.41 133.73 549.09 132.41 551.62 131.03 554.14 129.64 554.89 129.98 555.63 130.31 555.64 130.32 Z"></path><path fill="#000000" d="M 574.69 126.37 Q 574.69 126.37 575.55 126.30 576.41 126.24 578.41 127.28 580.41 128.32 582.29 129.39 584.17 130.46 586.51 131.01 588.86 131.55 591.18 132.32 593.50 133.09 595.56 133.67 597.61 134.25 597.61 134.26 597.61 134.26 597.61 134.27 597.61 134.27 594.62 134.84 591.63 135.40 589.29 134.44 586.95 133.48 585.00 133.00 583.06 132.52 581.23 131.42 579.40 130.32 577.31 129.17 575.22 128.03 574.95 127.21 574.68 126.39 574.68 126.38 Z"></path><path fill="#1982c4" d="M 297.52 82.37 Q 297.52 82.37 298.94 81.62 300.36 80.87 303.18 80.28 306.00 79.69 309.37 78.86 312.74 78.03 316.69 77.04 320.64 76.06 325.06 75.24 329.49 74.42 333.67 73.73 337.85 73.03 340.30 72.54 342.75 72.06 346.21 71.68 349.68 71.30 352.33 70.97 354.98 70.64 357.58 70.30 360.19 69.95 362.36 69.82 364.53 69.69 368.90 69.48 373.26 69.27 378.43 69.14 383.60 69.01 391.01 68.81 398.42 68.62 400.93 68.53 403.45 68.45 408.50 68.41 413.55 68.37 415.69 68.35 417.83 68.34 422.53 68.49 427.24 68.65 433.86 68.94 440.48 69.24 446.09 69.36 451.71 69.49 454.93 69.70 458.15 69.91 461.74 70.21 465.34 70.51 467.85 70.63 470.36 70.76 472.69 70.97 475.02 71.19 477.25 71.31 479.47 71.43 482.18 71.81 484.89 72.19 487.01 72.43 489.14 72.66 493.22 73.28 497.30 73.89 501.96 74.81 506.61 75.74 510.77 76.72 514.93 77.70 518.69 78.49 522.46 79.28 525.96 80.13 529.47 80.99 531.88 81.76 534.30 82.54 536.83 83.27 539.37 84.00 541.57 84.85 543.78 85.70 545.68 86.41 547.58 87.12 550.77 88.19 553.96 89.25 556.23 90.17 558.50 91.09 559.36 92.89 560.22 94.69 560.21 94.69 560.21 94.69 560.20 94.69 560.20 94.69 558.99 93.67 557.79 92.66 555.55 91.95 553.30 91.25 550.04 90.27 546.79 89.28 544.80 88.52 542.81 87.75 540.69 86.95 538.57 86.15 536.04 85.42 533.52 84.68 531.19 83.91 528.87 83.13 525.46 82.25 522.05 81.36 518.24 80.56 514.43 79.76 510.29 78.80 506.16 77.83 501.56 76.92 496.96 76.01 492.98 75.41 489.00 74.81 486.79 74.58 484.57 74.35 481.99 73.96 479.40 73.57 477.09 73.43 474.78 73.28 472.54 73.07 470.29 72.85 467.74 72.71 465.18 72.56 461.54 72.24 457.90 71.93 454.80 71.71 451.69 71.50 446.04 71.35 440.39 71.21 433.78 70.91 427.17 70.61 422.50 70.40 417.84 70.19 415.70 70.20 413.56 70.22 408.54 70.24 403.51 70.27 400.99 70.36 398.48 70.44 391.05 70.66 383.62 70.88 378.49 70.99 373.36 71.10 368.98 71.32 364.59 71.54 362.50 71.69 360.41 71.83 357.84 72.15 355.27 72.47 352.55 72.80 349.83 73.14 346.48 73.47 343.12 73.80 340.62 74.26 338.13 74.72 333.94 75.38 329.75 76.04 325.37 76.81 321.00 77.58 317.05 78.51 313.10 79.43 309.70 80.28 306.30 81.12 303.51 81.74 300.73 82.37 299.13 82.38 297.52 82.38 297.52 82.38 Z"></path><path fill="#1982c4" d="M 517.54 143.46 Q 517.54 143.46 516.03 143.03 514.52 142.60 512.49 141.29 510.46 139.98 508.34 138.75 506.23 137.53 504.08 136.45 501.94 135.36 498.81 134.15 495.67 132.94 493.67 132.05 491.67 131.17 488.89 130.33 486.12 129.49 483.84 128.69 481.55 127.90 478.40 126.85 475.26 125.81 472.73 125.12 470.19 124.44 467.60 123.66 465.00 122.88 462.90 122.35 460.80 121.82 456.96 120.69 453.12 119.57 449.99 118.62 446.87 117.67 440.00 116.07 433.14 114.48 430.52 113.87 427.90 113.27 421.52 112.09 415.14 110.91 412.42 110.40 409.70 109.88 403.09 108.93 396.47 107.98 393.66 107.57 390.84 107.15 384.37 106.40 377.91 105.64 375.15 105.32 372.40 105.01 367.27 104.48 362.14 103.95 359.96 103.73 357.78 103.51 355.75 103.41 353.72 103.32 348.88 103.07 344.04 102.82 340.34 102.71 336.63 102.60 332.01 102.58 327.39 102.56 323.97 102.58 320.56 102.60 315.33 102.79 310.11 102.99 304.60 103.48 299.10 103.97 293.13 104.76 287.17 105.56 282.05 106.46 276.93 107.35 273.28 108.22 269.62 109.10 266.06 109.70 262.49 110.31 262.49 110.31 262.49 110.30 262.49 110.30 262.49 110.29 265.81 108.88 269.13 107.47 272.82 106.38 276.50 105.30 281.67 104.28 286.83 103.27 292.83 102.44 298.83 101.60 304.42 101.11 310.01 100.61 315.28 100.43 320.56 100.25 323.98 100.28 327.39 100.31 332.03 100.33 336.68 100.35 340.41 100.49 344.15 100.63 348.98 100.87 353.82 101.11 355.91 101.20 358.00 101.29 360.18 101.51 362.36 101.72 367.51 102.22 372.66 102.71 375.42 103.02 378.17 103.34 384.68 104.07 391.18 104.79 394.00 105.21 396.82 105.62 403.47 106.61 410.13 107.60 412.85 108.11 415.57 108.62 421.99 109.85 428.41 111.07 431.03 111.67 433.65 112.28 440.57 114.00 447.50 115.72 450.59 116.74 453.67 117.76 457.44 118.88 461.22 120.01 463.37 120.62 465.53 121.23 468.06 122.00 470.59 122.76 473.18 123.48 475.77 124.19 478.99 125.26 482.20 126.33 484.38 127.09 486.57 127.84 489.51 128.76 492.45 129.68 494.34 130.48 496.23 131.28 499.49 132.54 502.75 133.79 504.92 134.92 507.10 136.04 509.26 137.33 511.42 138.62 513.35 139.96 515.27 141.29 516.41 142.37 517.55 143.45 517.54 143.46 Z"></path><path fill="#1982c4" d="M 502.43 116.54 Q 502.43 116.54 501.32 116.26 500.21 115.98 498.32 115.30 496.43 114.62 494.35 114.20 492.26 113.79 489.40 112.84 486.54 111.90 483.08 110.87 479.62 109.85 475.85 108.88 472.08 107.91 467.41 106.75 462.74 105.60 458.38 104.68 454.01 103.77 451.31 103.26 448.61 102.74 445.43 102.01 442.25 101.27 439.78 100.72 437.32 100.17 434.00 99.43 430.69 98.69 428.11 98.14 425.54 97.59 422.05 97.05 418.57 96.50 413.77 95.69 408.97 94.87 405.94 94.48 402.90 94.09 396.99 93.28 391.08 92.47 388.87 92.14 386.66 91.81 381.78 91.30 376.90 90.79 374.82 90.57 372.73 90.35 367.91 90.07 363.08 89.79 361.02 89.67 358.96 89.55 353.93 89.31 348.91 89.07 346.77 88.97 344.63 88.87 340.94 89.01 337.25 89.14 334.02 89.23 330.80 89.31 327.43 89.70 324.06 90.09 321.67 90.48 319.28 90.86 316.24 91.40 313.20 91.93 311.16 92.34 309.12 92.76 306.58 93.24 304.03 93.72 300.11 94.32 296.18 94.92 291.30 95.34 286.42 95.76 282.36 95.89 278.29 96.01 275.75 96.03 273.21 96.05 273.21 96.05 273.21 96.04 273.21 96.04 273.20 96.03 275.74 95.45 278.27 94.87 282.30 94.66 286.32 94.46 291.14 93.95 295.96 93.44 299.83 92.77 303.70 92.10 306.17 91.51 308.63 90.91 310.75 90.43 312.86 89.95 315.86 89.42 318.87 88.89 321.32 88.43 323.77 87.98 327.27 87.58 330.77 87.18 333.96 87.09 337.16 87.00 340.95 86.85 344.74 86.69 346.88 86.80 349.01 86.90 354.05 87.14 359.09 87.38 361.15 87.50 363.21 87.62 368.09 87.90 372.96 88.18 375.05 88.40 377.13 88.62 382.06 89.15 386.98 89.67 389.19 90.00 391.40 90.33 397.23 91.18 403.05 92.02 406.20 92.41 409.35 92.80 414.11 93.64 418.87 94.48 422.41 95.06 425.95 95.63 428.54 96.21 431.13 96.79 434.42 97.55 437.72 98.31 440.20 98.88 442.69 99.46 445.82 100.20 448.95 100.95 451.65 101.46 454.35 101.97 458.77 102.88 463.19 103.79 467.86 104.99 472.52 106.18 476.30 107.21 480.08 108.24 483.57 109.35 487.05 110.46 489.85 111.49 492.65 112.52 494.86 113.00 497.07 113.47 498.98 114.14 500.89 114.81 501.67 115.66 502.44 116.52 502.44 116.53 Z"></path><path fill="#1982c4" d="M 524.10 100.12 Q 524.10 100.12 523.39 100.02 522.68 99.92 520.24 99.80 517.79 99.68 515.61 99.03 513.44 98.37 510.93 97.23 508.43 96.09 506.45 95.41 504.47 94.74 502.29 94.00 500.11 93.25 498.10 92.85 496.09 92.45 494.08 91.98 492.08 91.51 489.88 90.98 487.68 90.45 485.51 90.14 483.34 89.84 478.76 89.07 474.19 88.29 468.81 87.44 463.43 86.59 456.22 85.34 449.01 84.08 446.58 83.64 444.14 83.20 438.40 82.50 432.66 81.80 430.22 81.48 427.77 81.16 422.03 80.70 416.28 80.25 413.83 80.03 411.39 79.81 405.08 79.56 398.77 79.31 396.09 79.19 393.40 79.07 388.14 79.21 382.88 79.36 380.63 79.42 378.38 79.48 375.90 79.46 373.43 79.45 368.00 79.81 362.58 80.16 358.60 80.53 354.62 80.91 350.69 81.38 346.76 81.85 343.03 81.77 339.30 81.68 339.30 81.68 339.30 81.67 339.30 81.67 339.30 81.66 342.92 80.99 346.55 80.33 350.48 79.73 354.40 79.14 358.41 78.67 362.41 78.20 367.91 77.77 373.40 77.34 375.86 77.28 378.32 77.22 380.57 77.16 382.82 77.10 388.16 76.97 393.50 76.84 396.18 76.96 398.87 77.08 405.22 77.39 411.57 77.71 414.02 77.92 416.47 78.14 422.24 78.71 428.02 79.29 430.46 79.61 432.91 79.93 438.68 80.73 444.45 81.54 446.88 81.98 449.31 82.42 456.49 83.68 463.67 84.94 469.07 85.78 474.47 86.61 478.97 87.38 483.46 88.14 485.79 88.42 488.11 88.69 490.30 89.24 492.48 89.80 494.48 90.23 496.47 90.66 498.57 91.13 500.68 91.60 502.86 92.37 505.04 93.14 507.07 93.90 509.11 94.66 511.50 95.88 513.89 97.11 515.94 97.78 517.99 98.45 520.63 98.62 523.27 98.78 523.69 99.44 524.12 100.10 524.11 100.11 Z"></path>
</svg>