<svg width="775" height="436" xmlns="http://www.w3.org/2000/svg" xmlns:xlink="http://www.w3.org/1999/xlink">
<path fill="#ffca3a" d="M 208.20 283.36 Q 208.20 283.36 207.46 284.25 206.71 285.14 204.46 287.77 202.22 290.39 200.39 293.08 198.55 295.77 196.73 298.23 194.90 300.69 193.57 302.53 192.23 304.36 190.81 305.92 189.39 307.47 188.14 309.34 186.89 311.22 188.99 312.05 191.09 312.89 193.45 313.03 195.82 313.17 197.95 312.86 200.08 312.55 202.18 311.77 204.28 310.98 206.95 309.81 209.61 308.64 211.87 307.28 214.14 305.92 215.86 304.83 217.58 303.73 219.81 302.82 222.05 301.90 223.70 302.78 225.35 303.66 225.34 303.83 225.32 304.00 225.26 304.16 225.21 304.31 225.11 304.45 225.02 304.59 224.90 304.71 224.77 304.82 224.62 304.90 224.48 304.98 224.32 305.02 224.15 305.07 223.98 305.07 223.82 305.07 223.65 305.04 223.49 305.00 223.34 304.92 223.19 304.85 223.06 304.74 222.94 304.63 222.84 304.49 222.74 304.36 222.68 304.20 222.62 304.04 222.59 303.88 222.57 303.71 219.99 303.35 217.42 302.98 215.10 302.22 212.79 301.46 210.76 301.06 208.73 300.65 206.55 300.29 204.36 299.93 202.00 299.68 199.63 299.43 197.46 299.03 195.28 298.62 192.83 297.41 190.37 296.20 189.46 294.32 188.56 292.44 188.26 290.36 187.96 288.27 187.34 286.60 186.72 284.92 186.64 284.77 186.55 284.62 186.51 284.45 186.46 284.28 186.46 284.11 186.46 283.93 186.50 283.76 186.53 283.59 186.61 283.44 186.69 283.28 186.80 283.15 186.91 283.02 187.05 282.92 187.20 282.82 187.36 282.75 187.52 282.69 187.69 282.66 187.86 282.64 188.04 282.66 188.21 282.67 188.37 282.73 188.54 282.79 188.68 282.89 188.83 282.98 188.94 283.11 189.06 283.24 189.95 285.14 190.83 287.04 192.31 289.92 193.78 292.80 195.91 297.30 198.03 301.79 199.82 305.93 201.61 310.06 202.76 313.20 203.92 316.34 205.04 318.25 206.16 320.17 206.88 322.25 207.60 324.34 206.75 325.99 205.91 327.63 205.71 327.64 205.52 327.66 205.32 327.63 205.13 327.59 204.95 327.52 204.77 327.44 204.62 327.32 204.46 327.20 204.34 327.05 204.21 326.90 204.13 326.72 204.05 326.54 204.01 326.35 203.97 326.16 203.98 325.96 203.99 325.77 204.05 325.58 204.10 325.39 204.20 325.22 204.30 325.05 204.44 324.91 204.57 324.77 204.74 324.67 204.91 324.56 205.09 324.50 205.28 324.44 204.36 322.38 203.44 320.32 203.42 318.11 203.41 315.90 203.11 312.18 202.81 308.45 202.78 306.37 202.75 304.29 202.75 301.63 202.75 298.97 202.93 296.40 203.10 293.83 203.63 291.86 204.16 289.89 206.12 287.28 208.08 284.67 208.08 284.67 208.08 284.68 208.08 284.68 208.08 284.69 207.76 287.27 207.44 289.86 206.80 292.05 206.17 294.23 205.97 296.60 205.77 298.97 205.77 301.62 205.78 304.27 205.79 306.33 205.81 308.39 206.12 311.47 206.44 314.54 206.45 316.78 206.47 319.02 206.58 321.13 206.70 323.24 206.31 325.44 205.91 327.63 205.71 327.64 205.52 327.66 205.32 327.63 205.13 327.59 204.95 327.52 204.77 327.44 204.62 327.32 204.46 327.20 204.34 327.05 204.21 326.90 204.13 326.72 204.05 326.54 204.01 326.35 203.97 326.16 203.98 325.96 203.99 325.77 204.05 325.58 204.10 325.39 204.20 325.22 204.30 325.05 204.44 324.91 204.57 324.77 204.74 324.67 204.91 324.56 205.09 324.50 205.28 324.44 205.03 324.75 204.79 325.05 204.18 322.96 203.57 320.87 202.51 319.03 201.44 317.18 200.21 314.25 198.97 311.32 197.02 307.13 195.07 302.94 193.07 298.35 191.06 293.76 190.07 291.44 189.08 289.12 187.90 287.02 186.72 284.92 186.64 284.77 186.55 284.62 186.51 284.45 186.46 284.28 186.46 284.11 186.46 283.93 186.50 283.76 186.53 283.59 186.61 283.44 186.69 283.28 186.80 283.15 186.91 283.02 187.05 282.92 187.20 282.82 187.36 282.75 187.52 282.69 187.69 282.66 187.86 282.64 188.03 282.66 188.21 282.67 188.37 282.73 188.54 282.79 188.68 282.89 188.82 282.98 188.94 283.11 189.06 283.24 189.50 284.66 189.94 286.07 190.49 288.15 191.05 290.22 191.58 292.19 192.12 294.15 194.01 295.03 195.91 295.91 198.15 296.32 200.39 296.73 202.42 296.92 204.45 297.10 206.85 297.48 209.25 297.86 211.45 298.32 213.66 298.77 215.77 299.41 217.89 300.06 219.81 300.84 221.73 301.63 223.54 302.65 225.35 303.66 225.34 303.83 225.32 304.00 225.26 304.16 225.21 304.31 225.11 304.45 225.02 304.59 224.90 304.71 224.77 304.82 224.62 304.90 224.48 304.98 224.32 305.02 224.15 305.07 223.99 305.07 223.82 305.07 223.65 305.04 223.49 305.00 223.34 304.92 223.19 304.85 223.06 304.74 222.94 304.63 222.84 304.49 222.74 304.36 222.68 304.20 222.62 304.04 222.59 303.88 222.57 303.71 222.61 304.00 222.66 304.29 220.73 304.98 218.81 305.66 217.02 306.74 215.24 307.82 213.30 309.03 211.37 310.24 209.55 311.08 207.72 311.91 205.40 312.87 203.08 313.83 200.72 314.35 198.35 314.87 196.18 315.02 194.00 315.17 190.92 314.62 187.84 314.07 186.41 312.59 184.98 311.11 186.04 309.02 187.09 306.94 188.93 305.13 190.76 303.32 192.16 301.47 193.55 299.62 195.41 297.24 197.27 294.87 198.78 292.77 200.29 290.67 201.57 288.80 202.84 286.92 204.38 285.37 205.91 283.82 207.05 283.58 208.19 283.34 208.20 283.35 Z"></path>
</svg>