<svg width="775" height="436" xmlns="http://www.w3.org/2000/svg" xmlns:xlink="http://www.w3.org/1999/xlink">
<path fill="#ffca3a" d="M 243.01 263.64 Q 243.01 263.64 243.61 263.18 244.21 262.72 244.81 266.04 245.40 269.36 244.97 271.76 244.54 274.17 243.70 276.72 242.87 279.27 241.85 281.29 240.84 283.31 239.77 285.20 238.71 287.08 237.56 288.14 236.40 289.20 236.40 289.20 236.39 289.20 236.39 289.20 236.39 289.21 236.90 285.82 237.42 282.43 238.59 280.30 239.77 278.17 240.52 275.78 241.28 273.39 241.60 271.38 241.93 269.37 242.24 266.97 242.56 264.58 242.78 264.12 243.01 263.66 243.01 263.65 Z"></path>
</svg>