<svg width="775" height="436" xmlns="http://www.w3.org/2000/svg" xmlns:xlink="http://www.w3.org/1999/xlink">
<path fill="#ffca3a" d="M 300.15 81.73 Q 300.15 81.73 300.24 82.84 300.32 83.96 299.62 82.07 298.91 80.19 300.40 78.41 301.89 76.62 303.74 75.35 305.58 74.08 307.73 71.80 309.88 69.52 311.93 67.93 313.97 66.34 315.77 64.87 317.57 63.40 319.46 61.74 321.36 60.07 323.46 58.46 325.56 56.85 327.20 55.54 328.85 54.24 330.50 52.95 332.16 51.66 333.94 50.51 335.72 49.35 337.65 47.79 339.58 46.23 342.04 44.69 344.50 43.16 345.70 45.29 346.91 47.43 346.91 47.43 346.90 47.43 346.90 47.42 346.89 47.42 347.79 49.59 348.68 51.76 346.20 53.62 343.71 55.48 340.99 57.41 338.27 59.33 336.59 60.68 334.91 62.03 332.99 63.40 331.08 64.78 329.23 66.06 327.39 67.34 325.35 68.92 323.31 70.50 321.19 72.07 319.06 73.64 317.27 74.89 315.47 76.14 313.80 77.46 312.12 78.78 309.57 80.41 307.01 82.04 304.90 83.41 302.79 84.78 300.76 85.28 298.73 85.79 298.59 83.01 298.46 80.23 299.30 80.97 300.14 81.71 300.15 81.72 Z"></path><path fill="#ffca3a" d="M 105.09 173.67 Q 105.09 173.67 104.70 176.57 104.31 179.46 100.54 183.67 96.77 187.89 91.92 192.32 87.07 196.75 83.33 199.95 79.60 203.16 77.52 204.67 75.45 206.18 73.49 207.67 71.53 209.16 69.21 207.89 66.89 206.62 66.89 206.62 66.89 206.62 66.90 206.63 66.90 206.63 67.15 204.28 67.39 201.93 69.02 200.71 70.66 199.48 72.56 198.02 74.46 196.57 78.46 193.72 82.46 190.88 87.42 187.12 92.37 183.36 96.09 179.77 99.81 176.19 102.45 174.92 105.08 173.66 105.08 173.67 Z"></path><path fill="#ffca3a" d="M 105.74 75.16 Q 105.74 75.16 103.99 74.95 102.24 74.74 100.58 73.16 98.93 71.58 97.11 70.05 95.28 68.51 93.36 66.53 91.44 64.55 89.55 62.64 87.66 60.72 86.23 59.25 84.80 57.77 82.58 55.40 80.35 53.02 78.06 50.38 75.77 47.74 74.36 46.07 72.95 44.40 73.85 43.29 74.76 42.17 74.76 42.17 74.75 42.17 74.75 42.18 74.75 42.18 77.46 42.18 80.17 42.17 81.66 43.86 83.16 45.55 84.53 47.11 85.90 48.67 87.81 50.86 89.72 53.05 91.18 54.70 92.64 56.34 94.24 58.34 95.85 60.34 97.48 62.52 99.11 64.70 100.66 66.57 102.20 68.43 103.46 70.11 104.72 71.78 105.23 73.46 105.75 75.14 105.74 75.15 Z"></path><path fill="#ffca3a" d="M 236.45 68.59 Q 236.45 68.59 236.67 68.52 236.90 68.45 237.03 68.34 237.16 68.23 237.34 68.34 237.52 68.46 237.67 68.62 237.83 68.78 237.93 68.97 238.04 69.16 238.10 69.37 238.16 69.58 238.17 69.80 238.18 70.02 238.14 70.23 238.09 70.44 238.00 70.64 237.90 70.84 237.76 71.01 237.62 71.18 237.45 71.31 237.27 71.44 237.07 71.52 236.87 71.61 236.66 71.64 236.44 71.68 236.22 71.66 236.00 71.64 235.80 71.57 235.59 71.50 235.37 69.48 235.14 67.46 235.84 65.09 236.53 62.72 237.53 58.84 238.53 54.96 239.30 52.20 240.06 49.45 242.28 43.69 244.50 37.93 245.34 35.93 246.18 33.94 247.21 31.40 248.25 28.86 249.31 26.85 250.37 24.83 251.88 22.88 253.38 20.93 256.34 21.14 259.30 21.35 259.30 21.35 259.30 21.36 259.31 21.36 259.31 21.37 258.61 24.23 257.90 27.10 256.57 29.42 255.24 31.74 254.17 34.30 253.11 36.87 252.26 38.86 251.42 40.85 249.23 46.10 247.04 51.35 246.07 54.33 245.11 57.31 244.10 59.38 243.09 61.45 242.38 63.32 241.68 65.20 239.42 66.71 237.15 68.23 237.34 68.34 237.52 68.46 237.67 68.62 237.83 68.78 237.93 68.97 238.04 69.16 238.10 69.37 238.16 69.58 238.17 69.80 238.18 70.01 238.14 70.23 238.09 70.44 238.00 70.64 237.90 70.84 237.76 71.01 237.63 71.18 237.45 71.31 237.27 71.44 237.07 71.52 236.87 71.61 236.66 71.64 236.44 71.68 236.22 71.66 236.00 71.64 235.80 71.57 235.59 71.50 235.41 71.24 235.23 70.98 235.83 69.78 236.43 68.58 236.44 68.58 Z"></path><path fill="#ffca3a" d="M 235.14 167.75 Q 235.14 167.75 236.47 168.03 237.80 168.30 239.17 170.15 240.53 172.00 241.60 173.93 242.66 175.86 243.71 178.19 244.76 180.53 245.56 182.52 246.36 184.50 247.28 186.69 248.19 188.87 249.23 191.30 250.26 193.73 251.28 196.05 252.30 198.38 253.00 200.29 253.71 202.20 253.06 204.65 252.42 207.11 253.94 205.65 255.46 204.18 255.46 204.18 255.47 204.18 255.47 204.18 255.47 204.19 256.21 206.34 256.95 208.49 254.57 209.23 252.20 209.98 250.34 208.17 248.49 206.36 247.64 204.47 246.80 202.58 246.06 200.60 245.33 198.63 244.58 196.37 243.83 194.11 242.96 192.12 242.09 190.14 241.00 187.06 239.90 183.98 239.03 181.31 238.16 178.63 237.25 176.68 236.35 174.72 235.16 172.47 233.96 170.23 234.54 169.00 235.12 167.76 235.13 167.76 Z"></path><path fill="#ffca3a" d="M 179.97 63.99 Q 179.97 63.99 180.36 65.07 180.75 66.15 178.30 66.78 175.85 67.41 174.69 64.78 173.52 62.15 172.47 59.11 171.42 56.08 170.52 53.52 169.62 50.96 168.95 48.43 168.29 45.91 167.78 43.54 167.28 41.18 166.75 38.36 166.22 35.54 165.80 33.40 165.38 31.27 164.92 29.03 164.47 26.78 165.64 23.42 166.81 20.05 166.82 20.05 166.82 20.05 166.83 20.05 166.83 20.05 169.00 22.59 171.17 25.12 171.83 27.48 172.50 29.84 172.93 31.98 173.36 34.11 173.96 36.91 174.55 39.72 175.00 42.08 175.45 44.45 175.94 46.60 176.43 48.76 177.17 51.59 177.91 54.42 178.45 57.23 178.98 60.03 178.32 62.06 177.65 64.08 178.80 64.03 179.95 63.98 179.96 63.99 Z"></path><path fill="#ffca3a" d="M 180.62 165.79 Q 180.62 165.79 181.51 167.61 182.39 169.44 181.59 171.74 180.80 174.05 177.84 180.11 174.88 186.17 173.70 188.45 172.53 190.72 171.10 193.30 169.67 195.87 168.39 198.04 167.12 200.22 165.46 202.34 163.81 204.46 161.39 205.78 158.96 207.10 158.96 207.10 158.95 207.10 158.95 207.10 158.94 207.10 159.17 204.58 159.39 202.06 160.62 199.74 161.85 197.42 163.07 195.08 164.30 192.74 165.75 190.36 167.21 187.98 168.38 185.70 169.55 183.43 172.37 178.19 175.20 172.95 176.26 170.57 177.33 168.18 178.97 166.98 180.60 165.78 180.61 165.79 Z"></path><path fill="#ffca3a" d="M 311.31 142.81 Q 311.31 142.81 310.49 143.50 309.67 144.19 309.47 144.20 309.27 144.20 309.05 144.06 308.83 143.91 308.65 143.72 308.48 143.53 308.35 143.30 308.22 143.07 308.16 142.82 308.09 142.56 308.08 142.30 308.08 142.04 308.14 141.79 308.19 141.53 308.31 141.30 308.43 141.06 308.60 140.86 308.77 140.67 308.98 140.51 309.19 140.36 309.43 140.26 309.68 140.16 309.94 140.13 310.19 140.09 310.45 140.12 310.72 140.14 310.96 140.23 311.21 140.32 313.85 140.30 316.48 140.28 319.44 141.42 322.40 142.55 324.67 143.37 326.94 144.18 329.38 145.35 331.82 146.52 333.75 147.36 335.67 148.20 337.86 149.08 340.05 149.96 342.12 150.63 344.20 151.30 347.10 151.98 350.01 152.67 352.71 153.27 355.42 153.88 357.59 154.73 359.77 155.58 363.96 157.25 368.15 158.92 368.15 158.93 368.15 158.93 368.15 158.94 368.15 158.94 363.54 158.98 358.94 159.01 355.40 158.76 351.86 158.52 349.32 158.30 346.78 158.09 344.73 157.66 342.67 157.24 340.13 156.65 337.59 156.06 335.37 155.14 333.15 154.23 331.08 153.31 329.02 152.40 326.93 151.57 324.83 150.74 322.28 149.76 319.73 148.77 316.53 147.16 313.33 145.55 311.30 144.87 309.27 144.20 309.05 144.06 308.83 143.91 308.65 143.72 308.48 143.53 308.35 143.30 308.22 143.07 308.16 142.82 308.09 142.56 308.08 142.30 308.08 142.04 308.14 141.79 308.19 141.53 308.31 141.30 308.43 141.06 308.60 140.86 308.77 140.67 308.98 140.51 309.19 140.36 309.43 140.26 309.68 140.16 309.94 140.13 310.19 140.09 310.45 140.12 310.71 140.14 310.96 140.23 311.21 140.32 311.33 140.49 311.44 140.65 311.38 141.72 311.32 142.79 311.31 142.80 Z"></path><path fill="#ffca3a" d="M 76.19 116.54 Q 76.19 116.54 75.81 117.92 75.43 119.31 73.43 119.72 71.43 120.14 69.34 120.71 67.25 121.27 64.57 121.68 61.89 122.08 59.56 122.29 57.23 122.49 55.22 122.82 53.20 123.15 50.18 123.59 47.15 124.04 44.36 124.36 41.57 124.68 39.31 125.20 37.05 125.73 34.66 126.13 32.28 126.53 29.13 126.05 25.98 125.57 25.98 125.56 25.97 125.56 25.97 125.55 25.97 125.55 29.35 122.50 32.72 119.45 35.38 118.68 38.04 117.91 40.31 117.68 42.58 117.45 44.74 117.11 46.89 116.78 49.47 116.50 52.05 116.23 54.53 115.96 57.01 115.70 59.09 115.62 61.17 115.55 63.56 115.30 65.95 115.06 68.54 114.59 71.13 114.13 73.28 113.94 75.43 113.75 75.81 115.13 76.19 116.52 76.19 116.53 Z"></path>
</svg>