<svg width="775" height="436" xmlns="http://www.w3.org/2000/svg" xmlns:xlink="http://www.w3.org/1999/xlink">
<path fill="#ffaff3" d="M 670.56 88.28 Q 670.56 88.28 670.14 87.10 669.71 85.92 669.51 83.76 669.30 81.59 668.72 79.55 668.14 77.50 666.75 75.51 665.36 73.53 664.58 71.56 663.80 69.60 665.13 71.11 666.46 72.62 664.86 71.10 663.26 69.59 662.79 67.49 662.32 65.40 662.34 63.22 662.35 61.04 663.25 58.28 664.14 55.53 665.90 54.52 667.66 53.52 666.17 54.88 664.67 56.25 666.78 54.28 668.89 52.32 670.75 51.31 672.61 50.29 674.67 49.96 676.73 49.63 678.92 49.26 681.12 48.89 684.13 49.49 687.15 50.09 688.98 51.55 690.81 53.02 692.50 55.25 694.18 57.48 694.46 59.58 694.75 61.67 694.05 63.96 693.35 66.24 691.90 67.85 690.45 69.46 689.10 71.04 687.75 72.61 686.18 73.88 684.61 75.14 686.02 73.67 687.42 72.20 687.49 72.41 687.55 72.63 687.49 73.01 687.43 73.39 687.29 73.74 687.14 74.10 686.91 74.41 686.68 74.72 686.39 74.96 686.09 75.21 685.74 75.37 685.40 75.54 685.02 75.62 684.65 75.70 684.26 75.69 683.88 75.68 683.51 75.57 683.14 75.47 682.80 75.28 682.47 75.09 682.19 74.82 681.91 74.56 681.70 74.24 681.49 73.91 681.37 73.55 681.24 73.18 681.21 72.80 681.18 72.42 682.96 70.86 684.74 69.30 685.80 67.32 686.86 65.33 688.63 64.28 690.41 63.23 692.70 62.31 694.99 61.40 697.42 60.75 699.85 60.11 701.90 60.07 703.94 60.02 706.61 60.55 709.29 61.08 710.35 62.92 711.41 64.75 711.43 66.87 711.44 68.99 711.33 71.03 711.22 73.07 709.95 75.03 708.68 76.98 707.70 78.82 706.71 80.65 704.22 82.20 701.73 83.76 699.88 85.02 698.03 86.29 695.95 86.96 693.87 87.63 691.82 88.01 689.76 88.40 687.58 88.41 685.41 88.43 683.36 88.71 681.31 89.00 678.84 89.65 676.37 90.31 674.71 91.92 673.06 93.53 673.06 93.53 673.06 93.54 673.06 93.54 673.06 93.55 670.94 92.15 668.83 90.76 669.94 88.73 671.06 86.69 672.87 85.39 674.68 84.09 677.67 83.43 680.66 82.77 683.47 82.17 686.28 81.57 688.63 81.94 690.98 82.31 693.34 81.75 695.70 81.19 697.41 79.68 699.13 78.17 700.68 76.51 702.22 74.84 703.38 72.86 704.55 70.87 704.49 68.76 704.42 66.65 702.25 66.64 700.07 66.63 697.48 67.27 694.88 67.92 693.18 69.12 691.49 70.33 689.82 71.52 688.16 72.72 686.45 74.23 684.74 75.74 686.15 74.18 687.55 72.63 687.49 73.01 687.44 73.39 687.29 73.74 687.14 74.10 686.91 74.41 686.68 74.71 686.39 74.96 686.09 75.21 685.74 75.37 685.40 75.54 685.02 75.62 684.65 75.70 684.26 75.69 683.88 75.68 683.51 75.57 683.14 75.47 682.80 75.28 682.47 75.09 682.19 74.82 681.91 74.56 681.70 74.24 681.49 73.91 681.37 73.55 681.24 73.19 681.21 72.80 681.18 72.42 681.26 71.98 681.35 71.53 683.01 70.16 684.67 68.80 683.20 70.25 681.73 71.70 682.34 69.76 682.96 67.83 684.21 66.15 685.46 64.47 686.61 62.79 687.77 61.10 686.26 59.23 684.76 57.35 682.41 56.65 680.07 55.96 677.68 55.73 675.29 55.50 673.08 57.62 670.86 59.73 670.89 61.92 670.91 64.11 671.17 66.13 671.42 68.16 669.89 66.70 668.37 65.23 669.81 66.64 671.26 68.04 671.88 70.21 672.49 72.39 674.09 74.16 675.70 75.94 675.51 77.98 675.32 80.02 675.19 82.83 675.05 85.64 674.00 87.39 672.94 89.14 671.76 88.72 670.58 88.29 670.57 88.29 Z"></path><path fill="#ffaff3" d="M 72.24 94.20 Q 72.24 94.20 71.35 93.98 70.45 93.75 68.86 92.00 67.26 90.25 65.22 90.58 63.17 90.91 60.87 91.34 58.57 91.78 56.38 91.94 54.20 92.10 51.51 91.25 48.82 90.41 46.72 89.21 44.61 88.02 43.34 86.46 42.07 84.90 40.78 82.74 39.49 80.59 39.12 78.53 38.75 76.47 38.43 74.40 38.11 72.34 38.14 70.11 38.16 67.88 39.61 65.70 41.06 63.51 42.79 62.24 44.52 60.98 46.68 60.27 48.84 59.57 50.85 59.25 52.85 58.93 56.11 59.88 59.36 60.83 60.87 62.26 62.39 63.70 63.48 65.71 64.58 67.72 65.62 69.51 66.66 71.31 66.83 71.91 66.99 72.52 66.95 72.83 66.92 73.15 66.80 73.44 66.69 73.74 66.51 74.00 66.33 74.26 66.09 74.47 65.86 74.68 65.58 74.83 65.30 74.98 64.99 75.05 64.68 75.13 64.36 75.13 64.05 75.13 63.74 75.05 63.43 74.98 63.15 74.83 62.87 74.68 62.63 74.47 62.40 74.26 62.22 74.00 62.04 73.74 61.93 73.44 61.81 73.15 61.77 72.83 61.74 72.52 60.68 70.81 59.61 69.10 58.98 67.09 58.34 65.08 58.31 63.04 58.28 61.01 59.10 58.79 59.93 56.57 61.81 54.91 63.69 53.24 66.20 51.96 68.71 50.68 70.80 50.30 72.89 49.91 75.19 51.02 77.50 52.12 79.94 52.83 82.38 53.53 83.71 55.38 85.03 57.22 85.75 59.40 86.47 61.58 87.14 64.02 87.82 66.47 87.93 68.48 88.03 70.49 86.61 73.12 85.19 75.74 83.82 77.76 82.44 79.78 82.08 81.80 81.73 83.83 79.79 85.81 77.86 87.79 77.83 90.62 77.80 93.45 77.90 94.54 78.01 95.62 78.01 95.63 78.01 95.63 78.02 95.63 78.02 95.64 75.88 96.79 73.74 97.94 72.60 95.29 71.45 92.65 71.75 90.58 72.04 88.51 72.67 86.47 73.30 84.44 74.61 82.23 75.91 80.02 76.97 78.30 78.03 76.58 79.37 74.73 80.71 72.89 81.13 70.71 81.54 68.53 81.56 66.51 81.58 64.48 81.56 62.44 81.54 60.41 79.26 58.72 76.99 57.03 74.56 56.38 72.14 55.73 69.99 56.52 67.83 57.30 65.89 58.82 63.95 60.35 63.89 62.53 63.84 64.71 64.31 66.70 64.79 68.69 65.89 70.60 66.99 72.52 66.95 72.83 66.92 73.15 66.80 73.44 66.69 73.74 66.51 74.00 66.33 74.26 66.09 74.47 65.86 74.68 65.58 74.83 65.30 74.98 64.99 75.05 64.68 75.13 64.37 75.13 64.05 75.13 63.74 75.05 63.43 74.98 63.15 74.83 62.87 74.68 62.64 74.47 62.40 74.26 62.22 74.00 62.04 73.74 61.93 73.44 61.81 73.15 61.77 72.83 61.74 72.52 62.01 73.12 62.29 73.71 60.72 71.60 59.15 69.48 58.15 67.59 57.15 65.69 55.10 65.32 53.04 64.96 50.67 64.60 48.29 64.25 46.71 65.50 45.13 66.76 44.89 69.05 44.65 71.33 44.23 73.33 43.82 75.33 44.36 77.61 44.91 79.90 46.18 81.51 47.46 83.11 49.88 84.11 52.31 85.11 54.53 85.79 56.76 86.48 59.39 86.04 62.03 85.61 64.01 86.22 65.99 86.83 67.94 87.68 69.88 88.53 71.20 90.45 72.53 92.37 72.39 93.28 72.25 94.19 72.25 94.20 Z"></path><path fill="#ffaff3" d="M 658.09 352.30 Q 658.09 352.30 658.63 351.38 659.17 350.46 660.16 348.70 661.16 346.95 660.79 344.77 660.42 342.58 659.86 340.32 659.30 338.05 658.49 336.18 657.68 334.31 656.29 332.00 654.89 329.69 654.16 327.54 653.43 325.40 654.02 322.28 654.62 319.16 655.19 316.96 655.76 314.75 656.99 312.92 658.23 311.10 659.69 309.68 661.15 308.27 663.10 307.63 665.05 306.99 667.02 306.60 668.98 306.21 670.95 305.84 672.92 305.48 675.18 306.13 677.45 306.78 678.97 308.28 680.49 309.78 679.03 308.27 677.57 306.77 679.19 308.02 680.82 309.28 682.71 311.52 684.60 313.77 685.24 315.95 685.89 318.13 685.74 320.13 685.59 322.13 684.74 323.95 683.88 325.77 682.56 327.44 681.24 329.10 681.66 328.93 682.09 328.77 682.02 329.20 681.96 329.63 681.79 330.04 681.63 330.45 681.37 330.80 681.11 331.15 680.77 331.43 680.44 331.72 680.04 331.91 679.65 332.10 679.22 332.20 678.79 332.29 678.35 332.28 677.92 332.26 677.49 332.15 677.07 332.03 676.69 331.82 676.31 331.60 675.99 331.30 675.67 331.00 675.43 330.64 675.19 330.27 675.04 329.85 674.90 329.44 674.86 329.00 674.82 328.57 675.55 326.49 676.27 324.41 677.60 322.79 678.93 321.17 680.50 319.65 682.06 318.13 683.92 317.34 685.77 316.56 687.69 315.91 689.60 315.25 691.95 315.28 694.29 315.30 697.46 316.28 700.64 317.26 701.84 319.17 703.04 321.09 703.72 323.35 704.40 325.60 703.73 327.86 703.05 330.13 702.41 332.59 701.76 335.06 700.67 337.18 699.58 339.30 698.06 340.88 696.53 342.46 695.01 343.92 693.49 345.37 691.33 346.31 689.18 347.26 686.99 347.69 684.80 348.13 682.78 348.48 680.76 348.82 678.77 349.16 676.79 349.49 674.65 349.45 672.51 349.41 670.51 350.07 668.51 350.73 666.47 351.15 664.43 351.57 663.31 351.21 662.18 350.86 662.18 350.86 662.17 350.86 662.17 350.85 662.17 350.85 661.97 348.97 661.78 347.09 663.87 345.56 665.97 344.04 668.43 343.07 670.88 342.10 673.09 342.06 675.30 342.01 677.34 341.76 679.37 341.52 681.53 341.42 683.70 341.32 686.05 340.73 688.40 340.15 690.30 339.54 692.21 338.94 693.49 337.14 694.77 335.35 695.41 333.20 696.05 331.05 696.89 328.83 697.73 326.61 697.49 324.50 697.24 322.39 695.23 322.34 693.22 322.28 691.18 322.33 689.13 322.39 687.12 323.47 685.10 324.55 683.60 326.66 682.09 328.77 682.02 329.20 681.96 329.63 681.79 330.04 681.63 330.45 681.37 330.80 681.11 331.15 680.77 331.43 680.44 331.72 680.04 331.91 679.65 332.10 679.22 332.20 678.79 332.29 678.35 332.28 677.92 332.26 677.49 332.15 677.07 332.03 676.69 331.82 676.31 331.60 675.99 331.30 675.67 331.00 675.43 330.64 675.19 330.27 675.04 329.85 674.90 329.44 674.86 329.00 674.82 328.57 674.75 327.81 674.69 327.05 676.58 325.37 678.47 323.70 676.80 325.37 675.13 327.03 675.76 325.07 676.38 323.10 676.99 321.10 677.61 319.10 676.87 317.05 676.13 315.00 674.25 313.26 672.36 311.53 674.23 312.98 676.10 314.43 674.17 313.70 672.25 312.98 669.31 313.93 666.37 314.88 664.42 315.60 662.48 316.31 663.96 314.58 665.44 312.85 664.47 315.00 663.50 317.16 662.82 319.34 662.14 321.53 661.72 323.57 661.30 325.60 662.51 328.19 663.72 330.77 664.39 332.69 665.05 334.61 665.83 337.01 666.60 339.42 666.76 341.44 666.91 343.46 666.48 345.59 666.05 347.72 664.66 349.27 663.27 350.82 661.66 352.11 660.04 353.41 659.07 352.86 658.10 352.32 658.09 352.31 Z"></path><path fill="#ffaff3" d="M 91.28 374.64 Q 91.28 374.64 90.73 373.70 90.18 372.75 89.60 370.71 89.01 368.66 87.13 366.74 85.25 364.82 82.99 364.97 80.73 365.13 78.54 364.72 76.34 364.31 74.33 363.74 72.32 363.16 70.33 362.35 68.34 361.55 66.88 360.15 65.41 358.74 63.88 357.01 62.35 355.27 61.65 352.98 60.94 350.69 60.33 348.30 59.71 345.91 60.24 343.57 60.77 341.23 61.18 339.13 61.59 337.02 63.08 335.47 64.57 333.92 65.70 332.21 66.83 330.50 68.79 329.83 70.75 329.15 72.69 328.49 74.64 327.82 77.38 329.28 80.12 330.74 82.11 331.73 84.11 332.72 85.40 334.83 86.70 336.94 88.05 339.09 89.41 341.24 90.28 342.89 91.14 344.53 91.16 344.91 91.19 345.29 91.11 345.67 91.04 346.05 90.88 346.40 90.72 346.75 90.49 347.05 90.25 347.35 89.95 347.58 89.64 347.82 89.29 347.98 88.94 348.13 88.56 348.20 88.18 348.27 87.80 348.24 87.42 348.22 87.05 348.10 86.69 347.98 86.36 347.78 86.03 347.58 85.76 347.31 85.49 347.04 85.30 346.71 85.10 346.38 84.99 346.01 84.87 345.64 84.57 342.87 84.26 340.09 84.21 338.06 84.16 336.04 85.14 333.80 86.13 331.56 87.15 329.60 88.17 327.63 89.98 326.64 91.79 325.64 94.24 325.28 96.68 324.93 99.41 325.44 102.14 325.95 104.15 326.94 106.15 327.93 107.81 329.22 109.47 330.51 111.01 331.96 112.54 333.40 113.72 335.69 114.90 337.98 115.19 340.02 115.48 342.07 114.59 344.73 113.70 347.39 112.93 349.55 112.16 351.71 110.94 353.48 109.73 355.25 108.04 357.19 106.35 359.13 105.03 360.75 103.71 362.36 101.91 363.75 100.11 365.14 98.31 366.34 96.52 367.54 94.73 368.56 92.95 369.59 91.47 372.06 89.99 374.53 89.98 374.53 89.98 374.53 89.97 374.53 89.97 374.53 89.60 370.70 89.23 366.87 90.67 365.43 92.11 363.98 93.90 362.86 95.68 361.74 97.54 360.70 99.39 359.65 100.68 358.02 101.96 356.38 103.42 353.91 104.87 351.44 106.05 349.70 107.22 347.95 107.89 345.91 108.56 343.86 108.71 341.76 108.86 339.65 107.50 337.68 106.14 335.70 103.99 334.08 101.84 332.45 100.01 331.57 98.18 330.70 95.28 331.11 92.39 331.52 91.48 333.53 90.57 335.54 90.57 337.74 90.56 339.94 90.85 342.23 91.14 344.53 91.16 344.91 91.19 345.29 91.11 345.67 91.04 346.05 90.88 346.40 90.72 346.75 90.49 347.05 90.25 347.35 89.95 347.58 89.64 347.82 89.29 347.97 88.94 348.13 88.56 348.20 88.19 348.27 87.80 348.24 87.42 348.22 87.05 348.10 86.69 347.98 86.36 347.78 86.03 347.58 85.76 347.31 85.49 347.04 85.30 346.71 85.10 346.38 84.99 346.01 84.87 345.65 85.47 345.86 86.06 346.08 84.54 343.94 83.01 341.79 81.62 339.57 80.23 337.35 77.92 335.74 75.62 334.13 73.02 335.41 70.42 336.70 69.07 338.36 67.72 340.02 67.08 342.49 66.45 344.96 66.45 347.11 66.46 349.26 67.88 351.19 69.31 353.12 70.85 355.15 72.39 357.17 74.66 357.96 76.94 358.74 79.10 359.46 81.26 360.18 83.35 360.69 85.43 361.21 87.46 362.63 89.49 364.05 90.82 366.04 92.14 368.04 92.27 370.39 92.40 372.75 91.85 373.70 91.30 374.64 91.29 374.64 Z"></path>
</svg>
