<svg width="775" height="436" xmlns="http://www.w3.org/2000/svg" xmlns:xlink="http://www.w3.org/1999/xlink">
<path fill="#6a4c93" d="M 594.38 389.76 Q 594.38 389.76 592.93 389.85 591.47 389.94 589.35 388.78 587.22 387.61 585.76 385.72 584.30 383.82 583.02 381.93 581.74 380.03 580.64 377.51 579.55 375.00 578.75 372.63 577.95 370.26 577.49 367.85 577.03 365.44 577.24 363.18 577.45 360.92 577.75 358.49 578.05 356.07 578.84 353.84 579.63 351.62 580.68 349.56 581.72 347.50 582.74 345.50 583.76 343.50 585.62 340.35 587.49 337.20 589.58 334.36 591.66 331.52 593.65 329.12 595.65 326.72 597.88 324.51 600.12 322.30 601.99 320.51 603.85 318.72 606.59 316.69 609.32 314.66 612.17 312.67 615.01 310.68 617.73 309.02 620.45 307.35 623.39 305.84 626.32 304.33 629.36 302.73 632.41 301.13 635.65 299.64 638.90 298.15 641.46 297.17 644.02 296.19 646.05 295.61 648.09 295.04 651.91 294.34 655.73 293.64 657.90 293.49 660.07 293.35 662.57 293.32 665.07 293.29 668.05 293.46 671.04 293.63 673.02 293.93 675.00 294.24 677.16 294.75 679.31 295.27 681.69 296.11 684.07 296.94 686.28 297.67 688.50 298.39 690.61 299.31 692.72 300.23 694.62 301.20 696.53 302.16 698.24 303.33 699.94 304.51 701.51 306.03 703.07 307.56 704.53 309.44 705.99 311.33 707.02 313.11 708.04 314.89 709.36 316.88 710.68 318.87 711.97 320.76 713.26 322.65 714.40 325.01 715.54 327.38 716.31 329.49 717.08 331.60 717.54 334.03 718.00 336.47 718.38 338.63 718.76 340.79 719.07 342.88 719.39 344.97 719.75 347.84 720.12 350.71 719.74 353.13 719.36 355.55 718.76 357.81 718.15 360.08 717.50 362.10 716.85 364.13 715.99 366.49 715.13 368.85 713.72 370.95 712.30 373.05 711.20 374.83 710.09 376.61 708.30 378.74 706.51 380.87 705.13 382.51 703.75 384.15 702.03 385.91 700.32 387.68 698.23 388.86 696.14 390.04 694.22 391.34 692.31 392.64 690.19 393.53 688.07 394.41 685.24 395.54 682.42 396.67 680.24 397.50 678.06 398.33 675.96 399.03 673.87 399.73 671.82 400.24 669.78 400.75 667.54 401.06 665.31 401.38 663.34 401.70 661.36 402.03 658.14 402.43 654.91 402.83 652.89 402.85 650.86 402.86 648.18 402.50 645.50 402.14 643.43 401.96 641.35 401.78 639.03 401.37 636.71 400.95 634.33 400.65 631.96 400.35 629.92 399.80 627.87 399.25 625.81 398.43 623.74 397.62 621.70 396.90 619.66 396.18 617.64 395.58 615.61 394.98 613.67 394.33 611.73 393.68 609.84 392.94 607.96 392.19 605.87 391.94 603.77 391.70 601.52 391.40 599.28 391.10 597.21 390.76 595.14 390.43 593.10 389.94 591.07 389.46 589.00 388.91 586.93 388.36 584.88 387.04 582.82 385.71 581.45 381.90 580.07 378.09 580.08 378.08 580.08 378.08 580.08 378.08 580.09 378.07 581.99 379.03 583.90 379.99 585.47 381.24 587.03 382.50 589.04 383.46 591.05 384.42 593.29 384.80 595.53 385.17 597.54 385.49 599.55 385.82 601.67 386.19 603.79 386.56 605.84 386.86 607.89 387.16 609.94 387.72 612.00 388.27 613.96 388.93 615.93 389.58 618.06 390.35 620.20 391.12 622.49 391.69 624.79 392.26 626.63 393.07 628.48 393.88 630.71 394.51 632.95 395.15 634.97 395.44 636.99 395.74 639.66 396.20 642.32 396.66 644.96 397.18 647.61 397.70 649.64 397.67 651.67 397.63 654.36 397.58 657.04 397.52 659.40 397.11 661.75 396.69 663.88 396.40 666.01 396.10 669.13 395.58 672.24 395.06 674.44 394.27 676.64 393.48 678.59 392.73 680.54 391.97 683.40 390.83 686.25 389.70 688.30 388.85 690.34 388.00 692.05 386.91 693.75 385.83 695.70 384.70 697.65 383.57 699.04 382.04 700.42 380.52 702.08 378.55 703.74 376.58 705.43 374.43 707.13 372.28 708.89 369.69 710.66 367.11 711.50 364.88 712.34 362.65 712.99 360.66 713.63 358.68 714.23 356.62 714.83 354.56 715.14 351.84 715.46 349.12 715.15 346.98 714.83 344.85 714.49 342.60 714.15 340.35 713.67 338.14 713.19 335.94 712.75 333.95 712.31 331.95 711.54 329.97 710.77 327.99 709.77 326.01 708.77 324.03 707.61 322.29 706.45 320.55 705.32 318.82 704.19 317.08 702.46 314.18 700.73 311.29 699.16 309.74 697.59 308.18 695.69 306.85 693.78 305.53 691.22 304.13 688.66 302.73 686.29 301.99 683.92 301.24 681.76 300.34 679.59 299.44 677.48 298.85 675.36 298.26 672.98 297.87 670.59 297.47 667.83 297.26 665.08 297.06 662.64 297.09 660.20 297.12 658.19 297.25 656.19 297.38 652.87 297.97 649.55 298.55 647.42 299.13 645.28 299.72 642.82 300.66 640.36 301.61 637.27 303.01 634.18 304.41 631.03 306.02 627.89 307.63 625.16 309.00 622.42 310.36 619.62 312.03 616.82 313.71 614.03 315.62 611.24 317.54 608.74 319.35 606.24 321.16 604.32 322.98 602.40 324.81 600.31 326.85 598.22 328.89 596.26 331.26 594.29 333.62 592.32 336.30 590.36 338.98 588.58 342.00 586.79 345.02 585.78 347.04 584.77 349.07 583.86 350.90 582.94 352.73 582.26 354.69 581.58 356.65 581.26 358.95 580.93 361.26 580.87 363.74 580.80 366.22 581.24 368.43 581.67 370.63 582.38 372.95 583.09 375.26 584.53 378.42 585.98 381.59 587.16 383.51 588.35 385.43 590.18 386.74 592.01 388.05 593.20 388.89 594.39 389.74 594.39 389.75 Z"></path><path fill="#6a4c93" d="M 638.39 318.83 Q 638.39 318.83 637.45 319.67 636.50 320.51 634.80 322.58 633.10 324.66 631.85 326.69 630.60 328.72 633.11 327.02 635.62 325.32 637.22 323.85 638.82 322.38 636.46 321.04 634.10 319.69 633.76 321.84 633.43 324.00 632.39 326.24 631.35 328.48 632.85 326.83 634.36 325.18 635.28 323.33 636.20 321.48 634.36 323.59 632.53 325.71 633.53 323.78 634.54 321.86 633.49 323.77 632.45 325.69 633.47 323.70 634.49 321.70 633.43 324.27 632.37 326.84 632.30 326.99 632.22 327.13 632.26 327.43 632.30 327.73 632.27 328.03 632.24 328.34 632.13 328.62 632.03 328.90 631.86 329.16 631.69 329.41 631.47 329.61 631.24 329.82 630.98 329.96 630.71 330.11 630.42 330.18 630.13 330.26 629.82 330.26 629.52 330.27 629.23 330.20 628.93 330.13 628.66 329.99 628.39 329.86 628.16 329.66 627.93 329.46 627.76 329.21 627.58 328.97 627.47 328.69 627.36 328.40 629.02 326.59 630.68 324.77 632.95 322.87 635.22 320.97 634.72 322.93 634.23 324.89 634.51 324.03 634.79 323.16 634.79 323.17 634.80 323.17 634.80 323.17 634.81 323.18 634.40 325.01 633.99 326.84 631.48 326.89 628.97 326.93 629.73 324.33 630.48 321.74 632.03 320.44 633.57 319.13 636.23 318.44 638.89 317.75 639.12 319.86 639.36 321.97 637.94 323.69 636.51 325.41 634.37 326.27 632.22 327.13 632.26 327.43 632.30 327.73 632.27 328.03 632.24 328.34 632.13 328.62 632.03 328.90 631.86 329.16 631.69 329.41 631.47 329.61 631.24 329.82 630.98 329.96 630.71 330.11 630.42 330.18 630.13 330.26 629.82 330.26 629.52 330.27 629.23 330.20 628.93 330.13 628.66 329.99 628.39 329.86 628.16 329.66 627.93 329.46 627.76 329.21 627.58 328.97 627.47 328.69 627.36 328.40 627.18 327.18 627.01 325.96 628.15 323.62 629.29 321.28 631.12 319.40 632.95 317.53 635.02 317.56 637.09 317.60 638.02 319.45 638.95 321.30 637.81 323.76 636.66 326.23 635.05 327.73 633.44 329.24 631.31 329.89 629.18 330.54 627.75 328.79 626.31 327.03 626.93 325.11 627.55 323.19 628.73 321.47 629.91 319.74 632.16 318.68 634.42 317.63 636.63 318.81 638.84 319.99 638.45 322.22 638.07 324.45 636.36 326.52 634.65 328.59 633.02 329.76 631.38 330.92 629.43 330.07 627.48 329.22 627.45 326.71 627.43 324.21 628.54 322.52 629.65 320.84 632.04 318.84 634.44 316.85 637.00 317.51 639.56 318.18 640.02 320.33 640.49 322.48 639.78 324.60 639.08 326.72 637.62 328.48 636.17 330.24 634.20 331.61 632.23 332.98 629.54 333.11 626.85 333.24 626.35 329.81 625.86 326.39 627.92 323.35 629.97 320.32 631.24 318.58 632.50 316.84 635.58 316.79 638.67 316.74 640.21 318.26 641.75 319.78 642.00 322.20 642.25 324.62 640.52 326.43 638.79 328.24 636.87 329.56 634.95 330.87 632.90 332.06 630.85 333.24 628.82 332.89 626.79 332.53 626.34 330.32 625.88 328.11 627.18 326.15 628.47 324.20 630.05 322.10 631.63 320.00 634.07 318.56 636.50 317.12 637.45 317.97 638.39 318.81 638.39 318.82 Z"></path><path fill="#6a4c93" d="M 654.80 326.04 Q 654.80 326.04 654.00 325.34 653.21 324.64 651.41 327.00 649.61 329.35 648.88 331.71 648.15 334.07 650.10 332.83 652.06 331.58 654.03 330.12 656.00 328.65 653.86 328.20 651.72 327.76 650.37 329.57 649.01 331.38 651.16 329.74 653.30 328.10 651.49 329.53 649.67 330.96 651.48 329.94 653.30 328.92 651.50 330.18 649.70 331.44 651.09 329.80 652.48 328.15 650.94 329.63 649.40 331.10 650.32 329.20 651.24 327.30 651.24 327.30 651.24 327.29 651.24 327.29 651.24 327.28 652.27 329.66 653.31 332.04 651.83 333.44 650.35 334.84 648.16 335.12 645.96 335.40 645.36 333.38 644.76 331.37 645.58 329.44 646.39 327.51 647.80 325.93 649.20 324.34 652.06 324.32 654.91 324.29 655.34 326.48 655.76 328.66 654.73 330.46 653.70 332.26 652.28 333.76 650.86 335.27 648.50 335.66 646.13 336.04 645.58 334.01 645.04 331.97 646.05 329.97 647.06 327.97 649.73 325.95 652.41 323.94 654.62 324.32 656.84 324.71 657.02 326.80 657.20 328.90 656.06 330.66 654.92 332.42 653.34 333.87 651.76 335.31 648.79 335.87 645.81 336.43 645.09 334.49 644.37 332.56 645.24 330.46 646.10 328.35 647.47 326.70 648.84 325.05 650.42 323.62 651.99 322.20 654.06 322.43 656.12 322.65 656.79 325.21 657.45 327.78 656.24 329.72 655.03 331.67 653.44 333.44 651.84 335.20 649.03 335.98 646.21 336.76 645.34 334.22 644.47 331.67 645.46 329.53 646.44 327.40 648.31 325.46 650.18 323.52 652.54 323.12 654.89 322.73 656.87 323.51 658.86 324.29 659.22 326.63 659.57 328.97 658.11 330.98 656.64 332.99 654.72 334.40 652.80 335.82 650.53 336.61 648.26 337.41 646.22 336.70 644.18 335.99 644.33 333.01 644.48 330.03 646.66 327.47 648.85 324.91 650.47 323.55 652.08 322.20 654.25 323.31 656.41 324.42 655.61 325.23 654.82 326.04 654.81 326.04 Z"></path><path fill="#6a4c93" d="M 631.83 343.78 Q 631.83 343.78 631.55 344.86 631.28 345.93 633.36 346.18 635.45 346.42 637.55 346.22 639.66 346.02 639.81 345.49 639.96 344.95 640.16 344.77 640.36 344.59 640.60 344.46 640.83 344.33 641.09 344.26 641.36 344.19 641.63 344.18 641.90 344.18 642.16 344.24 642.42 344.30 642.67 344.42 642.91 344.54 643.11 344.72 643.32 344.90 643.47 345.12 643.63 345.33 643.73 345.59 643.83 345.84 643.87 346.11 643.91 346.37 643.88 346.64 643.85 346.91 643.76 347.17 643.67 347.42 643.52 347.64 643.37 347.87 643.73 347.45 644.10 347.02 644.07 347.31 644.04 347.60 643.94 347.88 643.84 348.15 643.67 348.39 643.51 348.64 643.30 348.83 643.08 349.03 642.82 349.17 642.57 349.31 642.28 349.38 642.00 349.46 641.71 349.46 641.42 349.47 641.13 349.40 640.85 349.34 640.59 349.20 640.33 349.07 640.10 348.88 639.88 348.69 639.71 348.45 639.54 348.21 639.44 347.94 639.33 347.67 639.29 347.38 639.25 347.09 637.84 348.58 636.43 350.07 634.31 349.65 632.19 349.23 630.41 347.93 628.64 346.63 628.28 344.63 627.93 342.63 627.93 342.63 627.93 342.63 627.94 342.63 627.94 342.63 630.00 343.32 632.05 344.02 634.24 344.68 636.43 345.35 638.54 345.07 640.65 344.78 642.37 345.90 644.10 347.02 644.07 347.31 644.04 347.60 643.94 347.88 643.84 348.15 643.67 348.39 643.51 348.64 643.30 348.83 643.08 349.03 642.82 349.17 642.57 349.31 642.28 349.38 642.00 349.46 641.71 349.46 641.42 349.47 641.13 349.40 640.85 349.34 640.59 349.20 640.33 349.07 640.10 348.88 639.88 348.69 639.71 348.45 639.54 348.21 639.44 347.94 639.33 347.67 639.29 347.38 639.25 347.09 639.60 346.02 639.96 344.95 640.16 344.77 640.36 344.59 640.60 344.46 640.83 344.33 641.09 344.26 641.36 344.19 641.63 344.18 641.90 344.18 642.16 344.24 642.42 344.30 642.66 344.42 642.91 344.54 643.11 344.72 643.32 344.90 643.47 345.11 643.63 345.33 643.73 345.59 643.83 345.84 643.87 346.10 643.91 346.37 643.88 346.64 643.85 346.91 643.76 347.17 643.67 347.42 643.52 347.64 643.37 347.87 642.13 349.19 640.89 350.51 638.70 351.00 636.52 351.50 634.54 351.09 632.55 350.68 630.62 348.67 628.68 346.66 629.39 344.52 630.10 342.37 630.96 343.07 631.82 343.76 631.82 343.77 Z"></path><path fill="#1982c4" d="M 686.98 293.21 Q 686.98 293.21 686.17 292.95 685.36 292.68 684.55 292.89 683.74 293.10 683.53 292.92 683.33 292.74 683.17 292.51 683.01 292.29 682.92 292.03 682.82 291.78 682.79 291.50 682.75 291.23 682.79 290.96 682.82 290.69 682.92 290.43 683.01 290.18 683.17 289.95 683.32 289.73 683.53 289.55 683.73 289.37 683.97 289.24 684.22 289.11 684.48 289.05 684.75 288.98 685.02 288.98 685.29 288.98 685.56 289.05 685.83 289.11 686.07 289.24 686.31 289.36 687.81 291.38 689.30 293.40 690.89 295.68 692.48 297.95 694.08 299.35 695.68 300.74 698.33 301.79 700.97 302.84 702.83 304.85 704.69 306.87 706.07 308.97 707.45 311.08 710.19 311.42 712.93 311.77 714.54 313.81 716.15 315.85 717.97 317.53 719.79 319.21 719.53 319.44 719.27 319.67 719.64 319.73 720.01 319.79 720.35 319.93 720.69 320.07 720.99 320.29 721.29 320.51 721.53 320.80 721.77 321.09 721.93 321.42 722.09 321.76 722.17 322.12 722.24 322.48 722.23 322.86 722.22 323.23 722.12 323.59 722.02 323.94 721.83 324.27 721.65 324.59 721.40 324.86 721.14 325.13 720.83 325.33 720.51 325.53 720.16 325.65 719.81 325.77 719.44 325.81 719.07 325.84 717.08 324.57 715.09 323.30 713.22 322.10 711.35 320.90 708.97 319.25 706.59 317.60 704.27 315.95 701.95 314.29 700.20 312.98 698.45 311.67 696.66 310.25 694.87 308.83 693.32 307.57 691.76 306.31 690.58 304.51 689.39 302.70 688.02 301.12 686.65 299.54 685.51 297.41 684.36 295.29 683.63 293.16 682.89 291.03 683.07 290.73 683.26 290.43 682.97 290.34 682.68 290.25 682.41 290.09 682.15 289.94 681.94 289.72 681.72 289.51 681.56 289.25 681.41 288.99 681.32 288.70 681.23 288.41 681.21 288.10 681.19 287.80 681.24 287.50 681.30 287.20 681.42 286.92 681.54 286.64 681.73 286.40 681.92 286.16 682.16 285.98 682.40 285.79 682.68 285.66 682.95 285.54 683.25 285.48 683.55 285.43 683.85 285.45 684.16 285.46 684.59 287.68 685.03 289.90 685.02 289.90 685.02 289.90 685.01 289.90 685.01 289.90 684.13 290.16 683.26 290.43 682.97 290.34 682.68 290.25 682.41 290.09 682.15 289.94 681.94 289.72 681.72 289.51 681.57 289.25 681.41 288.99 681.32 288.70 681.23 288.41 681.21 288.10 681.19 287.80 681.24 287.50 681.30 287.20 681.42 286.92 681.54 286.64 681.73 286.40 681.92 286.16 682.16 285.98 682.40 285.79 682.68 285.66 682.95 285.54 683.25 285.48 683.55 285.43 683.85 285.45 684.16 285.46 684.30 285.47 684.44 285.48 685.96 287.00 687.48 288.52 687.67 290.53 687.85 292.55 689.70 294.39 691.54 296.23 693.08 298.83 694.61 301.43 696.20 302.81 697.80 304.18 699.43 305.37 701.06 306.55 702.78 307.62 704.51 308.69 706.00 310.40 707.48 312.11 709.73 313.37 711.98 314.63 713.93 315.94 715.89 317.25 717.58 318.46 719.27 319.67 719.64 319.73 720.01 319.79 720.35 319.93 720.69 320.07 720.99 320.29 721.29 320.51 721.53 320.80 721.77 321.09 721.93 321.42 722.09 321.76 722.17 322.12 722.24 322.48 722.23 322.86 722.22 323.23 722.12 323.59 722.02 323.94 721.83 324.27 721.65 324.59 721.40 324.86 721.14 325.13 720.83 325.33 720.51 325.53 720.16 325.65 719.81 325.77 719.44 325.81 719.07 325.84 718.93 325.82 718.79 325.80 717.39 324.34 715.99 322.89 714.11 321.60 712.23 320.31 710.45 318.94 708.68 317.58 706.70 317.25 704.71 316.92 702.69 315.37 700.68 313.82 699.31 311.48 697.95 309.14 695.92 308.44 693.89 307.73 692.02 306.26 690.16 304.79 688.81 303.15 687.47 301.52 686.29 299.21 685.11 296.90 684.43 295.00 683.74 293.10 683.53 292.92 683.33 292.74 683.17 292.51 683.02 292.29 682.92 292.03 682.82 291.78 682.79 291.50 682.75 291.23 682.79 290.96 682.82 290.69 682.92 290.44 683.01 290.18 683.17 289.95 683.32 289.73 683.53 289.55 683.73 289.37 683.97 289.24 684.22 289.11 684.48 289.05 684.75 288.98 685.02 288.98 685.29 288.98 685.56 289.05 685.83 289.11 686.07 289.24 686.31 289.36 686.71 290.41 687.11 291.45 687.05 292.32 687.00 293.20 686.99 293.20 Z"></path><path fill="#1982c4" d="M 691.58 301.09 Q 691.58 301.09 690.54 301.00 689.50 300.91 690.09 298.69 690.68 296.47 692.03 294.61 693.39 292.75 695.39 291.16 697.40 289.58 699.24 288.36 701.08 287.15 703.17 285.49 705.26 283.82 707.26 282.41 709.27 281.00 711.28 280.30 713.29 279.61 715.41 279.61 717.52 279.61 719.48 280.70 721.44 281.79 722.64 284.53 723.85 287.26 724.29 289.42 724.72 291.58 724.09 293.67 723.45 295.77 722.75 297.65 722.06 299.53 720.71 302.16 719.36 304.78 718.30 306.49 717.24 308.21 716.04 310.05 714.85 311.89 713.01 313.09 711.18 314.28 710.02 314.59 708.87 314.90 708.55 314.89 708.23 314.87 707.92 314.78 707.61 314.69 707.33 314.53 707.06 314.37 706.83 314.14 706.60 313.92 706.43 313.65 706.26 313.38 706.16 313.07 706.06 312.77 706.03 312.45 706.01 312.13 706.06 311.81 706.11 311.49 706.24 311.20 706.37 310.91 706.56 310.65 706.76 310.39 707.00 310.19 707.25 309.99 707.54 309.86 707.84 309.72 708.15 309.66 708.46 309.59 708.80 311.47 709.14 313.35 708.90 313.53 708.66 313.72 708.39 313.84 708.11 313.96 707.81 314.02 707.52 314.07 707.22 314.05 706.91 314.03 706.63 313.94 706.34 313.85 706.08 313.69 705.82 313.54 705.61 313.32 705.40 313.11 705.24 312.85 705.09 312.59 705.00 312.30 704.91 312.01 704.89 311.71 704.87 311.41 704.93 311.11 704.98 310.82 705.11 310.54 705.23 310.27 705.42 310.03 705.61 309.79 706.74 307.55 707.87 305.30 708.96 303.50 710.05 301.69 711.47 299.40 712.89 297.12 713.26 295.00 713.63 292.89 714.36 290.88 715.09 288.87 712.67 288.65 710.26 288.44 708.22 289.55 706.19 290.66 704.66 292.42 703.13 294.19 701.63 295.69 700.13 297.19 698.02 298.73 695.90 300.27 695.52 301.00 695.15 301.74 695.10 302.08 695.06 302.43 694.94 302.76 694.81 303.08 694.61 303.37 694.42 303.66 694.15 303.89 693.89 304.12 693.58 304.28 693.27 304.45 692.93 304.53 692.59 304.61 692.25 304.61 691.90 304.61 691.56 304.53 691.22 304.45 690.91 304.28 690.60 304.12 690.34 303.89 690.07 303.66 689.88 303.37 689.68 303.08 689.55 302.76 689.43 302.43 689.39 302.08 689.35 301.73 690.46 299.78 691.58 297.83 693.35 296.35 695.12 294.88 696.96 293.43 698.80 291.97 700.51 290.52 702.21 289.07 703.80 287.65 705.38 286.22 707.22 285.09 709.07 283.96 711.00 283.24 712.94 282.53 715.48 283.01 718.03 283.49 718.78 285.38 719.53 287.28 719.29 289.58 719.05 291.88 718.42 293.90 717.79 295.93 716.56 298.25 715.34 300.57 714.06 302.95 712.78 305.34 711.40 306.86 710.01 308.39 708.13 309.61 706.25 310.83 706.08 310.73 705.92 310.63 705.56 310.66 705.19 310.68 704.83 310.61 704.47 310.54 704.14 310.39 703.81 310.24 703.52 310.01 703.23 309.79 703.01 309.50 702.78 309.21 702.63 308.88 702.48 308.54 702.42 308.19 702.35 307.83 702.38 307.46 702.40 307.10 702.51 306.75 702.62 306.40 702.81 306.09 703.00 305.77 703.26 305.52 703.52 305.26 703.83 305.07 704.14 304.88 704.49 304.77 704.84 304.67 705.86 302.21 706.88 299.76 707.99 297.50 709.10 295.25 710.23 293.55 711.37 291.86 709.48 292.94 707.59 294.02 705.25 295.82 702.92 297.63 700.88 299.17 698.83 300.72 697.52 302.76 696.21 304.81 696.27 304.59 696.33 304.37 696.29 304.70 696.25 305.03 696.13 305.35 696.01 305.66 695.82 305.93 695.63 306.21 695.38 306.43 695.13 306.65 694.84 306.81 694.54 306.96 694.21 307.04 693.89 307.12 693.56 307.12 693.22 307.12 692.90 307.04 692.57 306.96 692.28 306.80 691.98 306.65 691.73 306.42 691.48 306.20 691.29 305.93 691.10 305.65 690.98 305.34 690.86 305.03 690.82 304.69 690.79 304.36 692.20 302.41 693.61 300.46 696.32 298.07 699.04 295.68 701.04 293.79 703.04 291.89 704.81 290.31 706.58 288.72 708.47 287.57 710.35 286.42 711.19 286.14 712.04 285.85 712.38 285.83 712.71 285.80 713.05 285.86 713.38 285.91 713.69 286.05 714.00 286.18 714.27 286.39 714.54 286.59 714.75 286.85 714.97 287.12 715.11 287.42 715.26 287.73 715.32 288.06 715.39 288.39 715.37 288.73 715.36 289.07 715.26 289.39 715.17 289.72 715.00 290.01 714.83 290.30 714.59 290.54 714.36 290.79 714.07 290.97 713.78 291.15 713.46 291.25 713.14 291.36 713.47 293.64 713.79 295.92 712.69 297.93 711.59 299.95 710.16 302.03 708.74 304.11 707.43 306.04 706.11 307.98 705.16 308.87 704.21 309.75 703.93 309.98 703.65 310.20 703.32 310.35 702.99 310.49 702.64 310.56 702.29 310.63 701.93 310.60 701.57 310.58 701.22 310.48 700.88 310.37 700.57 310.19 700.26 310.00 700.01 309.75 699.76 309.49 699.57 309.19 699.38 308.88 699.27 308.54 699.17 308.19 699.14 307.84 699.12 307.48 699.19 307.12 699.25 306.77 699.40 306.44 699.54 306.11 699.76 305.83 699.98 305.55 700.98 303.77 701.97 302.00 703.09 300.24 704.22 298.49 705.22 296.18 706.23 293.87 706.87 291.94 707.51 290.00 707.56 289.63 707.61 289.26 707.75 288.91 707.89 288.56 708.11 288.25 708.33 287.95 708.61 287.70 708.90 287.46 709.24 287.29 709.57 287.12 709.94 287.03 710.30 286.95 710.68 286.95 711.06 286.96 711.42 287.05 711.78 287.15 712.11 287.33 712.45 287.51 712.72 287.76 713.00 288.02 713.21 288.33 713.42 288.64 713.55 289.00 713.68 289.35 713.71 289.72 713.75 290.10 711.90 291.90 710.04 293.70 708.06 295.20 706.08 296.71 704.84 298.54 703.60 300.36 702.40 302.76 701.21 305.16 700.75 305.98 700.29 306.80 700.19 307.13 700.09 307.45 699.92 307.75 699.74 308.04 699.50 308.28 699.26 308.52 698.97 308.70 698.68 308.88 698.36 308.98 698.03 309.09 697.69 309.11 697.35 309.13 697.02 309.08 696.68 309.02 696.37 308.88 696.06 308.74 695.79 308.53 695.52 308.32 695.31 308.06 695.10 307.79 694.95 307.48 694.81 307.17 694.75 306.84 694.68 306.50 694.70 306.16 694.72 305.82 695.86 304.12 697.01 302.42 698.34 300.87 699.66 299.31 701.05 297.83 702.44 296.34 703.74 294.59 705.03 292.83 706.20 292.04 707.37 291.25 707.69 291.22 708.02 291.19 708.33 291.24 708.65 291.28 708.95 291.40 709.25 291.53 709.52 291.72 709.78 291.91 709.99 292.15 710.19 292.40 710.34 292.69 710.48 292.98 710.55 293.29 710.62 293.61 710.61 293.93 710.61 294.25 710.52 294.57 710.44 294.88 710.28 295.16 710.12 295.44 709.90 295.68 709.68 295.92 709.41 296.09 709.14 296.27 708.84 296.38 708.54 296.49 708.09 299.07 707.64 301.65 706.28 303.24 704.92 304.83 702.19 304.95 699.46 305.07 699.47 305.07 699.47 305.07 699.48 305.07 699.48 305.07 699.90 303.36 700.32 301.65 701.69 300.14 703.05 298.63 704.21 296.76 705.37 294.89 706.37 293.07 707.37 291.25 707.69 291.22 708.01 291.19 708.33 291.24 708.65 291.28 708.95 291.40 709.25 291.53 709.51 291.72 709.78 291.90 709.99 292.15 710.19 292.40 710.34 292.69 710.48 292.98 710.55 293.29 710.62 293.61 710.61 293.93 710.61 294.25 710.52 294.57 710.44 294.88 710.28 295.16 710.12 295.44 709.90 295.68 709.69 295.92 709.42 296.09 709.15 296.27 708.84 296.38 708.54 296.49 708.10 297.13 707.66 297.78 705.62 300.33 703.58 302.89 701.94 304.84 700.29 306.80 700.19 307.13 700.09 307.45 699.92 307.75 699.74 308.04 699.50 308.28 699.26 308.52 698.97 308.70 698.68 308.88 698.36 308.98 698.03 309.09 697.69 309.11 697.35 309.13 697.02 309.08 696.68 309.02 696.37 308.88 696.06 308.74 695.79 308.53 695.52 308.32 695.31 308.06 695.10 307.79 694.95 307.48 694.81 307.17 694.75 306.84 694.68 306.50 694.70 306.16 694.72 305.82 695.75 304.17 696.77 302.51 697.65 300.33 698.53 298.15 699.63 296.29 700.74 294.43 702.20 292.94 703.66 291.46 705.59 290.73 707.51 290.00 707.56 289.63 707.61 289.26 707.75 288.91 707.89 288.56 708.11 288.25 708.33 287.95 708.61 287.70 708.90 287.46 709.23 287.29 709.57 287.12 709.94 287.03 710.30 286.95 710.68 286.95 711.06 286.96 711.42 287.05 711.78 287.15 712.11 287.33 712.45 287.51 712.72 287.76 713.00 288.02 713.21 288.33 713.42 288.64 713.55 289.00 713.68 289.35 713.71 289.72 713.75 290.10 713.40 291.63 713.04 293.16 712.23 295.05 711.42 296.95 710.28 299.35 709.15 301.76 707.79 303.93 706.43 306.10 705.32 307.92 704.21 309.75 703.93 309.98 703.65 310.20 703.32 310.35 702.99 310.49 702.64 310.56 702.29 310.63 701.93 310.60 701.57 310.58 701.22 310.48 700.88 310.37 700.57 310.19 700.27 310.00 700.01 309.75 699.76 309.49 699.57 309.19 699.38 308.88 699.27 308.54 699.17 308.19 699.14 307.84 699.12 307.48 699.19 307.12 699.25 306.77 699.40 306.44 699.54 306.11 699.76 305.83 699.98 305.55 700.01 305.42 700.03 305.30 701.52 303.77 703.00 302.24 704.26 299.95 705.52 297.67 706.84 295.37 708.16 293.08 708.96 291.15 709.76 289.21 710.90 287.53 712.04 285.85 712.38 285.83 712.71 285.80 713.05 285.86 713.38 285.91 713.69 286.05 714.00 286.18 714.27 286.39 714.54 286.59 714.75 286.85 714.97 287.12 715.11 287.42 715.26 287.73 715.32 288.06 715.39 288.39 715.37 288.73 715.36 289.07 715.26 289.39 715.17 289.72 715.00 290.01 714.83 290.30 714.59 290.54 714.36 290.79 714.07 290.97 713.78 291.15 713.46 291.25 713.14 291.36 711.52 292.03 709.90 292.70 708.24 294.12 706.59 295.54 704.50 297.50 702.41 299.45 699.37 301.91 696.33 304.37 696.29 304.70 696.25 305.03 696.13 305.35 696.01 305.66 695.82 305.93 695.63 306.21 695.38 306.43 695.13 306.65 694.84 306.81 694.54 306.96 694.21 307.04 693.89 307.12 693.56 307.12 693.22 307.12 692.90 307.04 692.57 306.96 692.28 306.80 691.98 306.65 691.73 306.43 691.48 306.20 691.29 305.93 691.10 305.65 690.98 305.34 690.86 305.03 690.82 304.69 690.79 304.36 690.72 304.35 690.65 304.34 691.17 302.41 691.69 300.48 693.07 298.99 694.44 297.49 695.97 295.61 697.50 293.72 699.19 292.56 700.87 291.40 702.68 289.56 704.48 287.73 706.39 286.35 708.30 284.96 710.43 284.54 712.57 284.12 714.49 285.50 716.41 286.89 717.33 288.82 718.26 290.74 717.35 292.99 716.44 295.24 715.14 297.21 713.83 299.18 712.67 301.27 711.50 303.35 710.57 305.21 709.63 307.08 707.78 308.86 705.92 310.63 705.56 310.66 705.19 310.68 704.83 310.61 704.47 310.54 704.14 310.39 703.81 310.24 703.52 310.02 703.23 309.79 703.01 309.50 702.78 309.21 702.63 308.88 702.48 308.55 702.42 308.19 702.35 307.83 702.38 307.46 702.40 307.10 702.51 306.75 702.62 306.40 702.81 306.09 703.00 305.77 703.26 305.52 703.52 305.26 703.83 305.07 704.14 304.88 704.49 304.77 704.84 304.67 703.82 305.87 702.81 307.07 704.42 305.05 706.04 303.04 707.36 301.29 708.67 299.54 709.71 297.61 710.74 295.69 711.76 293.76 712.77 291.83 712.74 289.75 712.71 287.67 710.84 288.80 708.96 289.93 707.31 291.50 705.66 293.07 704.06 294.50 702.47 295.93 700.54 297.53 698.61 299.13 696.88 300.43 695.15 301.74 695.10 302.08 695.06 302.43 694.94 302.76 694.81 303.08 694.62 303.37 694.42 303.66 694.15 303.89 693.89 304.12 693.58 304.28 693.27 304.45 692.93 304.53 692.60 304.61 692.25 304.61 691.90 304.61 691.56 304.53 691.22 304.45 690.91 304.28 690.60 304.12 690.34 303.89 690.07 303.66 689.88 303.37 689.68 303.08 689.55 302.76 689.43 302.43 689.39 302.08 689.35 301.74 689.23 300.88 689.11 300.03 690.52 297.59 691.92 295.15 693.70 293.84 695.48 292.54 697.50 290.74 699.52 288.94 700.92 287.16 702.32 285.38 704.14 284.39 705.97 283.40 708.25 282.72 710.53 282.03 713.05 281.81 715.57 281.58 717.65 282.24 719.73 282.89 720.59 285.26 721.45 287.63 720.82 289.73 720.19 291.82 719.42 293.72 718.65 295.62 717.84 297.91 717.02 300.21 715.64 302.51 714.27 304.80 712.71 307.10 711.16 309.40 710.15 311.37 709.14 313.35 708.90 313.53 708.66 313.72 708.39 313.84 708.11 313.96 707.81 314.02 707.52 314.07 707.22 314.05 706.91 314.03 706.63 313.94 706.34 313.85 706.08 313.69 705.82 313.54 705.61 313.32 705.40 313.11 705.24 312.85 705.09 312.59 705.00 312.30 704.91 312.01 704.89 311.71 704.87 311.41 704.93 311.11 704.98 310.82 705.11 310.54 705.23 310.27 705.42 310.03 705.61 309.79 707.14 309.07 708.67 308.35 709.97 310.00 711.27 311.64 710.07 313.27 708.87 314.90 708.55 314.89 708.23 314.87 707.92 314.78 707.61 314.69 707.33 314.53 707.06 314.37 706.83 314.14 706.60 313.92 706.43 313.65 706.26 313.38 706.16 313.07 706.06 312.77 706.03 312.45 706.01 312.13 706.06 311.81 706.11 311.49 706.24 311.20 706.37 310.91 706.56 310.65 706.76 310.39 707.00 310.19 707.25 309.99 707.54 309.86 707.84 309.72 708.15 309.66 708.46 309.59 708.24 309.99 708.02 310.39 709.35 308.25 710.68 306.11 712.35 303.80 714.03 301.50 715.23 299.23 716.43 296.96 717.20 295.10 717.97 293.24 718.47 290.73 718.96 288.23 718.24 286.35 717.52 284.47 715.31 284.64 713.09 284.81 710.89 286.14 708.68 287.46 706.38 289.25 704.08 291.04 702.19 292.26 700.30 293.48 698.22 295.11 696.15 296.74 694.54 298.24 692.93 299.74 692.26 300.41 691.60 301.08 691.59 301.08 Z"></path><path fill="#1982c4" d="M 719.18 322.10 Q 719.18 322.10 720.00 322.23 720.81 322.35 721.20 321.85 721.59 321.35 721.81 321.59 722.03 321.83 722.19 322.11 722.35 322.40 722.43 322.72 722.51 323.03 722.52 323.36 722.53 323.68 722.46 324.00 722.38 324.32 722.24 324.61 722.09 324.91 721.88 325.16 721.67 325.41 721.40 325.60 721.14 325.79 720.84 325.91 720.53 326.03 720.21 326.08 719.89 326.12 719.56 326.09 719.24 326.06 718.93 325.95 718.62 325.84 718.35 325.66 718.07 325.48 715.94 324.16 713.80 322.83 711.84 321.60 709.87 320.38 708.09 318.81 706.31 317.25 707.63 318.89 708.95 320.54 707.35 319.31 705.74 318.07 704.31 316.63 702.89 315.19 704.45 316.70 706.02 318.20 704.17 316.39 702.31 314.57 703.87 315.94 705.42 317.30 703.26 315.93 701.11 314.56 699.24 312.94 697.37 311.31 699.15 312.94 700.92 314.57 698.79 312.55 696.66 310.54 698.56 312.12 700.45 313.70 698.53 312.93 696.61 312.16 695.24 310.21 693.88 308.26 695.46 310.08 697.03 311.89 695.45 310.17 693.86 308.44 695.33 309.86 696.79 311.29 694.80 310.15 692.80 309.02 691.74 306.84 690.68 304.67 692.46 306.47 694.23 308.26 692.16 306.50 690.08 304.74 691.59 306.35 693.10 307.95 691.26 306.03 689.42 304.10 691.06 305.37 692.71 306.63 690.74 305.03 688.77 303.43 690.53 304.53 692.28 305.64 690.36 303.98 688.43 302.33 690.21 303.75 691.99 305.17 689.78 303.29 687.56 301.41 689.01 303.03 690.46 304.65 688.73 303.26 687.00 301.87 685.90 300.14 684.80 298.40 686.43 299.92 688.05 301.44 686.32 299.91 684.59 298.38 683.09 295.94 681.58 293.51 683.56 295.37 685.54 297.23 683.70 295.90 681.86 294.57 681.06 292.71 680.26 290.85 681.64 292.43 683.03 294.02 681.34 292.26 679.65 290.51 681.55 291.89 683.44 293.28 681.44 291.63 679.44 289.99 681.18 290.99 682.92 291.99 680.67 290.00 678.41 288.01 679.74 286.67 681.07 285.32 681.08 285.32 681.08 285.32 681.09 285.32 681.09 285.32 683.73 286.60 686.38 287.88 684.78 285.90 683.18 283.92 684.44 285.64 685.70 287.37 687.06 289.60 688.42 291.83 686.89 290.47 685.36 289.10 687.11 290.18 688.86 291.25 689.78 293.18 690.71 295.10 689.38 293.55 688.05 292.00 690.05 294.61 692.06 297.22 690.48 295.45 688.91 293.67 690.44 294.98 691.96 296.30 693.19 297.90 694.41 299.49 696.11 301.04 697.81 302.58 696.20 301.08 694.59 299.57 696.02 301.16 697.45 302.74 699.28 304.16 701.11 305.58 703.02 307.80 704.93 310.01 703.69 308.39 702.45 306.77 704.03 308.30 705.61 309.82 704.03 308.34 702.45 306.86 704.36 308.60 706.27 310.34 704.41 308.86 702.54 307.38 704.60 308.65 706.65 309.92 708.21 311.89 709.77 313.87 708.20 312.07 706.62 310.28 708.61 312.04 710.61 313.80 709.06 312.47 707.51 311.13 709.28 313.22 711.04 315.30 709.79 313.72 708.54 312.13 710.00 313.82 711.46 315.51 709.93 313.93 708.41 312.34 710.43 314.07 712.44 315.79 710.69 314.44 708.95 313.08 710.90 314.24 712.85 315.40 714.50 317.11 716.14 318.82 714.65 317.41 713.15 316.00 714.95 317.57 716.75 319.13 715.15 317.88 713.54 316.64 715.31 317.74 717.08 318.85 719.33 320.10 721.59 321.35 721.81 321.59 722.03 321.83 722.19 322.11 722.35 322.40 722.43 322.72 722.51 323.03 722.52 323.36 722.53 323.68 722.46 324.00 722.38 324.32 722.24 324.61 722.09 324.91 721.88 325.16 721.67 325.41 721.40 325.60 721.14 325.79 720.84 325.91 720.53 326.03 720.21 326.08 719.89 326.12 719.56 326.09 719.24 326.06 718.93 325.95 718.62 325.84 718.35 325.66 718.07 325.48 717.80 324.42 717.53 323.36 718.35 322.73 719.16 322.10 719.17 322.10 Z"></path>
</svg>