<svg width="775" height="436" xmlns="http://www.w3.org/2000/svg" xmlns:xlink="http://www.w3.org/1999/xlink">
<path fill="#ffca3a" d="M 271.92 102.73 Q 271.92 102.73 272.97 103.40 274.03 104.08 276.58 105.32 279.13 106.57 281.36 107.99 283.58 109.42 285.56 110.66 287.54 111.91 289.74 113.14 291.94 114.36 294.11 115.35 296.28 116.33 298.82 117.10 301.36 117.87 304.94 119.05 308.51 120.23 311.75 121.33 314.99 122.43 318.74 123.92 322.49 125.42 327.04 126.73 331.59 128.04 336.58 129.16 341.57 130.27 346.26 131.05 350.94 131.83 355.74 132.48 360.53 133.12 364.99 133.58 369.44 134.03 374.11 134.37 378.77 134.71 381.52 134.88 384.26 135.04 387.12 135.05 389.99 135.06 392.15 135.09 394.30 135.11 396.53 135.11 398.75 135.11 401.27 135.11 403.79 135.12 406.85 135.09 409.91 135.05 415.52 134.45 421.14 133.84 426.89 133.06 432.64 132.27 437.87 131.78 443.10 131.28 448.08 130.88 453.06 130.48 457.01 130.16 460.97 129.85 463.08 129.55 465.20 129.26 467.80 128.73 470.40 128.20 472.37 127.73 474.34 127.27 476.82 126.55 479.29 125.84 481.48 125.14 483.68 124.44 485.68 123.95 487.69 123.47 489.88 122.69 492.08 121.92 494.07 121.19 496.07 120.46 498.19 119.82 500.31 119.18 502.90 118.44 505.49 117.69 507.68 116.92 509.86 116.15 511.86 115.21 513.87 114.28 515.91 113.24 517.94 112.21 520.72 111.22 523.49 110.24 525.50 109.40 527.51 108.56 529.61 107.48 531.71 106.40 535.13 106.54 538.55 106.68 538.55 106.68 538.56 106.68 538.56 106.68 538.57 106.68 538.57 108.95 538.58 111.23 536.86 112.30 535.15 113.38 532.67 114.56 530.19 115.75 527.65 116.71 525.10 117.68 523.11 118.26 521.12 118.85 519.06 119.83 517.00 120.80 514.76 121.79 512.53 122.78 510.02 123.74 507.52 124.69 504.99 125.46 502.45 126.22 500.49 126.82 498.52 127.43 496.64 128.12 494.75 128.80 492.84 129.50 490.92 130.20 488.39 130.76 485.86 131.32 483.58 132.00 481.30 132.68 478.62 133.42 475.95 134.15 473.85 134.57 471.76 135.00 469.12 135.50 466.48 136.01 464.04 136.37 461.60 136.73 457.57 137.08 453.54 137.44 448.59 137.75 443.63 138.06 438.55 138.52 433.48 138.98 427.71 139.64 421.95 140.30 415.93 140.82 409.91 141.35 406.85 141.32 403.79 141.28 401.27 141.29 398.75 141.29 396.52 141.29 394.30 141.28 392.13 141.30 389.97 141.32 387.02 141.28 384.07 141.23 381.20 141.11 378.33 140.99 373.61 140.62 368.89 140.25 364.29 139.76 359.69 139.26 354.85 138.53 350.01 137.81 345.18 136.94 340.34 136.06 335.23 134.89 330.11 133.72 325.16 132.19 320.22 130.66 316.70 129.21 313.19 127.77 309.88 126.61 306.58 125.46 303.20 124.27 299.82 123.09 296.97 122.08 294.12 121.06 291.72 119.95 289.31 118.85 287.04 117.45 284.77 116.06 282.86 114.71 280.94 113.36 279.12 112.06 277.31 110.76 275.57 109.55 273.84 108.33 272.57 106.75 271.29 105.17 271.60 103.95 271.90 102.74 271.91 102.74 Z"></path><path fill="#ffca3a" d="M 272.57 108.65 Q 272.57 108.65 272.77 110.30 272.97 111.95 272.51 114.56 272.05 117.17 272.07 119.32 272.09 121.47 271.65 124.05 271.21 126.62 270.98 129.49 270.74 132.37 270.66 135.57 270.58 138.77 270.58 142.04 270.58 145.31 270.61 148.59 270.63 151.87 270.67 154.78 270.71 157.68 271.24 161.29 271.77 164.90 272.14 168.24 272.51 171.58 273.02 175.51 273.54 179.44 274.19 183.03 274.84 186.62 275.13 189.01 275.43 191.40 276.23 194.90 277.02 198.39 278.10 203.01 279.18 207.63 280.53 212.06 281.89 216.49 283.47 220.84 285.05 225.19 286.34 229.00 287.62 232.80 288.86 236.96 290.10 241.11 291.58 245.32 293.06 249.52 293.93 251.94 294.81 254.35 295.58 256.25 296.36 258.15 298.16 261.52 299.97 264.90 301.00 266.74 302.04 268.57 303.59 271.92 305.15 275.27 307.12 279.41 309.09 283.54 311.07 287.51 313.04 291.48 315.13 295.11 317.22 298.74 319.08 301.53 320.95 304.32 322.10 305.97 323.26 307.61 324.57 309.41 325.88 311.22 328.32 314.03 330.76 316.84 332.01 318.57 333.27 320.31 334.72 322.26 336.17 324.21 337.73 326.07 339.28 327.94 341.76 330.81 344.23 333.69 346.37 335.79 348.50 337.89 350.68 339.95 352.86 342.01 355.09 343.79 357.32 345.58 359.42 347.09 361.53 348.61 363.24 349.98 364.96 351.35 366.90 352.47 368.84 353.59 371.66 355.17 374.48 356.75 376.71 358.16 378.94 359.56 380.96 360.89 382.98 362.23 384.53 363.56 386.07 364.90 387.78 366.54 389.49 368.18 391.26 369.75 393.04 371.32 394.99 373.07 396.93 374.81 397.40 375.71 397.86 376.60 397.86 376.61 397.86 376.61 397.86 376.62 397.86 376.62 394.89 377.72 391.91 378.82 389.27 376.91 386.63 375.00 384.16 373.09 381.69 371.18 379.73 369.84 377.78 368.50 376.03 367.45 374.28 366.40 372.38 365.25 370.48 364.09 368.14 362.88 365.81 361.66 363.88 360.63 361.95 359.59 359.29 357.63 356.64 355.67 354.33 354.00 352.03 352.32 349.51 350.14 347.00 347.96 344.96 345.94 342.92 343.92 340.45 341.33 337.98 338.74 336.48 336.81 334.98 334.88 333.59 333.30 332.20 331.72 330.58 329.60 328.97 327.47 326.98 324.63 324.99 321.79 322.90 319.26 320.80 316.73 319.30 314.55 317.81 312.38 316.47 310.35 315.12 308.32 313.20 305.34 311.27 302.36 309.04 298.47 306.81 294.59 304.83 290.59 302.86 286.59 300.85 282.34 298.84 278.09 296.72 273.74 294.61 269.40 293.47 267.11 292.34 264.82 291.29 262.76 290.24 260.71 289.41 258.62 288.58 256.53 287.74 254.16 286.89 251.79 285.40 247.35 283.91 242.91 282.70 238.83 281.50 234.74 280.27 231.09 279.04 227.44 277.44 222.97 275.83 218.51 274.44 213.74 273.06 208.97 272.07 204.39 271.08 199.80 270.27 195.81 269.45 191.81 269.20 189.77 268.95 187.73 268.34 184.00 267.72 180.28 267.20 176.19 266.68 172.10 266.50 169.59 266.32 167.08 265.97 164.39 265.62 161.71 265.42 159.70 265.22 157.68 265.26 154.78 265.30 151.87 265.34 148.58 265.38 145.29 265.43 141.99 265.48 138.68 265.67 135.28 265.86 131.89 266.28 128.90 266.70 125.91 267.29 122.81 267.88 119.71 268.29 117.29 268.71 114.86 269.30 112.75 269.89 110.63 271.22 109.64 272.55 108.64 272.56 108.65 Z"></path><path fill="#ffca3a" d="M 534.63 113.24 Q 534.63 113.24 535.52 114.38 536.40 115.51 536.57 117.57 536.74 119.64 537.22 121.97 537.70 124.31 537.79 126.32 537.88 128.33 537.95 130.93 538.01 133.52 537.89 136.46 537.77 139.41 537.72 142.23 537.67 145.05 537.48 147.77 537.29 150.49 537.02 153.84 536.75 157.18 536.42 160.76 536.09 164.35 535.82 168.14 535.55 171.92 535.24 174.76 534.94 177.59 534.81 179.68 534.69 181.76 534.33 184.91 533.96 188.05 533.38 192.19 532.80 196.33 532.18 200.15 531.57 203.96 530.95 207.95 530.34 211.95 529.69 215.50 529.04 219.06 528.51 221.02 527.99 222.99 527.53 224.97 527.07 226.96 526.47 229.13 525.87 231.29 525.30 234.07 524.73 236.85 523.89 239.40 523.05 241.95 521.49 246.59 519.93 251.24 518.08 255.36 516.24 259.48 514.30 263.19 512.36 266.91 510.42 270.55 508.47 274.19 506.30 278.04 504.12 281.88 502.20 285.09 500.28 288.30 499.13 290.11 497.98 291.92 496.70 293.98 495.41 296.04 494.13 298.02 492.86 300.00 491.33 302.17 489.80 304.34 487.88 306.65 485.95 308.96 484.10 310.97 482.24 312.97 479.58 316.20 476.93 319.43 474.58 321.94 472.23 324.44 469.82 326.67 467.41 328.89 465.07 330.88 462.73 332.87 460.76 334.50 458.79 336.13 456.46 337.86 454.12 339.58 451.85 341.21 449.57 342.83 447.76 344.13 445.94 345.44 444.29 346.78 442.64 348.12 440.10 349.94 437.56 351.77 435.69 353.21 433.82 354.66 432.27 356.06 430.72 357.46 428.96 358.99 427.20 360.52 425.49 361.80 423.78 363.08 422.15 364.35 420.52 365.62 419.04 367.08 417.55 368.54 415.49 370.06 413.43 371.57 411.50 373.04 409.56 374.51 407.77 375.97 405.97 377.43 403.71 379.14 401.44 380.84 397.77 381.67 394.10 382.51 394.10 382.50 394.10 382.50 394.09 382.49 394.09 382.49 395.39 378.83 396.70 375.18 398.50 373.68 400.30 372.18 401.99 370.81 403.69 369.45 405.21 368.10 406.73 366.76 408.93 365.16 411.13 363.57 412.69 362.12 414.26 360.68 416.23 359.06 418.21 357.44 420.18 355.93 422.14 354.41 423.68 353.07 425.23 351.73 427.06 350.07 428.90 348.41 430.86 346.90 432.82 345.39 435.36 343.54 437.90 341.68 439.97 340.13 442.05 338.57 443.74 337.39 445.42 336.21 447.71 334.58 449.99 332.95 451.92 331.50 453.84 330.05 455.72 328.48 457.59 326.92 459.84 324.91 462.10 322.90 464.28 320.86 466.47 318.82 468.68 316.49 470.90 314.15 472.36 312.54 473.83 310.93 475.23 309.22 476.63 307.51 478.30 305.73 479.98 303.96 481.77 301.93 483.55 299.91 485.00 297.87 486.46 295.82 487.69 293.90 488.93 291.97 490.26 289.88 491.59 287.79 492.68 286.05 493.77 284.31 495.65 281.19 497.52 278.08 499.66 274.32 501.79 270.56 503.78 266.96 505.76 263.36 507.67 259.75 509.59 256.14 511.21 252.51 512.83 248.87 514.37 244.21 515.92 239.56 516.87 236.57 517.82 233.59 518.28 231.39 518.75 229.19 519.27 227.23 519.79 225.27 520.82 221.42 521.86 217.58 522.52 214.20 523.18 210.82 523.88 206.77 524.58 202.72 525.26 198.98 525.94 195.24 526.58 191.21 527.22 187.19 527.62 184.33 528.03 181.47 528.21 179.17 528.40 176.87 528.70 174.05 529.01 171.24 529.31 168.13 529.62 165.03 529.90 162.77 530.17 160.52 530.30 158.47 530.43 156.43 530.82 153.11 531.21 149.79 531.44 147.37 531.67 144.95 531.77 142.77 531.87 140.60 532.20 137.84 532.54 135.08 532.60 132.47 532.67 129.86 532.75 127.11 532.83 124.37 532.66 122.01 532.49 119.64 532.66 117.57 532.83 115.51 533.72 114.38 534.61 113.24 534.62 113.24 Z"></path><path fill="#ffca3a" d="M 279.14 118.50 Q 279.14 118.50 279.84 119.25 280.54 120.01 280.76 122.17 280.99 124.33 281.73 126.68 282.48 129.02 282.49 131.14 282.50 133.26 282.83 135.33 283.16 137.39 283.48 139.57 283.81 141.74 284.06 143.81 284.32 145.87 284.71 147.92 285.11 149.98 285.48 152.56 285.85 155.14 285.90 157.33 285.95 159.53 286.22 161.55 286.49 163.56 286.69 165.76 286.88 167.95 287.16 169.95 287.44 171.95 287.49 174.01 287.54 176.06 287.88 178.45 288.21 180.85 288.58 183.20 288.94 185.54 289.30 187.76 289.66 189.99 290.24 192.35 290.83 194.71 291.22 196.77 291.60 198.83 292.04 200.96 292.47 203.09 292.99 205.56 293.52 208.04 294.15 210.45 294.78 212.87 295.58 214.88 296.38 216.90 297.22 219.16 298.06 221.42 298.76 223.41 299.46 225.40 300.31 227.47 301.17 229.54 301.80 231.55 302.44 233.55 303.11 235.47 303.77 237.38 304.77 239.71 305.77 242.03 306.45 243.99 307.12 245.96 308.24 248.18 309.36 250.40 310.24 252.74 311.12 255.09 312.18 257.32 313.24 259.54 314.13 261.69 315.03 263.84 316.07 265.64 317.12 267.45 318.02 269.40 318.91 271.35 319.92 273.43 320.93 275.50 322.04 277.42 323.16 279.34 324.38 281.12 325.59 282.91 326.76 284.53 327.94 286.15 329.08 288.37 330.22 290.60 331.61 292.45 332.99 294.30 333.79 296.17 334.59 298.03 336.01 300.21 337.43 302.38 338.68 304.18 339.93 305.97 341.19 307.58 342.46 309.20 343.70 311.29 344.94 313.38 346.02 315.18 347.09 316.99 348.46 318.60 349.82 320.22 351.66 322.05 353.50 323.89 355.31 326.15 357.11 328.41 358.32 330.01 359.54 331.61 361.21 333.33 362.89 335.04 364.39 336.55 365.89 338.05 367.96 340.06 370.03 342.06 371.56 343.67 373.09 345.29 375.02 346.97 376.96 348.66 378.79 349.87 380.63 351.09 382.41 352.50 384.19 353.90 386.04 355.08 387.88 356.25 389.38 357.75 390.88 359.24 393.29 360.66 395.69 362.09 397.77 363.43 399.85 364.78 399.85 364.79 399.85 364.79 399.85 364.80 399.85 364.80 397.55 365.23 395.24 365.66 393.34 364.96 391.43 364.27 389.24 362.95 387.04 361.64 385.05 359.65 383.06 357.66 381.29 356.69 379.51 355.72 377.90 354.36 376.29 353.00 374.14 351.64 371.99 350.28 370.18 348.42 368.37 346.57 366.80 345.15 365.24 343.73 363.74 342.24 362.23 340.75 360.54 339.05 358.85 337.35 357.54 335.84 356.22 334.33 354.86 332.63 353.49 330.94 352.02 328.90 350.54 326.85 349.06 325.37 347.59 323.89 346.28 322.19 344.97 320.49 343.86 318.67 342.76 316.85 341.22 314.53 339.68 312.20 338.43 310.42 337.19 308.63 335.89 306.67 334.59 304.71 333.22 302.66 331.85 300.61 331.09 298.46 330.33 296.32 328.89 294.35 327.44 292.39 326.37 290.58 325.31 288.76 324.18 286.67 323.05 284.58 321.56 282.91 320.08 281.23 319.13 279.42 318.19 277.61 317.09 275.62 316.00 273.63 315.12 271.56 314.23 269.49 313.29 267.68 312.35 265.87 311.28 263.89 310.21 261.91 309.36 260.06 308.51 258.20 307.72 256.33 306.93 254.46 305.93 252.44 304.93 250.41 304.30 248.48 303.67 246.55 303.08 244.64 302.49 242.72 301.80 240.74 301.10 238.77 300.11 236.43 299.13 234.10 298.50 232.17 297.88 230.24 296.78 228.15 295.69 226.07 294.98 224.12 294.28 222.18 293.55 220.29 292.83 218.40 292.21 216.41 291.58 214.41 290.91 212.52 290.24 210.62 289.61 207.95 288.99 205.27 288.55 203.25 288.12 201.23 287.57 198.78 287.03 196.32 286.64 194.21 286.24 192.10 285.99 190.04 285.75 187.98 286.01 185.97 286.26 183.96 285.37 182.04 284.47 180.11 284.17 178.09 283.86 176.06 283.91 173.95 283.97 171.84 283.58 169.60 283.18 167.37 282.99 165.16 282.80 162.96 282.81 160.91 282.83 158.86 282.76 156.66 282.70 154.46 282.46 152.21 282.21 149.96 281.57 147.63 280.92 145.31 280.97 143.30 281.01 141.29 280.68 139.24 280.36 137.20 280.03 135.05 279.70 132.89 279.77 130.51 279.84 128.13 279.13 126.12 278.42 124.10 278.07 122.05 277.73 120.01 278.42 119.25 279.12 118.50 279.13 118.50 Z"></path><path fill="#ffca3a" d="M 398.00 362.81 Q 398.00 362.81 398.00 361.99 397.99 361.18 399.24 359.60 400.48 358.02 402.25 356.35 404.02 354.69 405.64 353.28 407.25 351.86 409.25 350.26 411.24 348.66 412.95 347.31 414.67 345.97 416.34 344.59 418.02 343.22 419.51 341.86 421.01 340.50 422.74 339.11 424.47 337.73 425.99 336.10 427.52 334.47 429.32 333.31 431.11 332.15 432.75 330.96 434.38 329.76 436.24 328.59 438.09 327.42 439.53 325.94 440.98 324.47 442.82 323.30 444.66 322.13 446.16 320.80 447.66 319.46 449.44 318.21 451.22 316.96 452.86 315.29 454.51 313.62 456.01 312.08 457.50 310.54 458.85 308.69 460.19 306.84 462.09 305.55 463.98 304.27 465.57 302.98 467.15 301.69 468.29 300.03 469.42 298.36 470.81 296.43 472.20 294.49 473.51 292.51 474.83 290.53 475.90 288.67 476.97 286.81 478.30 284.53 479.63 282.26 480.83 280.50 482.03 278.75 483.10 276.93 484.17 275.11 485.49 272.84 486.82 270.57 488.17 268.55 489.53 266.53 490.54 264.81 491.55 263.08 492.64 261.21 493.74 259.35 494.72 257.38 495.70 255.40 496.79 253.47 497.88 251.53 498.49 249.57 499.10 247.61 500.23 245.83 501.37 244.05 502.22 242.08 503.07 240.11 504.14 238.21 505.21 236.31 505.90 234.34 506.58 232.37 507.43 230.55 508.29 228.72 509.29 226.82 510.30 224.91 510.71 222.47 511.12 220.03 511.78 217.73 512.44 215.44 513.10 212.83 513.77 210.23 514.05 208.19 514.32 206.15 515.17 203.46 516.02 200.77 516.45 198.67 516.87 196.58 517.52 194.39 518.17 192.20 518.46 189.50 518.75 186.80 519.03 184.66 519.32 182.51 520.10 180.61 520.88 178.71 520.50 176.69 520.11 174.66 520.49 172.45 520.87 170.24 521.46 168.11 522.05 165.99 522.04 163.76 522.04 161.53 522.36 159.46 522.67 157.38 522.97 155.37 523.26 153.36 523.25 151.20 523.24 149.04 523.54 147.05 523.83 145.06 524.78 142.25 525.72 139.45 525.09 137.54 524.46 135.63 524.47 133.44 524.48 131.26 524.98 129.15 525.47 127.05 525.47 127.04 525.47 127.04 525.47 127.03 525.47 127.03 527.22 128.82 528.97 130.60 529.00 132.79 529.02 134.97 529.02 136.97 529.02 138.98 528.70 140.96 528.38 142.94 528.33 144.99 528.28 147.04 527.94 149.36 527.61 151.68 527.56 153.70 527.51 155.73 526.85 158.03 526.18 160.33 526.19 162.58 526.19 164.83 525.83 166.80 525.47 168.77 525.15 171.04 524.82 173.31 524.48 175.59 524.13 177.88 523.76 179.94 523.40 182.00 522.75 183.91 522.11 185.82 521.75 188.02 521.38 190.21 520.76 192.84 520.13 195.47 519.79 197.46 519.44 199.46 519.07 201.44 518.70 203.42 518.40 205.84 518.10 208.27 517.49 210.23 516.88 212.19 516.53 214.26 516.18 216.33 515.52 218.63 514.86 220.93 514.10 223.14 513.34 225.36 512.49 227.31 511.63 229.26 510.97 231.24 510.31 233.22 509.69 235.21 509.07 237.19 508.13 239.06 507.19 240.93 506.31 243.05 505.44 245.18 504.29 246.86 503.15 248.54 502.48 250.54 501.81 252.54 500.60 254.90 499.40 257.27 498.46 259.10 497.53 260.93 496.47 262.72 495.42 264.51 493.97 266.71 492.53 268.90 491.38 270.79 490.23 272.67 489.22 274.51 488.21 276.34 486.92 278.64 485.64 280.93 484.21 282.71 482.78 284.49 481.78 286.24 480.78 287.99 479.19 290.16 477.59 292.33 476.25 294.13 474.90 295.92 473.90 297.84 472.89 299.76 471.61 301.30 470.33 302.84 468.90 304.48 467.47 306.13 465.58 307.19 463.69 308.24 462.00 310.11 460.31 311.98 459.16 313.64 458.00 315.29 456.56 316.82 455.12 318.34 453.46 319.45 451.79 320.56 450.15 322.01 448.51 323.46 446.56 324.74 444.61 326.03 442.99 327.25 441.37 328.47 439.68 329.87 437.99 331.28 436.54 332.84 435.09 334.41 433.38 335.51 431.67 336.60 429.85 338.10 428.03 339.59 426.17 340.60 424.30 341.60 422.90 343.22 421.49 344.84 419.85 346.04 418.21 347.24 416.56 348.46 414.92 349.67 413.35 350.91 411.79 352.16 409.99 353.69 408.20 355.23 406.54 356.43 404.88 357.62 403.59 359.20 402.30 360.79 400.92 362.25 399.54 363.71 398.78 363.27 398.01 362.83 398.01 362.82 Z"></path><path fill="#ffca3a" d="M 281.76 123.09 Q 281.76 123.09 283.13 123.31 284.50 123.53 286.23 124.54 287.96 125.55 289.87 126.92 291.79 128.29 293.52 129.31 295.25 130.34 297.77 131.15 300.29 131.97 302.28 132.92 304.26 133.88 306.22 134.47 308.17 135.06 310.21 135.66 312.26 136.26 314.60 137.26 316.93 138.27 318.91 138.90 320.88 139.54 323.21 140.18 325.53 140.83 328.20 141.53 330.88 142.23 333.35 143.08 335.82 143.94 338.46 144.38 341.11 144.82 343.11 145.21 345.10 145.60 347.71 145.94 350.32 146.29 352.34 146.52 354.36 146.76 356.35 147.06 358.34 147.36 360.49 147.99 362.63 148.63 364.71 148.35 366.79 148.07 368.86 148.37 370.94 148.68 372.93 149.04 374.93 149.40 377.29 149.43 379.66 149.47 381.77 149.13 383.87 148.79 386.03 148.78 388.19 148.77 390.49 148.77 392.78 148.78 395.18 149.02 397.58 149.26 399.78 149.33 401.98 149.41 404.09 149.41 406.21 149.40 408.66 149.38 411.11 149.36 413.26 149.36 415.40 149.37 417.55 149.05 419.69 148.74 421.76 148.40 423.82 148.06 426.20 147.71 428.58 147.36 430.83 147.37 433.08 147.38 435.28 147.05 437.49 146.71 439.53 146.39 441.58 146.08 443.78 146.05 445.99 146.03 448.04 145.72 450.10 145.42 452.32 145.06 454.54 144.71 456.50 143.77 458.45 142.83 460.97 142.15 463.48 141.48 465.52 141.46 467.56 141.45 469.56 141.12 471.56 140.80 473.65 140.43 475.73 140.07 477.71 139.55 479.68 139.03 481.77 138.90 483.87 138.77 486.57 138.47 489.28 138.17 491.36 137.17 493.45 136.16 495.65 135.56 497.86 134.96 499.83 134.35 501.80 133.73 503.71 133.02 505.61 132.30 507.63 131.98 509.65 131.66 511.67 131.36 513.69 131.06 515.64 130.14 517.59 129.22 519.43 128.20 521.26 127.18 523.17 126.51 525.08 125.85 526.90 125.78 528.71 125.71 528.71 125.72 528.71 125.72 528.71 125.73 528.71 125.73 527.67 126.93 526.63 128.12 524.83 129.10 523.02 130.08 520.95 131.19 518.87 132.29 517.02 133.16 515.18 134.02 512.71 134.75 510.24 135.49 507.97 135.59 505.70 135.70 503.29 136.46 500.89 137.23 498.70 137.74 496.50 138.26 494.71 139.41 492.92 140.57 491.08 141.37 489.23 142.18 487.12 142.54 485.02 142.89 483.01 142.95 481.01 143.02 478.33 143.69 475.65 144.37 472.93 144.89 470.22 145.41 467.95 145.44 465.69 145.46 463.56 145.66 461.44 145.85 459.01 146.92 456.58 147.99 454.40 148.23 452.21 148.48 450.21 149.05 448.21 149.63 445.59 149.83 442.98 150.03 440.85 150.37 438.72 150.71 436.59 151.03 434.45 151.35 432.29 151.35 430.12 151.35 427.93 151.63 425.74 151.91 423.58 152.30 421.41 152.69 419.27 153.02 417.13 153.34 414.78 153.32 412.43 153.30 410.35 153.31 408.27 153.33 406.13 153.30 403.99 153.28 401.97 153.28 399.96 153.27 397.87 152.96 395.78 152.65 393.74 152.62 391.70 152.59 389.43 152.59 387.16 152.59 384.98 152.57 382.81 152.56 380.81 152.89 378.82 153.22 376.72 153.24 374.63 153.26 372.45 152.99 370.28 152.71 368.30 152.33 366.32 151.95 364.27 152.01 362.21 152.08 360.10 151.72 357.98 151.37 355.79 151.01 353.61 150.65 351.62 150.30 349.62 149.95 347.45 149.67 345.27 149.38 343.23 149.05 341.20 148.72 338.99 148.19 336.78 147.66 334.78 147.29 332.79 146.91 330.85 146.26 328.91 145.62 326.94 145.29 324.96 144.97 322.40 144.29 319.85 143.61 317.88 142.92 315.91 142.23 313.61 141.17 311.31 140.11 308.70 139.39 306.09 138.68 303.80 137.70 301.50 136.73 299.63 135.67 297.75 134.61 295.80 133.56 293.85 132.51 292.12 131.44 290.40 130.37 288.35 129.03 286.31 127.69 284.55 126.68 282.79 125.68 282.27 124.39 281.75 123.10 281.76 123.10 Z"></path><path fill="#ff595e" d="M 337.59 177.62 Q 337.59 177.62 336.85 178.51 336.11 179.40 337.08 177.36 338.06 175.32 340.24 174.02 342.42 172.72 344.38 171.64 346.34 170.55 348.38 170.20 350.42 169.85 352.46 169.50 354.50 169.16 356.88 168.50 359.27 167.83 361.39 167.42 363.51 167.00 365.48 167.31 367.46 167.62 369.53 167.58 371.61 167.55 373.58 168.01 375.55 168.47 377.72 169.33 379.88 170.19 381.84 170.91 383.79 171.63 385.87 171.93 387.95 172.23 389.50 173.87 391.04 175.52 392.46 177.04 393.88 178.56 395.31 180.03 396.74 181.50 397.90 183.90 399.06 186.30 400.36 188.49 401.66 190.67 402.34 192.66 403.02 194.64 403.68 196.56 404.35 198.49 404.92 200.63 405.49 202.77 405.93 204.76 406.37 206.76 406.67 208.78 406.98 210.80 407.32 212.90 407.66 215.00 408.05 217.09 408.44 219.19 408.62 221.26 408.79 223.33 409.17 225.63 409.55 227.93 409.90 230.13 410.24 232.32 410.55 234.31 410.86 236.29 411.36 238.29 411.85 240.29 412.36 242.36 412.87 244.42 413.23 246.48 413.59 248.53 413.92 250.63 414.25 252.73 414.87 255.13 415.50 257.52 416.14 259.89 416.78 262.27 417.88 264.17 418.99 266.08 420.44 267.86 421.89 269.65 423.83 271.24 425.78 272.84 427.37 274.09 428.96 275.34 430.40 276.83 431.83 278.31 434.52 278.86 437.20 279.41 439.14 280.10 441.08 280.79 442.97 281.70 444.87 282.61 447.45 283.19 450.03 283.78 452.20 284.23 454.38 284.67 456.38 284.69 458.38 284.70 460.50 284.80 462.62 284.89 464.73 285.82 466.84 286.75 466.85 286.76 466.85 286.76 466.85 286.76 466.86 286.77 463.90 288.32 460.94 289.86 458.88 289.88 456.82 289.90 454.75 289.75 452.68 289.60 450.71 289.07 448.75 288.55 446.36 287.88 443.96 287.21 441.71 286.41 439.46 285.62 437.44 284.94 435.42 284.25 433.54 283.42 431.66 282.59 429.71 281.64 427.77 280.68 426.01 279.24 424.25 277.80 422.69 276.54 421.13 275.28 419.59 273.95 418.05 272.61 416.79 271.03 415.53 269.44 414.06 267.39 412.59 265.34 411.94 263.38 411.28 261.42 410.93 259.39 410.58 257.35 409.97 255.22 409.37 253.08 409.03 251.02 408.69 248.97 408.44 246.94 408.20 244.92 408.29 242.26 408.38 239.61 407.22 237.53 406.07 235.45 405.78 233.39 405.49 231.33 405.07 229.24 404.65 227.15 404.44 224.58 404.23 222.02 403.77 219.96 403.31 217.89 402.77 215.24 402.24 212.58 401.85 210.39 401.47 208.20 401.13 206.19 400.79 204.17 400.77 202.16 400.76 200.14 399.62 198.01 398.48 195.89 397.67 193.56 396.87 191.23 395.70 189.27 394.54 187.30 393.25 185.36 391.97 183.41 390.81 181.67 389.65 179.92 388.11 178.60 386.58 177.27 384.99 175.97 383.41 174.67 381.44 174.31 379.46 173.96 377.53 173.29 375.59 172.63 373.60 172.27 371.61 171.90 369.53 171.87 367.45 171.83 365.37 171.17 363.30 170.50 361.37 171.14 359.44 171.77 357.31 172.35 355.18 172.92 353.11 173.22 351.04 173.52 349.00 173.77 346.95 174.01 344.68 174.79 342.42 175.58 341.01 177.02 339.61 178.47 337.44 177.90 335.28 177.33 336.43 177.46 337.58 177.60 337.58 177.61 Z"></path><path fill="#ff595e" d="M 399.97 206.50 Q 399.97 206.50 400.41 205.55 400.85 204.61 401.35 206.66 401.85 208.70 401.01 210.63 400.17 212.57 398.80 214.92 397.44 217.27 396.08 219.07 394.71 220.87 393.16 223.00 391.61 225.12 390.70 227.28 389.79 229.44 388.78 231.20 387.77 232.96 386.45 234.80 385.14 236.64 383.50 239.08 381.86 241.51 380.70 243.14 379.55 244.78 378.47 246.66 377.39 248.53 375.93 250.93 374.47 253.33 372.87 255.02 371.27 256.72 370.50 258.61 369.73 260.51 367.99 262.53 366.24 264.55 365.11 266.37 363.97 268.19 362.44 269.81 360.90 271.43 360.14 273.45 359.37 275.47 358.17 277.31 356.98 279.14 354.18 280.59 351.39 282.03 351.38 282.03 351.38 282.03 351.37 282.03 351.37 282.03 350.89 279.69 350.41 277.34 351.53 275.68 352.66 274.01 353.90 272.20 355.15 270.39 356.25 268.55 357.35 266.72 358.75 264.33 360.15 261.95 362.02 259.76 363.90 257.58 365.15 255.42 366.39 253.27 367.67 251.49 368.95 249.71 370.27 248.09 371.59 246.47 372.37 244.60 373.15 242.74 374.39 241.02 375.63 239.31 376.83 237.65 378.04 235.99 379.38 234.32 380.73 232.64 382.03 230.85 383.32 229.06 384.76 226.73 386.21 224.41 387.45 222.75 388.70 221.10 390.01 218.97 391.31 216.84 392.78 215.15 394.25 213.45 395.62 211.57 396.98 209.69 398.80 208.67 400.62 207.65 400.30 207.08 399.98 206.52 399.98 206.51 Z"></path><path fill="#ffca3a" d="M 559.57 130.97 Q 559.57 130.97 560.60 129.25 561.63 127.54 564.28 126.52 566.92 125.49 569.15 124.72 571.37 123.95 574.31 124.81 577.25 125.67 577.25 125.67 577.25 125.67 577.24 125.68 577.24 125.68 574.80 126.94 572.36 128.19 570.35 128.98 568.34 129.77 565.95 130.58 563.56 131.39 561.57 131.19 559.58 130.99 559.58 130.98 Z"></path><path fill="#ffca3a" d="M 558.26 172.34 Q 558.26 172.34 559.57 171.44 560.88 170.53 563.20 170.24 565.52 169.94 567.58 169.52 569.64 169.11 571.87 168.67 574.11 168.24 576.23 167.73 578.35 167.22 581.41 168.14 584.46 169.06 584.46 169.06 584.46 169.07 584.46 169.07 584.46 169.08 582.25 170.29 580.05 171.50 577.29 172.29 574.53 173.08 572.54 173.61 570.55 174.14 567.42 174.57 564.28 175.00 562.23 174.96 560.17 174.93 559.22 173.65 558.26 172.36 558.26 172.35 Z"></path><path fill="#ffca3a" d="M 553.01 228.83 Q 553.01 228.83 554.80 228.09 556.59 227.35 559.07 228.05 561.55 228.76 563.94 229.16 566.33 229.56 568.85 229.98 571.37 230.40 573.59 230.68 575.82 230.97 577.35 231.87 578.87 232.76 578.87 232.77 578.87 232.77 578.87 232.78 578.87 232.78 577.30 233.63 575.72 234.47 573.31 234.48 570.90 234.49 568.30 234.30 565.70 234.10 562.99 233.78 560.28 233.47 557.87 232.65 555.47 231.84 554.24 230.34 553.01 228.85 553.01 228.84 Z"></path><path fill="#ffca3a" d="M 532.66 291.22 Q 532.66 291.22 534.07 291.34 535.49 291.46 538.89 292.66 542.28 293.86 544.48 294.46 546.67 295.06 548.66 295.66 550.66 296.26 551.80 297.94 552.94 299.62 552.94 299.62 552.93 299.62 552.93 299.63 552.92 299.63 549.33 299.64 545.75 299.66 543.28 299.14 540.81 298.62 538.46 297.77 536.11 296.93 534.09 295.48 532.07 294.02 532.36 292.63 532.64 291.24 532.65 291.23 Z"></path><path fill="#ffca3a" d="M 506.38 349.04 Q 506.38 349.04 506.00 350.08 505.62 351.12 505.37 351.09 505.12 351.06 504.88 350.97 504.65 350.88 504.44 350.74 504.23 350.60 504.06 350.41 503.90 350.22 503.78 349.99 503.66 349.77 503.60 349.53 503.54 349.28 503.54 349.03 503.54 348.77 503.60 348.53 503.66 348.28 503.78 348.06 503.90 347.84 504.06 347.65 504.23 347.46 504.44 347.31 504.65 347.17 504.88 347.08 505.12 346.99 505.37 346.96 505.62 346.93 507.15 348.34 508.68 349.76 510.08 351.33 511.48 352.89 513.58 354.52 515.68 356.14 518.70 357.44 521.73 358.75 521.73 358.75 521.72 358.76 521.72 358.76 521.72 358.77 518.64 358.90 515.55 359.03 513.49 358.29 511.44 357.54 509.22 356.33 507.01 355.11 506.32 353.12 505.62 351.12 505.37 351.09 505.12 351.06 504.88 350.97 504.65 350.88 504.44 350.74 504.23 350.60 504.06 350.41 503.90 350.22 503.78 349.99 503.66 349.77 503.60 349.53 503.54 349.28 503.54 349.03 503.54 348.77 503.60 348.53 503.66 348.28 503.78 348.06 503.90 347.84 504.06 347.65 504.23 347.46 504.44 347.31 504.65 347.17 504.88 347.08 505.12 346.99 505.37 346.96 505.62 346.93 506.00 347.97 506.38 349.02 506.38 349.03 Z"></path><path fill="#ffca3a" d="M 450.56 381.87 Q 450.56 381.87 450.90 382.94 451.25 384.00 451.81 386.03 452.36 388.05 452.87 390.01 453.38 391.98 453.63 394.05 453.88 396.13 453.79 397.53 453.69 398.93 453.69 398.93 453.69 398.94 453.69 398.94 453.69 398.95 451.73 397.72 449.76 396.49 449.19 394.43 448.63 392.37 448.29 389.66 447.96 386.94 448.15 384.85 448.34 382.75 449.44 382.31 450.54 381.86 450.55 381.87 Z"></path><path fill="#ffca3a" d="M 344.82 381.22 Q 344.82 381.22 344.70 382.67 344.59 384.13 343.30 386.70 342.00 389.28 340.84 391.30 339.68 393.33 336.74 395.13 333.79 396.93 333.79 396.93 333.79 396.92 333.79 396.92 333.79 396.91 335.32 393.66 336.86 390.40 338.23 388.03 339.60 385.65 340.80 383.86 342.01 382.06 343.40 381.63 344.80 381.20 344.81 381.21 Z"></path><path fill="#ffca3a" d="M 294.89 339.19 Q 294.89 339.19 293.96 340.05 293.03 340.91 291.23 342.12 289.43 343.34 287.16 345.29 284.88 347.24 282.99 348.59 281.10 349.95 279.33 351.13 277.57 352.32 275.20 352.31 272.83 352.30 272.83 352.29 272.83 352.29 272.83 352.28 272.83 352.28 274.60 350.10 276.36 347.92 278.28 346.34 280.20 344.76 282.34 343.24 284.48 341.72 286.33 340.34 288.18 338.96 290.58 338.20 292.98 337.45 293.94 338.31 294.89 339.17 294.89 339.18 Z"></path><path fill="#ffca3a" d="M 261.40 274.16 Q 261.40 274.16 261.11 275.16 260.81 276.16 259.21 277.41 257.61 278.66 255.93 280.11 254.24 281.56 252.57 282.92 250.90 284.28 248.66 285.93 246.43 287.58 243.77 287.77 241.10 287.95 241.10 287.95 241.10 287.94 241.10 287.94 241.10 287.93 243.38 285.54 245.65 283.15 247.72 281.74 249.79 280.32 251.29 278.92 252.78 277.52 254.45 276.22 256.11 274.92 257.91 273.91 259.72 272.90 260.56 273.52 261.40 274.15 261.40 274.15 Z"></path><path fill="#ffca3a" d="M 242.35 217.68 Q 242.35 217.68 240.94 218.66 239.53 219.64 237.22 220.16 234.91 220.68 232.83 221.17 230.75 221.67 227.09 222.09 223.44 222.51 220.59 221.42 217.74 220.33 217.75 220.32 217.75 220.32 217.75 220.31 217.75 220.31 221.59 219.58 225.42 218.84 227.73 218.19 230.03 217.54 232.14 217.28 234.24 217.01 236.69 216.73 239.13 216.46 240.74 217.06 242.35 217.66 242.35 217.67 Z"></path><path fill="#ffca3a" d="M 227.24 161.86 Q 227.24 161.86 226.34 162.26 225.44 162.66 223.03 162.38 220.62 162.10 218.54 162.34 216.47 162.59 214.47 162.96 212.47 163.34 210.42 163.85 208.38 164.35 206.13 164.34 203.88 164.33 201.78 162.82 199.68 161.32 199.69 161.32 199.69 161.32 199.70 161.32 199.70 161.31 201.77 160.98 203.84 160.64 206.29 160.25 208.75 159.85 210.77 159.44 212.79 159.02 214.90 158.78 217.00 158.54 219.13 158.72 221.27 158.90 223.65 159.59 226.03 160.27 226.64 161.05 227.25 161.84 227.25 161.85 Z"></path><path fill="#ffca3a" d="M 229.21 113.91 Q 229.21 113.91 228.05 113.56 226.90 113.20 225.06 112.03 223.21 110.86 221.34 109.99 219.47 109.12 217.24 108.44 215.01 107.76 213.09 107.20 211.16 106.64 208.45 104.43 205.73 102.21 205.74 102.21 205.74 102.20 205.74 102.20 205.74 102.19 207.37 101.82 208.99 101.45 211.32 101.85 213.64 102.24 216.09 103.11 218.54 103.98 220.26 105.00 221.98 106.02 223.62 107.23 225.25 108.44 226.88 110.01 228.51 111.58 228.87 112.73 229.22 113.89 229.22 113.90 Z"></path><path fill="#ffca3a" d="M 557.60 106.02 Q 557.60 106.02 556.91 105.02 556.22 104.03 557.23 102.28 558.25 100.52 560.04 98.86 561.84 97.20 564.06 95.36 566.29 93.53 569.10 93.53 571.91 93.54 571.91 93.54 571.91 93.55 571.91 93.55 571.91 93.56 571.19 94.95 570.48 96.35 568.74 97.69 567.01 99.04 565.03 100.60 563.05 102.16 561.40 103.57 559.75 104.99 558.68 105.50 557.62 106.02 557.61 106.02 Z"></path>
</svg>